<?xml version="1.0" standalone="no"?>
<!DOCTYPE svg PUBLIC "-//W3C//DTD SVG 20010904//EN"
 "http://www.w3.org/TR/2001/REC-SVG-20010904/DTD/svg10.dtd">
<svg version="1.0" xmlns="http://www.w3.org/2000/svg"
 width="1500.000000pt" height="1500.000000pt" viewBox="0 0 1500.000000 1500.000000"
 preserveAspectRatio="xMidYMid meet">

<g transform="translate(0.000000,1500.000000) scale(0.100000,-0.100000)"
fill="#000000" stroke="none">
<path d="M6025 12699 c-764 -71 -1487 -393 -2043 -910 -526 -489 -907 -1186
-1032 -1888 -61 -347 -67 -780 -15 -1126 64 -422 216 -854 426 -1212 138 -234
354 -517 514 -673 l66 -65 -72 119 c-277 459 -435 975 -458 1494 -28 655 129
1271 463 1817 389 635 995 1116 1699 1350 800 264 1638 208 2389 -162 714
-351 1241 -917 1548 -1664 86 -210 142 -404 184 -641 l23 -133 8 100 c10 132
0 439 -20 595 -50 389 -149 720 -321 1079 -175 364 -372 640 -663 932 -285
284 -580 491 -961 673 -323 153 -669 253 -1050 301 -149 19 -545 27 -685 14z"/>
<path d="M1859 11813 c-356 -364 -635 -756 -866 -1217 -458 -914 -608 -1965
-427 -2985 223 -1261 973 -2412 2029 -3118 696 -465 1458 -730 2305 -803 166
-15 591 -14 755 0 340 30 727 103 960 180 52 17 55 19 20 14 -320 -39 -737
-54 -1000 -35 -917 67 -1739 346 -2482 842 -701 469 -1291 1137 -1678 1904
-485 958 -646 2006 -475 3085 117 738 423 1479 872 2108 48 67 86 122 85 122
-1 0 -45 -44 -98 -97z"/>
<path d="M9941 8966 c-52 -29 -50 -7 -51 -815 l0 -753 34 -34 34 -34 1621 0
c1783 0 1663 -4 1696 60 13 26 15 121 13 780 l-3 750 -28 27 -27 28 -1633 2
c-1342 2 -1636 0 -1656 -11z m280 -175 l29 -29 0 -506 0 -506 255 0 c271 0
301 -4 325 -49 18 -35 12 -87 -16 -120 l-26 -31 -343 0 -343 0 -26 31 -26 31
0 575 0 575 29 29 c23 23 38 29 71 29 33 0 48 -6 71 -29z m1620 0 c31 -31 39
-83 19 -122 -24 -45 -54 -49 -325 -49 l-255 0 0 -164 0 -165 231 -3 231 -3 29
-33 c48 -54 35 -129 -28 -161 -14 -7 -100 -11 -242 -11 l-221 0 0 -165 0 -165
255 0 c278 0 300 -4 323 -55 21 -45 15 -84 -17 -116 l-29 -29 -339 0 c-331 0
-340 1 -362 21 -12 11 -26 32 -32 46 -13 35 -12 1104 2 1140 23 63 20 63 392
63 l339 0 29 -29z m480 -10 l29 -29 0 -276 c0 -152 3 -276 7 -276 3 0 141 137
307 305 297 301 302 306 341 305 48 0 82 -22 100 -63 24 -56 7 -80 -210 -297
-113 -113 -205 -208 -205 -210 0 -3 94 -129 210 -280 188 -247 210 -279 210
-313 0 -55 -43 -97 -100 -97 -54 0 -60 6 -285 303 -99 130 -183 237 -186 237
-3 0 -47 -43 -98 -95 l-91 -95 0 -141 c0 -177 -14 -208 -93 -209 -49 0 -73 13
-92 50 -22 42 -23 1102 -1 1154 17 42 39 55 89 56 29 0 45 -7 68 -29z"/>
<path d="M4414 8797 l-29 -25 -3 -568 c-3 -597 -2 -609 42 -639 32 -23 90 -19
123 9 l28 24 5 219 5 218 160 5 c153 5 163 7 227 37 305 143 300 573 -8 715
-46 22 -64 23 -285 26 l-236 3 -29 -24z m503 -213 c106 -84 103 -232 -6 -309
-42 -30 -45 -30 -187 -33 l-144 -3 0 191 0 191 149 -3 149 -3 39 -31z"/>
<path d="M5703 8810 c-34 -14 -46 -39 -128 -260 -79 -211 -141 -378 -175 -465
-97 -253 -144 -388 -148 -430 -4 -44 -1 -53 23 -78 21 -21 37 -27 69 -27 64 1
81 21 136 165 l49 130 221 0 222 0 48 -130 c54 -143 71 -165 132 -165 52 0 98
43 98 92 0 19 -86 264 -207 587 -190 508 -210 555 -238 572 -32 20 -67 23
-102 9z m120 -571 c38 -99 67 -183 64 -185 -2 -3 -67 -3 -145 -2 l-140 3 37
95 c21 52 52 134 71 183 18 48 36 87 39 87 3 0 37 -81 74 -181z"/>
<path d="M7829 8791 l-29 -29 0 -577 0 -577 29 -29 29 -29 337 0 337 0 29 29
c49 50 32 138 -32 160 -20 7 -124 11 -280 11 l-249 0 0 165 0 165 220 0 c240
0 265 5 288 55 20 44 14 82 -17 117 l-29 33 -231 3 -231 3 0 165 0 164 249 0
c156 0 260 4 280 11 64 22 81 110 32 160 l-29 29 -337 0 -337 0 -29 -29z"/>
<path d="M8809 8791 c-20 -20 -29 -40 -29 -61 0 -38 23 -85 47 -96 10 -5 90
-11 178 -14 l160 -5 2 -500 c2 -345 6 -507 14 -521 23 -44 105 -58 147 -26 13
10 27 36 32 57 5 22 10 255 10 518 l0 477 150 0 c196 0 232 17 232 108 0 28
-7 43 -31 64 l-31 28 -426 0 -426 0 -29 -29z"/>
<path d="M6529 8781 l-29 -29 0 -572 0 -572 29 -29 c22 -21 39 -29 66 -29 88
0 105 35 105 217 l1 138 89 93 c50 51 95 90 100 87 6 -3 96 -118 200 -255 105
-137 200 -256 212 -264 39 -28 105 -16 135 23 7 9 13 35 13 58 0 35 -8 52 -57
116 -32 42 -127 166 -211 277 l-154 201 210 208 c134 133 212 218 216 235 17
67 -33 126 -106 126 -29 0 -62 -30 -340 -307 l-308 -308 0 269 c0 232 -2 272
-17 296 -33 57 -107 67 -154 21z"/>
</g>
</svg>
