<svg id="svg" version="1.1" xmlns="http://www.w3.org/2000/svg" xmlns:xlink="http://www.w3.org/1999/xlink" width="400" height="99.41176470588235" viewBox="0, 0, 400,99.41176470588235"><g id="svgg"><path id="path0" d="M120.884 0.375 C 120.798 0.490,120.583 1.033,120.406 1.583 C 120.229 2.133,120.026 2.626,119.955 2.679 C 119.884 2.731,119.792 2.919,119.750 3.096 C 119.565 3.883,118.935 5.593,118.797 5.683 C 118.713 5.738,118.629 5.888,118.609 6.017 C 118.590 6.145,118.531 6.325,118.478 6.417 C 118.425 6.508,118.279 6.940,118.154 7.375 C 118.029 7.810,117.874 8.167,117.809 8.167 C 117.744 8.167,117.566 8.598,117.414 9.125 C 117.262 9.652,116.968 10.423,116.760 10.839 C 116.553 11.254,116.216 12.135,116.011 12.797 C 115.806 13.459,115.587 14.000,115.524 14.000 C 115.461 14.000,115.223 14.599,114.996 15.332 C 114.769 16.064,114.532 16.664,114.468 16.665 C 114.405 16.666,114.155 17.304,113.912 18.083 C 113.669 18.863,113.402 19.500,113.319 19.500 C 113.235 19.500,113.181 19.556,113.198 19.625 C 113.215 19.694,113.115 20.012,112.976 20.333 C 112.837 20.654,112.619 21.273,112.492 21.708 C 112.365 22.144,112.215 22.500,112.160 22.500 C 112.104 22.500,111.882 23.063,111.667 23.750 C 111.451 24.438,111.219 25.000,111.151 25.000 C 111.082 25.000,110.974 25.244,110.911 25.542 C 110.847 25.840,110.739 26.158,110.672 26.250 C 110.604 26.342,110.446 26.773,110.321 27.208 C 110.196 27.644,110.035 28.000,109.964 28.000 C 109.892 28.000,109.833 28.135,109.833 28.300 C 109.833 28.465,109.769 28.671,109.689 28.758 C 109.610 28.845,109.410 29.382,109.244 29.950 C 109.078 30.519,108.895 30.955,108.838 30.919 C 108.781 30.884,108.598 31.319,108.433 31.886 C 108.267 32.453,107.998 33.142,107.836 33.417 C 107.673 33.692,107.375 34.460,107.173 35.125 C 106.971 35.790,106.756 36.334,106.694 36.335 C 106.633 36.336,106.359 37.042,106.086 37.904 C 105.812 38.766,105.544 39.444,105.490 39.410 C 105.436 39.377,105.255 39.815,105.088 40.383 C 104.922 40.952,104.707 41.567,104.611 41.750 C 104.122 42.687,104.086 42.677,107.809 42.628 L 111.229 42.583 111.655 41.333 C 111.889 40.646,112.125 40.046,112.180 40.000 C 112.235 39.954,112.475 39.354,112.713 38.667 C 112.951 37.979,113.290 37.117,113.465 36.750 C 113.641 36.383,113.927 35.671,114.101 35.167 C 114.274 34.662,114.466 34.227,114.526 34.200 C 114.586 34.172,114.806 33.628,115.014 32.991 C 115.223 32.354,115.453 31.833,115.524 31.833 C 115.595 31.833,115.735 31.533,115.833 31.167 L 116.013 30.500 123.329 30.500 C 130.498 30.500,130.646 30.507,130.750 30.833 C 130.808 31.017,130.930 31.167,131.021 31.167 C 131.112 31.167,131.138 31.245,131.079 31.341 C 131.020 31.436,131.052 31.612,131.151 31.731 C 131.250 31.850,131.483 32.425,131.669 33.008 C 131.856 33.591,132.083 34.115,132.175 34.172 C 132.266 34.228,132.375 34.419,132.416 34.596 C 132.563 35.228,133.168 36.884,133.320 37.067 C 133.477 37.256,133.888 38.315,134.185 39.292 C 134.275 39.590,134.404 39.833,134.471 39.833 C 134.538 39.833,134.729 40.302,134.896 40.875 C 135.453 42.789,135.173 42.667,139.004 42.667 C 142.222 42.667,142.333 42.656,142.333 42.333 C 142.333 42.150,142.270 42.000,142.192 42.000 C 142.115 42.000,141.888 41.438,141.688 40.750 C 141.488 40.063,141.268 39.500,141.199 39.500 C 141.130 39.500,140.936 39.031,140.766 38.458 C 140.597 37.885,140.293 37.079,140.091 36.667 C 139.888 36.254,139.590 35.485,139.429 34.958 C 139.268 34.431,139.063 34.000,138.975 34.000 C 138.886 34.000,138.865 33.917,138.928 33.815 C 138.991 33.713,138.969 33.582,138.879 33.523 C 138.790 33.465,138.545 32.892,138.336 32.250 C 138.127 31.608,137.891 31.001,137.813 30.901 C 137.734 30.801,137.518 30.246,137.333 29.667 C 137.148 29.088,136.914 28.513,136.811 28.390 C 136.709 28.267,136.691 28.166,136.771 28.164 C 136.851 28.163,136.836 28.106,136.737 28.039 C 136.639 27.972,136.341 27.279,136.076 26.500 C 135.810 25.721,135.553 25.046,135.505 25.000 C 135.396 24.897,135.031 23.946,134.801 23.167 C 134.707 22.846,134.572 22.546,134.502 22.500 C 134.431 22.454,134.165 21.779,133.909 21.000 C 133.653 20.221,133.388 19.545,133.319 19.499 C 133.250 19.452,133.034 18.927,132.837 18.332 C 132.641 17.737,132.383 17.063,132.265 16.833 C 132.147 16.604,131.870 15.892,131.651 15.250 C 131.431 14.608,131.196 14.059,131.129 14.029 C 131.062 13.999,130.848 13.436,130.654 12.779 C 130.460 12.121,130.167 11.358,130.004 11.083 C 129.841 10.808,129.542 10.040,129.340 9.375 C 129.138 8.710,128.920 8.167,128.856 8.167 C 128.792 8.167,128.639 7.810,128.516 7.375 C 128.393 6.940,128.162 6.354,128.003 6.073 C 127.730 5.590,126.980 3.521,126.895 3.017 C 126.873 2.888,126.794 2.738,126.719 2.683 C 126.561 2.567,126.211 1.689,125.964 0.792 L 125.793 0.167 123.417 0.167 C 121.711 0.167,120.997 0.225,120.884 0.375 M80.333 21.657 L 80.333 42.667 83.417 42.667 L 86.500 42.667 86.500 35.750 L 86.500 28.833 91.208 28.830 C 96.993 28.827,100.564 28.464,101.000 27.836 C 101.046 27.770,101.482 27.584,101.970 27.424 C 102.458 27.263,102.897 27.027,102.946 26.899 C 102.995 26.771,103.108 26.667,103.196 26.667 C 103.571 26.667,106.333 24.160,106.333 23.820 C 106.333 23.749,106.441 23.583,106.572 23.452 C 107.014 23.009,108.154 20.652,108.427 19.614 C 108.576 19.047,108.785 18.403,108.891 18.183 C 109.142 17.660,109.159 11.540,108.910 11.369 C 108.814 11.303,108.601 10.667,108.437 9.955 C 108.272 9.243,108.042 8.565,107.925 8.449 C 107.715 8.238,107.009 6.756,107.023 6.553 C 107.027 6.495,106.915 6.382,106.774 6.303 C 106.633 6.224,106.350 5.861,106.145 5.497 C 105.940 5.132,105.691 4.833,105.592 4.833 C 105.493 4.833,105.338 4.666,105.248 4.461 C 105.157 4.257,104.896 3.997,104.667 3.884 C 104.438 3.772,104.125 3.526,103.972 3.339 C 103.820 3.151,103.315 2.822,102.851 2.607 C 102.386 2.392,102.044 2.178,102.091 2.132 C 102.192 2.030,100.175 1.333,99.780 1.333 C 99.626 1.333,99.500 1.253,99.500 1.155 C 99.500 1.057,99.331 0.998,99.125 1.025 C 98.919 1.051,98.638 1.000,98.500 0.912 C 98.349 0.814,94.698 0.730,89.292 0.699 L 80.333 0.648 80.333 21.657 M142.667 21.667 L 142.667 42.667 145.833 42.667 L 149.000 42.667 149.000 21.667 L 149.000 0.667 145.833 0.667 L 142.667 0.667 142.667 21.667 M163.891 1.125 C 163.734 1.377,163.526 1.658,163.428 1.750 C 163.330 1.842,163.025 2.250,162.750 2.658 C 162.475 3.065,162.081 3.582,161.875 3.807 C 161.669 4.032,161.500 4.314,161.500 4.435 C 161.500 4.556,161.353 4.734,161.173 4.830 C 160.994 4.926,160.722 5.269,160.568 5.591 C 160.415 5.914,160.150 6.253,159.978 6.345 C 159.807 6.437,159.667 6.610,159.667 6.730 C 159.667 6.850,159.517 7.084,159.333 7.250 C 159.150 7.416,159.000 7.612,159.000 7.687 C 159.000 7.761,158.848 7.993,158.661 8.202 C 157.722 9.259,157.141 10.000,157.250 10.000 C 157.317 10.000,157.101 10.300,156.769 10.667 C 156.438 11.034,156.165 11.390,156.164 11.459 C 156.163 11.527,155.864 11.921,155.500 12.333 C 155.136 12.746,154.837 13.174,154.836 13.286 C 154.835 13.397,154.693 13.563,154.522 13.655 C 154.350 13.747,154.082 14.091,153.926 14.421 C 153.769 14.751,153.535 15.061,153.404 15.111 C 153.273 15.161,153.167 15.277,153.167 15.369 C 153.167 15.460,152.998 15.744,152.792 15.999 C 151.603 17.467,151.420 17.720,151.457 17.849 C 151.479 17.926,151.356 18.065,151.184 18.157 C 151.012 18.249,150.705 18.608,150.502 18.954 C 150.299 19.300,150.027 19.643,149.899 19.717 C 149.381 20.013,149.587 23.232,150.167 23.891 C 150.442 24.204,150.667 24.539,150.667 24.636 C 150.667 24.732,150.892 24.971,151.167 25.167 C 151.442 25.362,151.667 25.611,151.668 25.720 C 151.669 25.828,151.893 26.093,152.167 26.309 C 152.441 26.526,152.627 26.762,152.582 26.836 C 152.536 26.909,152.724 27.159,153.000 27.391 C 153.275 27.622,153.500 27.860,153.500 27.918 C 153.500 28.075,155.177 30.134,155.708 30.628 C 155.960 30.863,156.167 31.136,156.168 31.236 C 156.169 31.335,156.394 31.594,156.668 31.810 C 156.942 32.027,157.167 32.303,157.167 32.423 C 157.167 32.544,157.354 32.790,157.583 32.970 C 157.813 33.150,158.001 33.362,158.002 33.441 C 158.003 33.519,158.305 33.907,158.672 34.302 C 159.039 34.698,159.469 35.223,159.627 35.469 C 159.786 35.715,160.084 36.053,160.291 36.220 C 160.498 36.387,160.667 36.610,160.667 36.714 C 160.667 36.819,160.851 37.094,161.077 37.327 C 162.319 38.607,162.500 38.813,162.504 38.942 C 162.506 39.020,162.750 39.354,163.046 39.685 C 163.984 40.734,164.908 41.863,165.164 42.272 L 165.411 42.667 182.289 42.667 L 199.167 42.667 199.167 39.500 L 199.167 36.333 189.500 36.333 L 179.833 36.333 179.833 30.667 L 179.833 25.000 189.254 25.000 L 198.674 25.000 198.629 21.792 L 198.583 18.583 189.208 18.540 L 179.833 18.497 179.833 12.832 L 179.833 7.167 189.487 7.167 L 199.141 7.167 199.160 3.921 L 199.178 0.675 186.339 0.669 L 173.500 0.663 173.495 21.373 L 173.489 42.083 173.120 41.655 C 172.916 41.420,172.450 40.869,172.083 40.431 C 171.717 39.993,171.267 39.459,171.083 39.243 C 170.212 38.220,169.561 37.420,169.333 37.092 C 169.196 36.894,168.933 36.577,168.750 36.388 C 168.379 36.006,167.647 35.150,166.970 34.306 C 166.725 34.000,166.237 33.407,165.887 32.988 C 165.537 32.569,164.950 31.861,164.583 31.414 C 164.217 30.968,163.598 30.253,163.208 29.825 C 162.819 29.398,162.500 28.989,162.500 28.917 C 162.500 28.778,162.225 28.462,161.258 27.488 C 160.933 27.161,160.667 26.807,160.667 26.701 C 160.667 26.596,160.442 26.344,160.167 26.140 C 159.892 25.937,159.667 25.679,159.667 25.567 C 159.667 25.455,159.442 25.174,159.167 24.942 C 158.892 24.711,158.667 24.471,158.667 24.410 C 158.667 24.199,157.871 23.352,157.769 23.454 C 157.713 23.510,157.667 23.476,157.667 23.379 C 157.667 23.282,157.375 22.851,157.020 22.420 C 156.421 21.695,156.257 21.000,156.686 21.000 C 156.767 21.000,157.056 20.644,157.330 20.208 C 157.603 19.773,157.828 19.490,157.830 19.580 C 157.832 19.670,158.035 19.445,158.281 19.080 C 158.528 18.715,158.813 18.342,158.916 18.250 C 159.018 18.158,159.305 17.783,159.552 17.417 C 160.358 16.222,161.477 14.774,162.101 14.119 C 162.294 13.916,162.575 13.510,162.726 13.217 C 162.877 12.923,163.098 12.623,163.217 12.550 C 163.461 12.400,164.249 11.315,164.250 11.128 C 164.250 11.061,164.419 10.888,164.625 10.744 C 164.831 10.599,165.000 10.401,165.000 10.302 C 165.000 10.204,165.244 9.842,165.542 9.497 C 166.562 8.315,166.802 8.006,167.187 7.379 C 167.399 7.033,167.819 6.495,168.120 6.183 C 168.421 5.871,168.667 5.544,168.667 5.457 C 168.667 5.369,168.854 5.150,169.083 4.970 C 169.313 4.790,169.500 4.554,169.500 4.446 C 169.500 4.338,169.696 4.025,169.936 3.750 C 170.175 3.475,170.568 2.987,170.810 2.667 C 171.052 2.346,171.419 1.897,171.625 1.668 C 172.503 0.697,172.398 0.667,168.087 0.667 L 164.174 0.667 163.891 1.125 M201.333 3.917 L 201.333 7.167 207.583 7.167 L 213.833 7.167 213.833 25.004 L 213.833 42.841 216.958 42.795 L 220.083 42.750 220.126 24.958 L 220.168 7.167 226.417 7.167 L 232.667 7.167 232.667 3.917 L 232.667 0.667 217.000 0.667 L 201.333 0.667 201.333 3.917 M97.845 7.447 C 98.343 7.601,98.812 7.712,98.887 7.693 C 98.963 7.674,98.987 7.719,98.941 7.794 C 98.895 7.868,99.096 8.032,99.387 8.158 C 102.358 9.443,103.950 15.795,102.016 18.645 C 101.853 18.886,101.509 19.402,101.253 19.792 C 100.997 20.181,100.737 20.500,100.676 20.500 C 100.614 20.500,100.327 20.731,100.038 21.014 C 99.504 21.536,98.109 22.167,97.488 22.167 C 97.301 22.167,97.193 22.242,97.250 22.333 C 97.318 22.443,95.502 22.500,91.927 22.500 L 86.500 22.500 86.500 14.833 L 86.500 7.167 91.720 7.167 C 96.139 7.167,97.078 7.210,97.845 7.447 M123.854 11.875 C 124.070 12.540,124.304 13.108,124.374 13.139 C 124.444 13.170,124.465 13.255,124.420 13.327 C 124.375 13.400,124.446 13.675,124.576 13.938 C 124.707 14.201,124.908 14.792,125.024 15.250 C 125.139 15.708,125.319 16.196,125.424 16.333 C 125.529 16.471,125.823 17.333,126.078 18.250 C 126.332 19.167,126.602 19.955,126.676 20.003 C 126.750 20.050,126.971 20.688,127.166 21.420 C 127.362 22.151,127.592 22.775,127.679 22.806 C 127.765 22.837,127.788 22.939,127.730 23.033 C 127.672 23.127,127.697 23.252,127.786 23.310 C 127.876 23.369,127.999 23.623,128.061 23.875 L 128.173 24.333 123.333 24.333 L 118.494 24.333 118.606 23.875 C 118.668 23.623,118.791 23.369,118.880 23.310 C 118.970 23.252,118.991 23.121,118.928 23.019 C 118.865 22.917,118.879 22.833,118.958 22.833 C 119.094 22.833,119.833 20.621,119.833 20.215 C 119.833 20.112,119.912 20.001,120.009 19.969 C 120.105 19.937,120.252 19.650,120.334 19.330 C 120.713 17.859,121.087 16.734,121.256 16.559 C 121.358 16.454,121.579 15.854,121.747 15.226 C 121.915 14.598,122.105 14.046,122.169 14.000 C 122.279 13.921,122.865 12.101,123.095 11.125 C 123.264 10.407,123.432 10.573,123.854 11.875 M165.083 58.257 C 164.992 58.283,164.712 58.349,164.462 58.404 C 162.669 58.799,162.030 62.052,163.533 63.135 C 163.845 63.361,163.615 63.833,163.193 63.833 C 163.103 63.833,162.844 64.054,162.617 64.324 C 162.390 64.594,162.168 64.779,162.124 64.736 C 161.980 64.592,161.558 65.404,161.380 66.167 C 161.045 67.600,161.527 69.207,162.485 69.847 C 162.814 70.067,163.137 70.323,163.203 70.415 C 163.467 70.788,166.721 70.618,167.161 70.208 C 167.382 70.002,167.652 69.833,167.761 69.833 C 167.870 69.833,168.048 69.726,168.157 69.594 C 168.376 69.332,168.545 69.433,169.462 70.375 C 170.046 70.976,170.179 70.956,170.805 70.176 C 171.392 69.447,171.444 69.246,171.098 69.050 C 169.999 68.427,169.421 67.436,169.887 66.970 C 170.008 66.849,170.130 66.675,170.157 66.583 C 170.184 66.492,170.273 66.243,170.353 66.031 C 170.652 65.245,170.545 65.011,169.833 64.897 C 169.467 64.839,169.167 64.725,169.167 64.645 C 169.167 64.565,169.054 64.500,168.917 64.500 C 168.779 64.500,168.679 64.556,168.694 64.625 C 168.708 64.694,168.633 64.961,168.527 65.219 C 168.420 65.477,168.331 65.777,168.327 65.886 C 168.324 65.994,168.214 65.896,168.083 65.667 C 167.952 65.438,167.842 65.316,167.839 65.397 C 167.831 65.601,167.167 64.739,167.167 64.525 C 167.167 64.430,167.000 64.235,166.796 64.093 C 166.593 63.950,166.522 63.833,166.639 63.833 C 166.757 63.833,166.807 63.758,166.750 63.667 C 166.693 63.575,166.734 63.500,166.841 63.500 C 167.130 63.500,168.034 62.694,168.283 62.214 C 168.725 61.362,168.360 58.869,167.790 58.844 C 167.720 58.841,167.495 58.729,167.290 58.596 C 166.947 58.373,165.476 58.147,165.083 58.257 M71.587 58.542 C 71.549 58.656,71.494 60.813,71.466 63.333 C 71.415 67.913,71.414 67.917,71.011 68.375 C 70.106 69.401,68.536 68.845,68.378 67.444 L 68.288 66.651 67.436 66.700 L 66.583 66.750 66.533 67.724 C 66.504 68.275,66.548 68.657,66.633 68.604 C 66.716 68.553,66.874 68.812,66.985 69.181 C 67.095 69.549,67.312 69.896,67.468 69.952 C 67.623 70.008,67.892 70.200,68.066 70.379 C 68.430 70.754,71.222 70.749,71.678 70.373 C 73.153 69.152,73.167 69.084,73.167 63.093 L 73.167 58.333 72.411 58.333 C 71.955 58.333,71.629 58.416,71.587 58.542 M106.333 64.414 L 106.333 70.500 110.842 70.500 L 115.351 70.500 115.300 69.625 L 115.250 68.750 111.792 68.705 L 108.333 68.660 108.333 66.913 L 108.333 65.167 111.583 65.167 L 114.833 65.167 114.833 64.250 L 114.833 63.333 111.583 63.333 L 108.333 63.333 108.333 61.667 L 108.333 60.000 111.759 60.000 L 115.185 60.000 115.134 59.208 L 115.083 58.417 110.708 58.372 L 106.333 58.328 106.333 64.414 M117.185 58.561 C 117.050 58.724,117.008 60.451,117.039 64.603 L 117.083 70.417 118.000 70.417 L 118.917 70.417 118.965 68.673 C 119.042 65.842,119.534 65.717,120.793 68.208 C 120.920 68.460,121.085 68.667,121.159 68.667 C 121.232 68.667,121.379 68.875,121.485 69.130 C 121.915 70.168,122.378 70.500,123.394 70.500 C 123.943 70.500,124.333 70.427,124.333 70.324 C 124.333 70.039,123.485 68.595,123.232 68.450 C 123.104 68.377,123.000 68.219,123.000 68.099 C 123.000 67.980,122.831 67.694,122.625 67.465 C 122.232 67.027,121.927 66.557,121.540 65.792 C 121.413 65.540,121.239 65.333,121.154 65.333 C 120.763 65.333,121.112 64.865,122.500 63.527 C 124.308 61.783,124.337 61.667,122.962 61.667 L 121.923 61.667 120.462 63.122 L 119.000 64.576 119.000 61.556 C 119.000 58.230,119.035 58.333,117.923 58.333 C 117.621 58.333,117.289 58.436,117.185 58.561 M181.333 63.075 C 181.333 66.136,181.274 67.833,181.167 67.833 C 181.075 67.833,181.000 67.942,181.000 68.074 C 181.000 68.761,179.147 69.126,178.624 68.542 C 178.480 68.381,178.310 67.894,178.246 67.458 L 178.129 66.667 177.398 66.667 C 176.994 66.667,176.667 66.746,176.667 66.843 C 176.667 66.940,176.592 66.973,176.500 66.917 C 176.311 66.800,176.285 67.434,176.440 68.372 C 176.496 68.714,176.608 68.953,176.688 68.904 C 176.768 68.854,176.833 68.955,176.833 69.128 C 176.833 69.430,177.470 70.167,177.731 70.167 C 177.800 70.167,177.977 70.286,178.123 70.432 C 178.478 70.787,181.109 70.711,181.552 70.333 C 181.713 70.196,181.946 69.993,182.069 69.883 C 182.193 69.773,182.329 69.718,182.373 69.762 C 182.846 70.235,183.083 68.090,183.083 63.333 L 183.083 58.417 182.208 58.366 L 181.333 58.316 181.333 63.075 M215.111 58.444 C 215.050 58.506,215.000 58.881,215.000 59.278 L 215.000 60.000 217.000 60.000 L 219.000 60.000 219.000 65.250 L 219.000 70.500 219.917 70.500 L 220.833 70.500 220.833 65.250 L 220.833 60.000 222.750 60.000 L 224.667 60.000 224.667 59.167 L 224.667 58.333 219.944 58.333 C 217.347 58.333,215.172 58.383,215.111 58.444 M225.278 58.444 C 225.217 58.506,225.167 58.993,225.167 59.528 L 225.167 60.500 226.083 60.500 L 227.000 60.500 227.000 59.417 L 227.000 58.333 226.194 58.333 C 225.751 58.333,225.339 58.383,225.278 58.444 M233.351 58.562 C 233.234 58.703,233.169 59.149,233.199 59.612 L 233.250 60.417 234.188 60.466 L 235.126 60.515 235.105 59.466 L 235.083 58.417 234.319 58.367 C 233.800 58.333,233.489 58.396,233.351 58.562 M250.667 64.417 L 250.667 70.500 254.500 70.500 L 258.333 70.500 258.333 69.583 C 258.333 69.079,258.277 68.676,258.208 68.686 C 258.140 68.697,256.865 68.697,255.375 68.686 L 252.667 68.667 252.667 63.601 C 252.667 57.932,252.763 58.333,251.403 58.333 L 250.667 58.333 250.667 64.417 M288.111 58.444 C 288.050 58.506,288.000 61.243,288.000 64.528 L 288.000 70.500 288.917 70.500 L 289.833 70.500 289.833 66.250 C 289.833 62.038,289.896 61.572,290.340 62.458 C 290.466 62.710,290.802 63.254,291.085 63.667 C 291.369 64.079,291.689 64.623,291.797 64.875 C 291.905 65.127,292.053 65.333,292.127 65.333 C 292.201 65.333,292.484 65.746,292.756 66.249 C 293.028 66.753,293.305 67.166,293.372 67.166 C 293.439 67.166,293.684 67.542,293.917 68.000 C 294.149 68.458,294.413 68.833,294.503 68.833 C 294.593 68.833,294.667 68.910,294.667 69.004 C 294.667 69.782,295.558 70.500,296.524 70.500 L 297.504 70.500 297.460 64.458 L 297.417 58.417 296.583 58.417 L 295.750 58.417 295.706 62.708 C 295.658 67.305,295.632 67.433,295.009 66.164 C 294.785 65.707,294.537 65.333,294.459 65.333 C 294.380 65.333,294.214 65.090,294.089 64.792 C 293.964 64.494,293.607 63.913,293.294 63.500 C 292.982 63.087,292.678 62.619,292.618 62.458 C 292.559 62.298,292.429 62.167,292.329 62.167 C 292.229 62.167,292.193 62.092,292.250 62.000 C 292.307 61.908,292.287 61.833,292.207 61.833 C 292.127 61.833,291.883 61.515,291.665 61.125 C 291.447 60.735,291.160 60.307,291.028 60.173 C 290.895 60.039,290.684 59.683,290.558 59.382 C 290.432 59.080,290.250 58.833,290.155 58.833 C 290.059 58.833,290.022 58.766,290.073 58.684 C 290.259 58.383,288.400 58.156,288.111 58.444 M332.452 58.437 C 332.387 58.502,332.333 58.993,332.333 59.528 L 332.333 60.500 333.175 60.500 L 334.016 60.500 333.966 59.458 L 333.917 58.417 333.244 58.367 C 332.874 58.340,332.518 58.371,332.452 58.437 M230.156 58.803 C 229.259 59.192,229.000 59.607,229.000 60.649 L 229.000 61.667 228.490 61.667 C 227.744 61.667,227.792 63.050,228.542 63.136 L 229.000 63.189 229.006 65.719 C 229.015 69.027,229.323 70.732,229.852 70.405 C 229.921 70.363,230.024 70.404,230.082 70.497 C 230.205 70.697,231.988 70.722,232.293 70.529 C 232.864 70.166,232.340 68.854,231.604 68.800 L 230.917 68.750 230.871 65.968 L 230.825 63.186 231.538 63.135 C 232.247 63.084,232.250 63.081,232.301 62.375 L 232.352 61.667 231.593 61.667 L 230.833 61.667 230.833 60.167 C 230.833 58.630,230.784 58.531,230.156 58.803 M166.335 60.143 C 166.988 60.767,166.964 61.236,166.244 61.956 L 165.654 62.546 165.246 62.163 C 165.022 61.953,164.790 61.624,164.730 61.432 C 164.671 61.240,164.538 61.021,164.436 60.946 C 164.302 60.846,164.308 60.784,164.458 60.723 C 164.573 60.677,164.667 60.537,164.667 60.412 C 164.667 59.686,165.685 59.522,166.335 60.143 M77.111 61.739 C 76.189 61.987,75.371 62.766,75.135 63.621 C 74.932 64.356,75.009 64.433,75.981 64.478 C 76.754 64.513,77.394 64.116,77.076 63.799 C 77.033 63.755,77.156 63.577,77.350 63.402 C 77.814 62.982,79.847 62.942,80.250 63.345 C 80.677 63.772,80.771 64.778,80.394 64.896 C 80.158 64.969,76.645 65.500,76.394 65.500 C 76.368 65.500,76.156 65.705,75.923 65.957 C 75.691 66.208,75.500 66.341,75.500 66.253 C 75.500 66.165,75.380 66.264,75.233 66.473 C 74.626 67.340,74.856 70.000,75.538 70.000 C 75.660 70.000,75.879 70.140,76.025 70.310 C 76.331 70.667,78.768 70.813,79.506 70.518 C 79.732 70.428,79.842 70.350,79.750 70.344 C 79.658 70.338,79.846 70.202,80.167 70.041 C 80.733 69.758,80.755 69.760,80.921 70.083 C 81.053 70.342,81.291 70.428,81.984 70.468 L 82.876 70.519 82.760 70.051 C 82.697 69.794,82.593 68.081,82.531 66.246 C 82.417 62.915,82.416 62.907,81.964 62.420 C 81.155 61.549,78.964 61.241,77.111 61.739 M85.530 61.781 C 85.133 61.921,84.763 62.159,84.707 62.310 C 84.650 62.460,84.488 62.670,84.347 62.776 C 84.163 62.914,84.089 63.273,84.087 64.050 C 84.082 65.546,84.713 66.175,86.656 66.612 C 87.381 66.774,87.943 66.957,87.906 67.017 C 87.869 67.077,88.074 67.173,88.362 67.231 C 89.888 67.536,89.681 68.719,88.056 68.976 C 86.787 69.177,86.265 68.964,85.848 68.077 C 85.498 67.333,85.481 67.322,84.871 67.437 C 84.529 67.501,84.148 67.554,84.023 67.555 C 83.347 67.557,84.107 69.350,85.108 70.114 C 85.938 70.747,88.859 70.889,89.505 70.329 C 89.714 70.148,89.967 69.998,90.067 69.995 C 90.524 69.982,90.914 69.073,90.975 67.879 C 91.061 66.183,90.589 65.716,88.247 65.174 C 86.520 64.776,85.749 64.310,85.860 63.734 C 86.069 62.651,88.803 62.858,89.084 63.978 C 89.176 64.347,89.241 64.368,89.954 64.271 C 90.924 64.138,90.926 64.134,90.690 63.347 C 90.216 61.763,87.721 61.006,85.530 61.781 M94.750 61.601 C 93.424 61.924,92.889 62.391,92.506 63.561 C 92.253 64.332,92.404 64.494,93.384 64.497 C 93.935 64.500,94.039 64.437,94.187 64.013 C 94.575 62.901,96.836 62.631,97.614 63.604 C 98.460 64.660,98.101 64.929,95.417 65.254 C 94.958 65.309,94.369 65.395,94.106 65.445 C 93.567 65.546,92.333 66.584,92.333 66.936 C 92.333 67.063,92.258 67.167,92.167 67.167 C 92.075 67.167,92.000 67.579,92.000 68.083 C 92.000 68.587,92.067 69.000,92.149 69.000 C 92.230 69.000,92.342 69.169,92.397 69.375 C 92.667 70.388,96.382 71.235,96.965 70.417 C 97.360 69.861,98.107 69.716,98.250 70.167 C 98.405 70.656,100.167 70.669,100.167 70.181 C 100.167 70.005,100.076 69.831,99.965 69.794 C 99.821 69.746,99.738 68.763,99.671 66.322 C 99.569 62.561,99.520 62.375,98.502 61.886 C 97.925 61.609,95.480 61.423,94.750 61.601 M126.805 61.608 C 126.561 61.651,126.172 61.861,125.941 62.076 C 125.710 62.290,125.489 62.433,125.449 62.394 C 125.339 62.284,124.995 63.204,124.973 63.668 C 124.888 65.430,125.457 66.104,127.433 66.587 C 128.157 66.763,128.787 66.956,128.833 67.014 C 128.879 67.072,129.198 67.220,129.542 67.343 C 131.114 67.906,129.871 69.158,127.873 69.025 C 127.421 68.995,126.565 68.215,126.475 67.750 C 126.410 67.418,125.122 67.333,124.802 67.640 C 124.493 67.937,125.034 69.319,125.636 69.772 C 125.974 70.025,126.303 70.311,126.369 70.408 C 126.547 70.671,130.500 70.608,130.500 70.341 C 130.500 70.285,130.726 70.105,131.002 69.942 C 131.851 69.440,132.239 68.001,131.826 66.886 C 131.505 66.019,130.777 65.561,129.079 65.157 C 128.211 64.951,127.500 64.723,127.500 64.652 C 127.500 64.581,127.350 64.475,127.167 64.417 C 126.983 64.358,126.833 64.199,126.833 64.062 C 126.833 63.915,126.754 63.863,126.638 63.934 C 126.531 64.001,126.587 63.860,126.763 63.622 C 127.516 62.605,129.833 62.917,129.833 64.035 C 129.833 64.360,131.312 64.411,131.626 64.096 C 131.997 63.725,131.177 62.276,130.348 61.839 C 129.935 61.620,127.596 61.468,126.805 61.608 M135.762 61.829 C 134.979 62.233,135.000 62.230,135.000 61.917 C 135.000 61.731,134.806 61.667,134.250 61.667 L 133.500 61.667 133.500 67.750 L 133.500 73.833 134.328 73.833 L 135.156 73.833 135.203 71.902 L 135.250 69.971 135.667 70.336 C 136.133 70.745,138.662 70.763,138.797 70.359 C 138.832 70.253,138.938 70.167,139.031 70.167 C 140.822 70.167,141.788 63.807,140.153 62.786 C 139.977 62.676,139.833 62.508,139.833 62.413 C 139.833 61.656,136.912 61.237,135.762 61.829 M144.392 61.763 C 143.451 62.108,142.569 62.997,142.429 63.742 C 142.367 64.073,142.256 64.305,142.181 64.259 C 141.976 64.132,141.830 65.751,141.945 66.857 C 142.002 67.394,142.112 67.833,142.190 67.833 C 142.269 67.833,142.333 67.953,142.333 68.099 C 142.333 71.224,148.359 71.566,149.800 68.523 C 150.305 67.458,150.478 64.354,150.041 64.208 C 149.927 64.170,149.833 64.010,149.833 63.852 C 149.833 63.241,148.562 61.912,147.796 61.721 C 146.888 61.495,145.061 61.517,144.392 61.763 M153.679 61.931 C 153.186 62.347,153.167 62.350,153.167 62.015 C 153.167 61.708,153.067 61.667,152.333 61.667 L 151.500 61.667 151.500 66.083 L 151.500 70.500 152.236 70.500 C 153.565 70.500,153.508 70.637,153.491 67.472 C 153.472 63.788,153.618 63.417,155.086 63.417 C 156.069 63.417,156.420 63.076,156.487 62.058 C 156.529 61.427,154.393 61.331,153.679 61.931 M187.166 61.667 C 186.410 61.876,185.667 62.337,185.667 62.597 C 185.667 62.738,185.603 62.813,185.524 62.765 C 185.342 62.652,185.000 63.397,185.000 63.907 C 185.000 64.724,186.742 64.794,186.920 63.985 C 187.176 62.819,190.152 62.636,190.436 63.769 C 190.698 64.812,190.583 64.893,188.375 65.208 C 187.098 65.390,186.216 65.600,186.019 65.769 C 184.996 66.644,184.864 66.822,184.752 67.489 C 184.588 68.460,184.928 69.614,185.484 69.969 C 185.722 70.121,186.023 70.347,186.152 70.471 C 186.442 70.749,189.445 70.687,189.631 70.400 C 189.981 69.861,190.833 69.695,190.833 70.167 C 190.833 70.463,190.944 70.500,191.833 70.500 C 192.898 70.500,192.919 70.480,192.676 69.733 C 192.589 69.467,192.491 67.900,192.457 66.250 C 192.383 62.647,192.251 62.267,190.906 61.795 C 190.070 61.502,188.018 61.432,187.166 61.667 M195.669 61.661 C 194.969 61.837,194.008 62.834,193.979 63.414 C 193.911 64.783,193.978 65.068,194.501 65.641 C 194.887 66.064,195.317 66.280,196.376 66.583 C 198.872 67.299,199.077 67.403,199.136 67.987 C 199.279 69.402,196.370 69.446,195.706 68.038 C 195.313 67.203,193.588 67.225,193.735 68.064 C 193.866 68.809,194.274 69.502,194.874 70.000 L 195.577 70.583 197.461 70.583 C 198.649 70.583,199.389 70.516,199.464 70.400 C 199.530 70.299,199.752 70.128,199.958 70.019 C 200.785 69.584,201.217 68.006,200.821 66.868 C 200.504 65.959,199.091 65.224,197.045 64.903 C 196.657 64.842,196.380 64.726,196.430 64.646 C 196.479 64.566,196.446 64.500,196.355 64.500 C 196.032 64.500,195.697 64.003,195.788 63.657 C 196.064 62.599,198.560 62.876,198.918 64.004 C 199.119 64.639,200.667 64.403,200.667 63.738 C 200.667 62.072,198.166 61.033,195.669 61.661 M205.000 61.549 C 204.954 61.597,204.692 61.672,204.417 61.717 C 203.271 61.905,202.333 62.887,202.333 63.898 C 202.333 64.948,204.174 64.682,204.242 63.623 C 204.259 63.352,205.241 63.000,205.977 63.001 C 207.099 63.003,207.587 63.392,207.648 64.333 C 207.675 64.746,207.649 65.036,207.590 64.978 C 207.531 64.920,207.206 64.935,206.867 65.012 C 206.527 65.089,205.762 65.200,205.167 65.257 C 203.073 65.460,201.917 66.480,201.917 68.127 C 201.917 68.722,201.992 69.081,202.125 69.125 C 202.240 69.163,202.333 69.288,202.333 69.403 C 202.333 70.432,206.200 71.158,207.067 70.291 C 207.733 69.624,208.167 69.586,208.167 70.194 C 208.167 70.453,208.305 70.500,209.073 70.500 C 209.980 70.500,210.413 70.255,209.980 69.988 C 209.802 69.878,209.727 69.075,209.650 66.465 C 209.539 62.722,209.466 62.430,208.515 61.936 C 207.947 61.640,205.204 61.339,205.000 61.549 M239.297 61.785 C 238.956 61.944,238.646 62.189,238.608 62.329 C 238.570 62.469,238.530 62.377,238.519 62.125 C 238.501 61.696,238.452 61.667,237.750 61.667 L 237.000 61.667 237.000 67.750 L 237.000 73.833 237.833 73.833 L 238.667 73.833 238.667 71.917 C 238.667 69.932,238.732 69.761,239.264 70.349 C 239.690 70.819,242.088 70.770,242.577 70.280 C 242.744 70.113,243.060 69.859,243.280 69.715 C 243.712 69.432,244.333 68.230,244.333 67.676 C 244.333 67.487,244.408 67.333,244.500 67.333 C 244.596 67.333,244.667 66.806,244.667 66.083 C 244.667 65.396,244.608 64.833,244.535 64.833 C 244.463 64.833,244.392 64.673,244.377 64.478 C 244.213 62.290,241.405 60.803,239.297 61.785 M270.786 61.682 C 269.904 61.890,269.167 62.298,269.167 62.579 C 269.167 62.710,269.054 62.880,268.916 62.957 C 268.772 63.038,268.647 63.378,268.624 63.757 L 268.583 64.417 269.424 64.466 C 270.245 64.514,270.271 64.501,270.491 63.940 C 271.042 62.536,273.806 62.661,274.076 64.102 C 274.214 64.836,274.092 64.939,272.925 65.079 C 270.975 65.313,269.813 65.544,269.621 65.735 C 269.509 65.847,269.218 66.069,268.975 66.227 C 268.210 66.728,267.984 68.999,268.638 69.625 C 269.642 70.588,269.847 70.667,271.358 70.667 C 272.287 70.667,272.892 70.592,273.037 70.458 C 273.688 69.863,274.311 69.674,274.365 70.055 C 274.410 70.372,274.537 70.423,275.397 70.467 C 276.355 70.517,276.374 70.509,276.249 70.134 C 276.179 69.923,276.075 68.250,276.019 66.417 C 275.916 63.062,275.845 62.680,275.224 62.152 C 274.523 61.556,272.313 61.322,270.786 61.682 M279.958 61.853 C 279.573 62.140,279.500 62.152,279.500 61.931 C 279.500 61.722,279.308 61.667,278.581 61.667 L 277.661 61.667 277.706 66.042 L 277.750 70.417 278.625 70.467 L 279.500 70.517 279.501 68.300 C 279.503 64.197,279.885 63.260,281.517 63.362 L 282.389 63.417 282.593 62.628 L 282.797 61.839 282.190 61.670 C 281.257 61.411,280.463 61.476,279.958 61.853 M301.905 61.657 C 301.347 61.790,300.333 62.341,300.333 62.512 C 300.333 62.570,300.158 62.807,299.944 63.038 C 299.124 63.923,298.901 67.486,299.596 68.605 C 300.025 69.295,300.865 70.167,301.102 70.167 C 301.214 70.167,301.337 70.260,301.375 70.375 C 301.425 70.525,301.971 70.583,303.334 70.583 C 304.697 70.583,305.242 70.525,305.292 70.375 C 305.330 70.260,305.459 70.167,305.578 70.167 C 305.887 70.167,306.972 68.921,307.097 68.421 C 307.410 67.175,305.977 67.027,304.985 68.203 C 303.984 69.391,302.105 69.323,301.516 68.078 C 301.387 67.806,301.218 67.558,301.141 67.528 C 301.063 67.497,301.000 67.291,301.000 67.069 L 301.000 66.667 303.980 66.667 C 307.547 66.667,307.445 66.720,307.177 64.996 C 306.762 62.320,304.670 60.995,301.905 61.657 M310.229 61.849 C 309.851 62.020,309.406 62.368,309.240 62.622 C 309.075 62.876,308.847 63.176,308.734 63.289 C 307.985 64.041,308.090 68.833,308.854 68.833 C 308.930 68.833,309.105 69.053,309.244 69.322 C 309.395 69.614,309.732 69.896,310.082 70.022 C 310.403 70.138,310.667 70.294,310.667 70.367 C 310.667 70.440,311.229 70.500,311.917 70.500 C 312.604 70.500,313.167 70.444,313.168 70.375 C 313.168 70.306,313.381 70.129,313.640 69.982 C 314.168 69.682,314.145 69.592,313.915 71.050 C 313.685 72.507,310.333 72.914,310.333 71.485 C 310.333 70.912,308.498 70.651,308.409 71.211 C 308.269 72.087,309.157 73.481,309.861 73.495 C 310.014 73.498,310.170 73.594,310.209 73.708 C 310.328 74.064,313.532 73.992,313.899 73.625 C 314.059 73.465,314.285 73.333,314.400 73.333 C 314.652 73.333,315.333 72.636,315.333 72.378 C 315.333 72.277,315.415 72.167,315.516 72.134 C 315.861 72.019,315.975 70.574,315.993 66.125 L 316.010 61.667 315.088 61.667 C 314.374 61.667,314.167 61.724,314.167 61.921 C 314.167 62.139,314.105 62.134,313.725 61.885 C 313.079 61.462,311.126 61.441,310.229 61.849 M320.167 61.607 C 319.298 61.888,318.540 62.388,318.259 62.866 C 318.081 63.169,317.842 63.511,317.728 63.627 C 317.175 64.187,317.208 67.852,317.773 68.627 C 317.956 68.878,318.155 69.216,318.215 69.378 C 318.276 69.539,318.503 69.739,318.720 69.822 C 318.937 69.904,319.247 70.104,319.407 70.265 C 319.869 70.726,323.719 70.822,323.436 70.365 C 323.396 70.300,323.659 70.103,324.020 69.928 C 324.690 69.602,325.408 68.427,325.295 67.841 C 325.208 67.386,323.805 67.289,323.500 67.718 C 322.660 68.900,322.508 69.000,321.557 69.000 C 320.495 69.000,319.605 68.458,319.425 67.701 C 319.366 67.453,319.279 67.119,319.231 66.958 C 319.151 66.688,319.370 66.667,322.239 66.667 L 325.333 66.667 325.333 65.604 C 325.333 62.702,322.813 60.752,320.167 61.607 M329.042 61.832 C 328.600 62.101,328.500 62.116,328.500 61.914 C 328.500 61.728,328.293 61.667,327.667 61.667 L 326.833 61.667 326.833 66.083 L 326.833 70.500 327.750 70.500 L 328.667 70.500 328.667 67.514 C 328.667 65.872,328.723 64.503,328.792 64.472 C 328.860 64.442,329.034 64.192,329.178 63.917 C 329.424 63.445,329.490 63.418,330.372 63.448 L 331.305 63.479 331.569 62.820 C 331.931 61.915,331.918 61.873,331.208 61.675 C 330.279 61.417,329.646 61.463,329.042 61.832 M225.167 66.083 L 225.167 70.500 226.083 70.500 L 227.000 70.500 227.000 66.083 L 227.000 61.667 226.083 61.667 L 225.167 61.667 225.167 66.083 M233.206 66.042 L 233.250 70.417 234.208 70.467 L 235.167 70.517 235.167 66.092 L 235.167 61.667 234.164 61.667 L 233.161 61.667 233.206 66.042 M259.504 64.708 C 259.506 66.381,259.572 68.012,259.650 68.333 C 259.728 68.654,259.820 69.026,259.854 69.159 C 260.082 70.041,261.311 70.667,262.819 70.667 C 263.949 70.667,263.987 70.652,264.958 69.830 C 265.117 69.696,265.167 69.755,265.167 70.077 C 265.167 70.474,265.219 70.500,266.000 70.500 L 266.833 70.500 266.833 66.083 L 266.833 61.667 265.917 61.667 L 265.000 61.667 265.000 64.572 C 265.000 68.319,264.675 69.000,262.884 69.000 C 261.589 69.000,261.500 68.740,261.500 64.948 L 261.500 61.667 260.500 61.667 L 259.500 61.667 259.504 64.708 M332.333 66.083 L 332.333 70.500 333.167 70.500 L 334.000 70.500 334.000 66.083 L 334.000 61.667 333.167 61.667 L 332.333 61.667 332.333 66.083 M138.497 63.644 C 139.231 64.400,139.462 65.530,139.164 66.917 C 139.066 67.375,138.976 67.844,138.965 67.958 C 138.954 68.073,138.907 68.130,138.862 68.084 C 138.817 68.039,138.675 68.152,138.546 68.335 C 137.127 70.362,134.735 68.318,135.096 65.387 C 135.365 63.198,137.168 62.274,138.497 63.644 M147.395 63.542 C 148.354 64.465,148.640 66.021,148.150 67.655 C 147.622 69.418,144.757 69.481,144.091 67.744 C 142.941 64.744,145.398 61.619,147.395 63.542 M242.033 63.655 C 242.517 64.194,242.639 64.481,242.722 65.280 C 242.808 66.112,242.760 66.581,242.444 67.970 C 242.278 68.699,240.394 69.328,239.741 68.872 C 238.775 68.198,238.063 64.990,238.777 64.530 C 238.874 64.468,239.080 64.169,239.235 63.866 C 239.796 62.773,241.149 62.670,242.033 63.655 M304.169 63.227 C 304.521 63.375,304.816 63.680,305.016 64.102 C 305.528 65.185,305.560 65.167,303.167 65.167 C 300.815 65.167,300.611 65.070,301.333 64.295 C 301.517 64.098,301.667 63.839,301.667 63.719 C 301.667 63.167,303.274 62.851,304.169 63.227 M312.926 63.265 C 313.998 63.774,314.451 65.555,313.983 67.416 C 313.419 69.655,310.167 69.204,310.167 66.886 C 310.167 66.658,310.094 66.525,310.000 66.583 C 309.899 66.646,309.833 66.418,309.833 66.010 C 309.833 65.638,309.892 65.333,309.964 65.333 C 310.035 65.333,310.109 65.152,310.127 64.931 C 310.250 63.450,311.610 62.641,312.926 63.265 M322.711 63.525 C 322.880 63.740,323.126 64.049,323.259 64.210 C 323.930 65.027,323.660 65.167,321.417 65.167 C 319.413 65.167,319.333 65.153,319.333 64.817 C 319.333 63.347,321.823 62.394,322.711 63.525 M0.000 65.583 L 0.000 66.667 29.250 66.667 L 58.500 66.667 58.500 65.583 L 58.500 64.500 29.250 64.500 L 0.000 64.500 0.000 65.583 M341.500 65.583 L 341.500 66.667 370.750 66.667 L 400.000 66.667 400.000 65.583 L 400.000 64.500 370.750 64.500 L 341.500 64.500 341.500 65.583 M165.310 65.458 C 165.559 65.710,165.945 66.179,166.168 66.500 C 166.391 66.821,166.708 67.229,166.870 67.406 C 167.331 67.909,167.232 68.128,166.339 68.581 C 165.111 69.203,163.852 69.013,163.583 68.166 C 163.524 67.980,163.415 67.866,163.340 67.913 C 162.674 68.324,163.047 66.494,163.799 65.656 C 164.497 64.878,164.711 64.850,165.310 65.458 M80.590 67.604 C 80.479 68.201,79.540 69.000,78.951 69.000 C 78.784 69.000,78.693 69.075,78.750 69.167 C 78.939 69.472,77.813 69.342,77.337 69.003 C 76.037 68.077,76.836 67.001,79.083 66.651 C 80.772 66.387,80.814 66.414,80.590 67.604 M98.000 66.907 C 98.000 67.222,97.921 67.529,97.825 67.589 C 97.728 67.648,97.677 67.781,97.711 67.884 C 97.795 68.135,97.005 68.784,96.447 68.924 C 96.201 68.986,96.000 69.103,96.000 69.185 C 96.000 69.434,95.224 69.350,94.676 69.042 C 93.894 68.602,93.753 67.635,94.417 67.268 C 94.600 67.166,94.787 67.040,94.833 66.987 C 94.901 66.909,95.675 66.748,97.875 66.356 C 97.944 66.343,98.000 66.591,98.000 66.907 M190.342 67.870 C 190.183 68.402,190.018 68.558,189.239 68.915 C 188.316 69.337,187.391 69.478,187.583 69.167 C 187.640 69.075,187.588 68.998,187.468 68.994 C 186.590 68.972,186.267 67.907,186.991 67.421 C 187.261 67.241,187.442 67.053,187.393 67.005 C 187.344 66.956,188.005 66.804,188.860 66.667 L 190.417 66.417 190.473 66.830 C 190.504 67.058,190.445 67.526,190.342 67.870 M207.415 68.064 C 207.170 68.579,206.315 69.153,205.958 69.040 C 205.890 69.018,205.833 69.075,205.833 69.167 C 205.833 69.258,205.608 69.333,205.333 69.333 C 205.058 69.333,204.833 69.258,204.833 69.167 C 204.833 69.075,204.745 69.000,204.638 69.000 C 204.306 69.000,203.833 68.467,203.839 68.099 C 203.850 67.327,204.561 66.894,206.197 66.662 C 206.857 66.569,207.439 66.449,207.490 66.397 C 207.721 66.161,207.658 67.551,207.415 68.064 M274.070 67.125 C 273.912 68.304,273.285 69.000,272.381 69.000 C 272.252 69.000,272.184 69.059,272.229 69.132 C 272.362 69.348,271.617 69.347,271.167 69.131 C 269.360 68.265,270.054 67.036,272.585 66.621 C 273.409 66.486,274.104 66.366,274.130 66.354 C 274.155 66.343,274.128 66.690,274.070 67.125 " stroke="none" fill="#fcfcfc" fill-rule="evenodd"></path><path id="path1" d="M239.000 21.333 L 239.000 42.667 249.667 42.667 L 260.333 42.667 260.333 41.333 L 260.333 40.000 251.000 40.000 L 241.667 40.000 241.667 20.000 L 241.667 0.000 240.333 0.000 L 239.000 0.000 239.000 21.333 M265.333 21.335 L 265.333 42.669 275.458 42.626 L 285.583 42.583 285.583 41.333 L 285.583 40.083 276.792 40.040 L 268.000 39.997 268.000 31.334 L 268.000 22.670 275.125 22.627 L 282.250 22.583 282.250 21.250 L 282.250 19.917 275.125 19.873 L 268.000 19.830 268.000 11.166 L 268.000 2.503 276.792 2.460 L 285.583 2.417 285.632 1.208 L 285.681 0.000 275.507 0.000 L 265.333 0.000 265.333 21.335 M293.167 21.333 L 293.167 42.667 294.583 42.667 L 296.000 42.667 296.000 35.572 C 296.000 27.968,295.979 28.167,296.899 27.250 C 297.486 26.665,297.906 26.186,299.643 24.123 C 300.317 23.322,300.923 22.667,300.989 22.667 C 301.170 22.667,301.833 23.413,301.833 23.617 C 301.833 23.715,302.021 23.918,302.250 24.068 C 302.479 24.218,302.667 24.415,302.667 24.504 C 302.667 24.638,303.894 26.223,305.310 27.917 C 305.464 28.100,305.813 28.550,306.086 28.917 C 306.359 29.283,306.714 29.681,306.875 29.801 C 307.035 29.921,307.167 30.122,307.167 30.247 C 307.167 30.373,307.354 30.623,307.583 30.804 C 307.813 30.984,308.000 31.196,308.001 31.274 C 308.001 31.352,308.224 31.654,308.497 31.945 C 308.769 32.236,309.165 32.723,309.377 33.028 C 309.589 33.334,309.927 33.771,310.127 34.000 C 310.327 34.229,310.757 34.754,311.083 35.167 C 311.409 35.579,311.863 36.142,312.091 36.417 C 312.319 36.692,313.102 37.667,313.830 38.583 C 314.558 39.500,315.325 40.455,315.535 40.705 C 315.745 40.955,316.179 41.494,316.500 41.903 L 317.083 42.646 318.698 42.657 C 319.587 42.662,320.354 42.602,320.402 42.523 C 320.479 42.399,319.513 41.026,318.820 40.277 C 318.260 39.671,316.286 37.188,316.070 36.816 C 315.970 36.646,315.708 36.321,315.486 36.093 C 315.065 35.660,314.883 35.438,313.506 33.667 C 313.042 33.071,312.447 32.321,312.182 32.000 C 311.917 31.679,311.428 31.079,311.096 30.667 C 310.763 30.254,310.304 29.692,310.076 29.417 C 309.848 29.142,309.065 28.167,308.336 27.250 C 307.608 26.333,306.859 25.396,306.671 25.167 C 305.582 23.836,304.317 22.253,303.808 21.583 C 303.599 21.308,303.388 21.046,303.339 21.000 C 302.814 20.509,302.817 20.361,303.366 19.768 C 303.669 19.442,304.201 18.854,304.548 18.462 C 304.896 18.071,305.383 17.521,305.632 17.241 C 305.880 16.961,306.421 16.331,306.833 15.841 C 307.246 15.351,307.659 14.868,307.751 14.767 C 307.843 14.666,308.368 14.062,308.917 13.425 C 309.467 12.788,310.029 12.143,310.167 11.991 C 310.304 11.840,310.717 11.360,311.083 10.925 C 311.450 10.489,311.975 9.879,312.250 9.570 C 312.525 9.261,313.030 8.688,313.372 8.296 C 313.715 7.904,314.202 7.351,314.456 7.067 C 314.709 6.783,315.254 6.149,315.667 5.658 C 316.079 5.167,316.976 4.124,317.659 3.341 C 318.343 2.558,319.018 1.773,319.159 1.597 C 319.301 1.421,319.660 1.025,319.958 0.716 C 320.681 -0.032,320.734 0.000,318.768 0.000 C 316.840 0.000,317.034 -0.098,315.535 1.621 C 315.234 1.967,314.746 2.516,314.452 2.841 C 314.157 3.166,313.579 3.838,313.167 4.334 C 312.530 5.100,311.551 6.228,310.917 6.928 C 310.825 7.029,310.412 7.509,310.000 7.995 C 309.587 8.480,309.025 9.125,308.750 9.426 C 308.475 9.728,307.987 10.283,307.667 10.661 C 307.346 11.038,306.896 11.557,306.667 11.813 C 306.438 12.070,306.063 12.500,305.833 12.770 C 305.108 13.624,303.427 15.563,303.167 15.845 C 303.029 15.995,302.617 16.473,302.250 16.909 C 301.883 17.345,301.358 17.954,301.083 18.263 C 300.808 18.572,300.303 19.146,299.961 19.538 C 299.618 19.929,299.131 20.483,298.878 20.767 C 298.172 21.558,296.745 23.200,296.358 23.667 L 296.011 24.083 296.006 12.042 L 296.000 0.000 294.583 0.000 L 293.167 0.000 293.167 21.333 M80.247 21.583 C 80.247 33.133,80.267 37.834,80.292 32.029 C 80.316 26.224,80.316 16.774,80.292 11.029 C 80.267 5.284,80.247 10.033,80.247 21.583 M213.747 24.917 C 213.747 34.725,213.767 38.713,213.792 33.779 C 213.816 28.845,213.816 20.820,213.792 15.946 C 213.767 11.071,213.747 15.108,213.747 24.917 " stroke="none" fill="#d49c44" fill-rule="evenodd"></path><path id="path2" d="" stroke="none" fill="#e8100cc" fill-rule="evenodd"></path><path id="path3" d="" stroke="none" fill="#e8100cc" fill-rule="evenodd"></path><path id="path4" d="" stroke="none" fill="#e8100cc" fill-rule="evenodd"></path></g></svg>