<svg id="svg" version="1.1" xmlns="http://www.w3.org/2000/svg" xmlns:xlink="http://www.w3.org/1999/xlink" width="400" height="79.16975537435138" viewBox="0, 0, 400,79.16975537435138"><g id="svgg"><path id="path0" d="M226.167 31.083 L 226.167 61.500 241.250 61.500 L 256.333 61.500 256.333 59.750 L 256.333 58.000 243.081 58.000 L 229.830 58.000 229.873 29.419 C 229.909 5.741,229.879 0.822,229.695 0.752 C 229.573 0.705,228.729 0.667,227.820 0.667 L 226.167 0.667 226.167 31.083 M263.833 31.082 L 263.833 61.500 278.167 61.500 L 292.500 61.500 292.500 59.750 L 292.500 58.000 280.083 58.000 L 267.667 58.000 267.667 45.500 L 267.667 33.000 277.755 33.000 L 287.844 33.000 287.797 31.125 L 287.750 29.250 277.708 29.207 L 267.667 29.164 267.667 16.915 L 267.667 4.667 279.896 4.667 C 294.048 4.667,292.532 4.931,292.464 2.476 L 292.417 0.750 278.125 0.707 L 263.833 0.665 263.833 31.082 M303.500 31.078 L 303.500 61.500 305.417 61.500 L 307.333 61.500 307.333 51.346 L 307.333 41.193 308.090 40.436 C 308.506 40.020,308.858 39.621,308.872 39.548 C 308.906 39.377,309.104 39.141,309.936 38.281 C 310.313 37.891,310.673 37.409,310.736 37.211 C 310.799 37.013,310.980 36.809,311.138 36.759 C 311.296 36.709,311.536 36.507,311.671 36.311 C 311.806 36.115,312.085 35.780,312.292 35.568 C 312.498 35.356,312.667 35.140,312.667 35.090 C 312.667 34.958,314.595 33.000,314.725 33.000 C 314.784 33.000,314.833 33.140,314.833 33.312 C 314.833 33.484,315.096 33.848,315.417 34.123 C 315.737 34.397,316.000 34.734,316.000 34.873 C 316.000 35.011,316.262 35.348,316.583 35.623 C 316.904 35.897,317.167 36.187,317.167 36.269 C 317.167 36.350,317.467 36.745,317.833 37.146 C 318.200 37.547,318.500 37.930,318.500 37.996 C 318.500 38.063,318.725 38.353,319.000 38.640 C 319.275 38.928,319.500 39.205,319.500 39.256 C 319.500 39.307,319.669 39.529,319.875 39.750 C 320.435 40.348,320.667 40.641,320.667 40.751 C 320.667 40.804,320.835 41.023,321.042 41.237 C 321.248 41.450,321.567 41.833,321.750 42.087 C 321.933 42.341,322.326 42.814,322.623 43.138 C 322.919 43.462,323.132 43.757,323.095 43.794 C 323.058 43.831,323.321 44.164,323.680 44.534 C 324.040 44.904,324.333 45.269,324.333 45.346 C 324.333 45.538,325.145 46.333,325.341 46.333 C 325.428 46.333,325.500 46.480,325.500 46.659 C 325.500 46.993,326.221 47.833,326.508 47.833 C 326.595 47.833,326.667 47.949,326.667 48.091 C 326.667 48.233,326.854 48.536,327.083 48.765 C 327.313 48.994,327.500 49.253,327.500 49.341 C 327.500 49.428,327.575 49.500,327.667 49.500 C 327.758 49.500,327.833 49.585,327.833 49.689 C 327.833 49.792,328.096 50.125,328.417 50.427 C 328.737 50.730,329.000 51.059,329.000 51.158 C 329.000 51.258,329.262 51.594,329.583 51.906 C 329.904 52.217,330.167 52.519,330.167 52.577 C 330.167 52.635,330.335 52.862,330.542 53.083 C 331.094 53.673,331.333 53.974,331.333 54.078 C 331.333 54.128,331.558 54.405,331.833 54.693 C 332.108 54.981,332.333 55.277,332.333 55.352 C 332.333 55.428,332.596 55.751,332.917 56.072 C 333.237 56.393,333.500 56.720,333.500 56.798 C 333.500 56.876,333.837 57.293,334.250 57.723 C 334.662 58.154,335.000 58.576,335.000 58.662 C 335.000 58.867,335.802 59.667,336.008 59.667 C 336.095 59.667,336.167 59.799,336.167 59.960 C 336.167 60.228,336.591 60.757,337.235 61.292 C 337.409 61.436,338.182 61.500,339.743 61.500 C 342.489 61.500,342.589 61.392,341.208 59.916 C 341.002 59.696,340.833 59.463,340.833 59.399 C 340.833 59.336,340.590 59.042,340.292 58.746 C 339.994 58.450,339.728 58.114,339.701 58.000 C 339.675 57.886,339.394 57.540,339.076 57.232 C 338.759 56.924,338.500 56.591,338.500 56.492 C 338.500 56.392,338.237 56.063,337.917 55.761 C 337.596 55.458,337.333 55.138,337.333 55.049 C 337.333 54.960,337.071 54.648,336.750 54.356 C 336.429 54.064,336.167 53.749,336.167 53.656 C 336.167 53.563,335.867 53.193,335.500 52.833 C 335.133 52.474,334.833 52.108,334.833 52.020 C 334.833 51.932,334.533 51.548,334.167 51.167 C 333.800 50.785,333.498 50.385,333.496 50.278 C 333.494 50.171,333.194 49.825,332.830 49.510 C 332.465 49.195,332.167 48.846,332.167 48.736 C 332.167 48.464,331.237 47.485,331.105 47.617 C 331.047 47.675,331.000 47.578,331.000 47.401 C 331.000 47.064,330.268 46.167,329.993 46.167 C 329.905 46.167,329.833 46.054,329.833 45.917 C 329.833 45.779,329.758 45.667,329.667 45.667 C 329.575 45.667,329.500 45.565,329.500 45.440 C 329.500 45.315,329.313 45.073,329.083 44.900 C 328.854 44.728,328.667 44.487,328.667 44.364 C 328.667 44.241,328.385 43.850,328.042 43.494 C 327.698 43.138,327.267 42.651,327.083 42.410 C 326.900 42.170,326.656 41.872,326.542 41.749 C 326.427 41.625,326.333 41.478,326.333 41.421 C 326.333 41.364,326.165 41.138,325.958 40.917 C 325.401 40.321,325.167 40.025,325.167 39.918 C 325.167 39.865,324.923 39.572,324.625 39.267 C 324.327 38.961,323.933 38.499,323.750 38.241 C 323.567 37.982,323.210 37.557,322.958 37.296 C 322.706 37.035,322.500 36.742,322.500 36.644 C 322.500 36.547,322.288 36.268,322.030 36.025 C 321.771 35.782,321.488 35.454,321.400 35.296 C 321.217 34.964,320.164 33.719,319.375 32.901 C 319.077 32.592,318.833 32.262,318.833 32.167 C 318.833 32.072,318.571 31.739,318.250 31.428 C 317.929 31.116,317.667 30.812,317.667 30.752 C 317.667 30.692,317.554 30.530,317.417 30.393 C 317.068 30.044,317.078 30.015,317.917 29.091 C 318.329 28.636,318.709 28.130,318.761 27.966 C 318.813 27.801,318.926 27.667,319.012 27.667 C 319.246 27.667,320.333 26.464,320.333 26.205 C 320.333 26.082,320.408 26.027,320.500 26.083 C 320.592 26.140,320.667 26.101,320.667 25.997 C 320.667 25.892,321.004 25.470,321.417 25.057 C 321.829 24.645,322.167 24.238,322.167 24.154 C 322.167 24.069,322.242 24.000,322.333 24.000 C 322.425 24.000,322.500 23.931,322.500 23.847 C 322.500 23.763,322.950 23.226,323.500 22.653 C 324.050 22.080,324.500 21.551,324.500 21.476 C 324.500 21.401,324.912 20.934,325.417 20.438 C 325.921 19.942,326.333 19.487,326.333 19.428 C 326.333 19.282,326.598 18.974,327.564 17.993 C 328.012 17.539,328.322 17.167,328.253 17.167 C 328.183 17.167,328.417 16.878,328.772 16.525 C 329.126 16.172,329.567 15.671,329.750 15.412 C 329.933 15.153,330.515 14.506,331.042 13.975 C 331.569 13.445,332.000 12.940,332.000 12.854 C 332.000 12.769,332.486 12.195,333.081 11.579 C 333.676 10.964,334.124 10.400,334.079 10.326 C 334.033 10.251,334.146 10.143,334.331 10.084 C 334.516 10.025,334.667 9.915,334.667 9.840 C 334.667 9.764,335.002 9.346,335.412 8.912 C 335.823 8.478,336.203 7.983,336.257 7.811 C 336.311 7.640,336.414 7.500,336.486 7.500 C 336.690 7.500,337.222 6.978,337.759 6.252 C 338.029 5.886,338.512 5.313,338.833 4.978 C 339.529 4.253,340.000 3.691,340.000 3.588 C 340.000 3.547,340.375 3.132,340.833 2.667 C 341.292 2.201,341.667 1.711,341.667 1.577 C 341.667 1.443,341.742 1.333,341.833 1.333 C 341.925 1.333,342.000 1.183,342.000 1.000 C 342.000 0.683,341.889 0.667,339.739 0.667 L 337.478 0.667 336.572 1.602 C 336.074 2.116,335.667 2.594,335.667 2.663 C 335.667 2.732,335.217 3.259,334.667 3.833 C 334.117 4.408,333.667 4.937,333.667 5.009 C 333.667 5.081,333.217 5.590,332.667 6.140 C 332.117 6.690,331.667 7.187,331.667 7.244 C 331.667 7.302,331.498 7.531,331.292 7.753 C 331.085 7.976,330.654 8.461,330.333 8.830 C 329.809 9.434,328.929 10.417,327.875 11.576 C 327.669 11.803,327.500 12.024,327.500 12.067 C 327.500 12.110,327.050 12.611,326.500 13.180 C 325.950 13.749,325.500 14.282,325.500 14.365 C 325.500 14.447,325.087 14.911,324.583 15.395 C 324.079 15.880,323.667 16.396,323.667 16.544 C 323.667 16.691,323.517 16.858,323.333 16.917 C 323.150 16.975,323.000 17.086,323.000 17.165 C 323.000 17.243,322.673 17.634,322.273 18.034 C 321.872 18.435,321.492 18.928,321.428 19.131 C 321.364 19.334,321.252 19.500,321.181 19.500 C 320.958 19.500,320.406 20.060,320.083 20.616 C 319.912 20.909,319.711 21.111,319.636 21.064 C 319.561 21.018,319.500 21.066,319.500 21.172 C 319.500 21.277,319.162 21.691,318.750 22.092 C 318.337 22.493,318.000 22.899,318.000 22.994 C 318.000 23.089,317.923 23.167,317.828 23.167 C 317.734 23.167,317.607 23.298,317.547 23.458 C 317.487 23.619,317.114 24.057,316.719 24.433 C 316.323 24.809,316.000 25.207,316.000 25.318 C 316.000 25.429,315.925 25.473,315.833 25.417 C 315.742 25.360,315.667 25.421,315.667 25.552 C 315.667 25.683,315.310 26.160,314.875 26.611 C 314.440 27.062,313.902 27.698,313.680 28.025 C 313.458 28.352,313.064 28.761,312.804 28.935 C 312.544 29.108,312.289 29.381,312.238 29.542 C 312.186 29.702,312.074 29.833,311.989 29.833 C 311.903 29.833,311.833 29.910,311.833 30.004 C 311.833 30.098,311.383 30.633,310.833 31.194 C 310.283 31.754,309.833 32.266,309.833 32.332 C 309.833 32.398,309.346 32.964,308.750 33.590 C 308.154 34.216,307.667 34.826,307.667 34.947 C 307.667 35.068,307.592 35.167,307.501 35.167 C 307.392 35.167,307.320 29.237,307.292 17.958 L 307.250 0.750 305.375 0.703 L 303.500 0.656 303.500 31.078 M179.833 64.903 C 179.833 65.124,179.777 65.331,179.708 65.361 C 179.530 65.441,178.998 67.012,178.999 67.458 C 179.000 67.665,178.925 67.833,178.833 67.833 C 178.742 67.833,178.667 67.946,178.667 68.083 C 178.667 68.221,178.592 68.333,178.500 68.333 C 178.408 68.333,178.333 68.558,178.333 68.833 C 178.333 69.108,178.259 69.333,178.169 69.333 C 178.078 69.333,177.956 69.633,177.897 70.000 C 177.839 70.367,177.725 70.667,177.645 70.667 C 177.565 70.667,177.500 70.859,177.500 71.093 C 177.500 71.335,177.428 71.475,177.333 71.417 C 177.239 71.358,177.167 71.498,177.167 71.740 C 177.167 71.975,177.092 72.167,177.000 72.167 C 176.908 72.167,176.833 72.308,176.833 72.481 C 176.833 72.654,176.721 73.010,176.584 73.273 C 176.447 73.535,176.335 73.919,176.334 74.125 C 176.334 74.331,176.258 74.500,176.167 74.500 C 176.075 74.500,176.000 74.650,176.000 74.833 C 176.000 75.017,175.925 75.167,175.833 75.167 C 175.742 75.167,175.667 75.354,175.667 75.583 C 175.667 75.813,175.596 76.000,175.510 76.000 C 175.424 76.000,175.303 76.337,175.241 76.750 C 175.179 77.162,175.062 77.500,174.981 77.500 C 174.900 77.500,174.833 77.650,174.833 77.833 C 174.833 78.017,174.774 78.167,174.702 78.167 C 174.630 78.167,174.554 78.395,174.532 78.673 L 174.494 79.180 175.854 79.132 C 176.866 79.096,177.245 79.019,177.332 78.833 C 177.396 78.696,177.533 78.418,177.637 78.217 C 177.741 78.015,177.869 77.603,177.922 77.300 C 177.974 76.998,178.089 76.725,178.175 76.694 C 178.262 76.664,178.333 76.500,178.333 76.329 C 178.333 76.159,178.408 75.973,178.500 75.917 C 178.592 75.860,178.667 75.668,178.667 75.490 C 178.667 75.186,178.801 75.167,180.913 75.167 L 183.160 75.167 183.265 75.583 C 183.322 75.813,183.436 76.000,183.518 76.000 C 183.600 76.000,183.667 76.188,183.667 76.417 C 183.667 76.646,183.742 76.833,183.833 76.833 C 183.925 76.833,184.000 76.977,184.000 77.153 C 184.000 77.328,184.056 77.497,184.125 77.528 C 184.194 77.558,184.362 77.921,184.500 78.333 L 184.750 79.083 186.125 79.132 C 187.414 79.177,187.500 79.159,187.500 78.840 C 187.500 78.653,187.435 78.500,187.355 78.500 C 187.276 78.500,187.169 78.189,187.118 77.809 C 187.067 77.429,186.960 77.073,186.881 77.018 C 186.801 76.962,186.633 76.598,186.508 76.208 C 186.383 75.819,186.217 75.500,186.140 75.500 C 186.063 75.500,186.000 75.331,185.999 75.125 C 185.998 74.919,185.886 74.535,185.749 74.273 C 185.612 74.010,185.500 73.654,185.500 73.481 C 185.500 73.308,185.441 73.167,185.370 73.167 C 185.298 73.167,185.140 72.829,185.018 72.417 C 184.896 72.004,184.740 71.667,184.670 71.667 C 184.601 71.667,184.501 71.350,184.449 70.962 C 184.397 70.574,184.275 70.231,184.177 70.198 C 184.080 70.166,184.000 69.994,184.000 69.817 C 184.000 69.509,183.698 68.841,183.479 68.667 C 183.421 68.621,183.321 68.265,183.256 67.875 C 183.191 67.485,183.069 67.167,182.985 67.167 C 182.902 67.167,182.833 66.979,182.833 66.750 C 182.833 66.521,182.758 66.333,182.667 66.333 C 182.575 66.333,182.500 66.182,182.500 65.998 C 182.500 65.652,182.233 65.093,181.887 64.715 C 181.493 64.284,179.833 64.436,179.833 64.903 M209.500 64.667 C 209.500 64.758,209.270 64.833,208.990 64.833 C 208.476 64.833,206.631 65.604,206.528 65.862 C 206.497 65.938,206.400 66.000,206.312 66.000 C 205.994 66.000,204.832 67.230,204.635 67.775 C 204.524 68.082,204.373 68.333,204.300 68.333 C 204.227 68.333,204.167 68.488,204.167 68.677 C 204.167 68.865,204.092 68.973,204.000 68.917 C 203.908 68.860,203.833 68.953,203.833 69.123 C 203.833 69.294,203.740 69.527,203.625 69.642 C 203.479 69.788,203.417 70.526,203.417 72.120 C 203.417 73.787,203.472 74.407,203.625 74.458 C 203.740 74.497,203.833 74.747,203.833 75.014 C 203.833 75.281,203.908 75.500,204.000 75.500 C 204.092 75.500,204.167 75.612,204.167 75.750 C 204.167 75.887,204.229 76.000,204.305 76.000 C 204.381 76.000,204.549 76.206,204.678 76.458 C 205.050 77.186,206.478 78.504,207.009 78.610 C 207.276 78.664,207.457 78.768,207.411 78.843 C 207.115 79.321,213.753 79.271,214.232 78.792 C 214.393 78.631,214.612 78.499,214.720 78.498 C 215.018 78.494,216.833 76.581,216.833 76.271 C 216.833 76.122,216.908 76.000,217.000 76.000 C 217.092 76.000,217.167 75.887,217.167 75.750 C 217.167 75.612,217.242 75.500,217.333 75.500 C 217.425 75.500,217.500 75.350,217.500 75.167 C 217.500 74.983,217.567 74.833,217.648 74.833 C 217.980 74.833,218.304 70.771,217.988 70.576 C 217.903 70.523,217.833 70.264,217.833 70.000 C 217.833 69.736,217.758 69.473,217.667 69.417 C 217.575 69.360,217.500 69.168,217.500 68.990 C 217.500 68.812,217.425 68.667,217.333 68.667 C 217.242 68.667,217.167 68.525,217.167 68.351 C 217.167 68.178,217.054 67.992,216.917 67.940 C 216.779 67.887,216.667 67.740,216.667 67.613 C 216.667 67.302,215.357 66.000,215.044 66.000 C 214.969 66.000,214.799 65.850,214.667 65.667 C 214.458 65.377,213.479 65.037,213.125 65.133 C 213.056 65.151,213.000 65.092,213.000 65.000 C 213.000 64.908,212.737 64.833,212.417 64.833 C 212.096 64.833,211.833 64.758,211.833 64.667 C 211.833 64.571,211.333 64.500,210.667 64.500 C 210.000 64.500,209.500 64.571,209.500 64.667 M235.667 64.823 C 235.667 65.001,235.592 65.193,235.500 65.250 C 235.408 65.307,235.333 65.574,235.333 65.843 C 235.333 66.113,235.258 66.333,235.167 66.333 C 235.075 66.333,235.000 66.446,235.000 66.583 C 235.000 66.721,234.925 66.833,234.833 66.833 C 234.742 66.833,234.667 67.058,234.667 67.333 C 234.667 67.608,234.593 67.833,234.502 67.833 C 234.411 67.833,234.289 68.133,234.231 68.500 C 234.172 68.867,234.059 69.167,233.979 69.167 C 233.899 69.167,233.833 69.317,233.833 69.500 C 233.833 69.683,233.758 69.833,233.667 69.833 C 233.575 69.833,233.500 70.021,233.500 70.250 C 233.500 70.479,233.425 70.667,233.333 70.667 C 233.242 70.667,233.167 70.808,233.167 70.981 C 233.167 71.154,233.055 71.510,232.918 71.773 C 232.781 72.035,232.668 72.456,232.668 72.708 C 232.667 72.960,232.592 73.167,232.500 73.167 C 232.408 73.167,232.333 73.279,232.333 73.417 C 232.333 73.554,232.258 73.667,232.167 73.667 C 232.075 73.667,232.000 73.808,232.000 73.981 C 232.000 74.154,231.888 74.510,231.751 74.773 C 231.614 75.035,231.502 75.419,231.501 75.625 C 231.500 75.831,231.425 76.000,231.333 76.000 C 231.242 76.000,231.167 76.192,231.167 76.427 C 231.167 76.668,231.095 76.808,231.000 76.750 C 230.906 76.692,230.833 76.827,230.833 77.060 C 230.833 77.287,230.759 77.497,230.668 77.528 C 230.577 77.558,230.486 77.790,230.465 78.042 C 230.444 78.294,230.369 78.500,230.297 78.500 C 230.225 78.500,230.167 78.650,230.167 78.833 C 230.167 79.138,230.278 79.167,231.467 79.167 C 232.809 79.167,233.167 79.019,233.167 78.467 C 233.167 78.302,233.242 78.167,233.333 78.167 C 233.425 78.167,233.500 78.017,233.500 77.833 C 233.500 77.650,233.559 77.500,233.631 77.500 C 233.703 77.500,233.775 77.338,233.790 77.140 C 233.804 76.942,233.892 76.733,233.984 76.677 C 234.076 76.620,234.202 76.257,234.263 75.870 L 234.376 75.167 236.771 75.167 L 239.167 75.167 239.167 75.583 C 239.167 75.813,239.233 76.000,239.314 76.000 C 239.441 76.000,239.611 76.571,239.697 77.292 C 239.711 77.406,239.785 77.500,239.861 77.500 C 239.938 77.500,240.000 77.650,240.000 77.833 C 240.000 78.017,240.075 78.167,240.167 78.167 C 240.258 78.167,240.333 78.346,240.333 78.566 C 240.333 79.079,240.591 79.167,242.097 79.167 C 243.222 79.167,243.333 79.137,243.333 78.833 C 243.333 78.650,243.258 78.500,243.167 78.500 C 243.075 78.500,243.000 78.275,243.000 78.000 C 243.000 77.725,242.925 77.500,242.833 77.500 C 242.742 77.500,242.667 77.387,242.667 77.250 C 242.667 77.112,242.602 77.000,242.522 77.000 C 242.442 77.000,242.335 76.683,242.283 76.295 C 242.231 75.908,242.108 75.564,242.011 75.531 C 241.913 75.499,241.833 75.331,241.833 75.158 C 241.833 74.985,241.698 74.597,241.533 74.297 C 241.368 73.996,241.094 73.281,240.923 72.708 C 240.753 72.135,240.551 71.667,240.474 71.667 C 240.396 71.667,240.333 71.479,240.333 71.250 C 240.333 71.021,240.258 70.833,240.167 70.833 C 240.075 70.833,240.000 70.683,240.000 70.500 C 240.000 70.317,239.935 70.167,239.855 70.167 C 239.776 70.167,239.668 69.850,239.616 69.462 C 239.564 69.074,239.442 68.731,239.344 68.698 C 239.247 68.666,239.167 68.458,239.167 68.236 C 239.167 68.015,239.110 67.833,239.042 67.833 C 238.973 67.833,238.772 67.365,238.595 66.792 C 238.419 66.219,238.213 65.679,238.137 65.592 C 238.062 65.505,238.000 65.330,238.000 65.205 C 238.000 64.736,237.530 64.500,236.595 64.500 C 235.787 64.500,235.667 64.542,235.667 64.823 M264.500 64.667 C 264.500 64.758,264.204 64.833,263.843 64.833 C 263.482 64.833,263.145 64.900,263.095 64.982 C 263.044 65.063,262.809 65.179,262.571 65.238 C 262.333 65.298,262.027 65.438,261.890 65.548 C 261.086 66.203,260.500 66.921,260.500 67.252 C 260.500 67.388,260.425 67.500,260.333 67.500 C 260.233 67.500,260.167 68.167,260.167 69.167 C 260.167 70.167,260.233 70.833,260.333 70.833 C 260.425 70.833,260.500 70.943,260.500 71.078 C 260.500 71.386,261.510 72.500,261.791 72.500 C 261.906 72.500,262.000 72.575,262.000 72.667 C 262.000 72.758,262.173 72.833,262.383 72.833 C 262.594 72.833,262.848 72.915,262.948 73.015 C 263.048 73.114,263.888 73.238,264.815 73.289 C 265.742 73.340,266.500 73.446,266.500 73.524 C 266.500 73.603,266.651 73.667,266.835 73.667 C 268.508 73.667,268.176 76.586,266.488 76.713 C 266.311 76.727,266.167 76.797,266.167 76.869 C 266.167 76.941,265.754 77.000,265.250 77.000 C 264.746 77.000,264.333 76.925,264.333 76.833 C 264.333 76.742,264.183 76.667,264.000 76.667 C 263.817 76.667,263.667 76.592,263.667 76.500 C 263.667 76.408,263.586 76.333,263.488 76.333 C 263.257 76.333,262.833 75.909,262.833 75.679 C 262.833 75.580,262.758 75.500,262.667 75.500 C 262.575 75.500,262.500 75.350,262.500 75.167 C 262.500 74.861,262.389 74.833,261.167 74.833 L 259.833 74.833 259.833 75.417 C 259.833 75.737,259.908 76.000,260.000 76.000 C 260.092 76.000,260.167 76.225,260.167 76.500 C 260.167 76.775,260.242 77.000,260.333 77.000 C 260.425 77.000,260.500 77.072,260.500 77.161 C 260.500 77.450,261.729 78.667,262.021 78.667 C 262.177 78.667,262.337 78.760,262.375 78.875 C 262.639 79.666,268.943 78.988,269.306 78.130 C 269.337 78.057,269.419 78.033,269.489 78.077 C 269.559 78.120,269.721 77.952,269.850 77.703 C 269.978 77.454,270.147 77.203,270.226 77.146 C 270.305 77.088,270.409 76.693,270.457 76.267 C 270.505 75.841,270.609 75.452,270.689 75.403 C 270.889 75.279,270.871 74.667,270.667 74.667 C 270.575 74.667,270.500 74.341,270.500 73.942 C 270.500 73.229,270.387 73.018,269.480 72.042 C 269.288 71.835,268.990 71.667,268.816 71.667 C 268.642 71.667,268.500 71.592,268.500 71.500 C 268.500 71.408,268.354 71.333,268.177 71.333 C 267.999 71.333,267.807 71.258,267.750 71.167 C 267.693 71.075,267.351 71.000,266.990 71.000 C 266.629 71.000,266.333 70.936,266.333 70.857 C 266.333 70.779,265.738 70.674,265.011 70.624 C 263.770 70.539,263.652 70.496,263.094 69.939 C 262.536 69.380,262.296 68.667,262.667 68.667 C 262.758 68.667,262.833 68.528,262.833 68.358 C 262.833 68.150,263.076 67.950,263.583 67.741 C 263.996 67.571,264.333 67.372,264.333 67.299 C 264.333 67.226,264.746 67.167,265.250 67.167 C 265.754 67.167,266.167 67.242,266.167 67.333 C 266.167 67.425,266.249 67.500,266.350 67.500 C 266.885 67.500,267.635 68.050,267.727 68.510 L 267.825 69.000 269.079 69.000 L 270.333 69.000 270.333 68.250 C 270.333 67.837,270.258 67.500,270.167 67.500 C 270.075 67.500,270.000 67.350,270.000 67.167 C 270.000 66.983,269.925 66.833,269.833 66.833 C 269.742 66.833,269.667 66.756,269.667 66.662 C 269.667 66.326,268.621 65.350,268.150 65.246 C 267.886 65.188,267.628 65.072,267.575 64.987 C 267.523 64.903,267.185 64.833,266.823 64.833 C 266.462 64.833,266.167 64.758,266.167 64.667 C 266.167 64.575,265.792 64.500,265.333 64.500 C 264.875 64.500,264.500 64.575,264.500 64.667 M113.667 66.167 L 113.667 67.500 114.917 67.500 L 116.167 67.500 116.167 72.250 L 116.167 77.000 114.917 77.000 L 113.667 77.000 113.667 78.083 L 113.667 79.167 117.583 79.167 L 121.500 79.167 121.500 78.083 L 121.500 77.000 120.167 77.000 L 118.833 77.000 118.833 72.250 L 118.833 67.500 120.066 67.500 C 121.497 67.500,121.500 67.497,121.500 65.903 L 121.500 64.833 117.583 64.833 L 113.667 64.833 113.667 66.167 M121.667 72.000 L 121.667 79.167 123.000 79.167 L 124.333 79.167 124.333 74.809 L 124.333 70.451 124.816 70.955 C 125.081 71.233,125.349 71.619,125.410 71.813 C 125.472 72.008,125.592 72.167,125.678 72.167 C 125.763 72.167,125.833 72.300,125.833 72.463 C 125.833 72.626,125.983 72.868,126.167 73.000 C 126.350 73.132,126.500 73.336,126.500 73.453 C 126.500 73.571,126.570 73.667,126.655 73.667 C 126.741 73.667,126.864 73.835,126.929 74.042 C 126.994 74.248,127.187 74.538,127.357 74.686 C 127.527 74.834,127.667 75.083,127.667 75.238 C 127.667 75.393,127.724 75.484,127.793 75.441 C 127.863 75.398,128.062 75.657,128.237 76.015 C 128.411 76.373,128.617 76.667,128.693 76.667 C 128.770 76.667,128.833 76.763,128.833 76.880 C 128.833 76.997,128.983 77.201,129.167 77.333 C 129.350 77.465,129.500 77.673,129.500 77.794 C 129.500 77.916,129.688 78.203,129.917 78.432 C 130.146 78.661,130.333 78.920,130.333 79.008 C 130.333 79.095,130.858 79.167,131.500 79.167 L 132.667 79.167 132.667 73.167 L 132.667 67.167 134.000 67.167 L 135.333 67.167 135.333 73.167 L 135.333 79.167 136.667 79.167 L 138.000 79.167 138.000 73.167 L 138.000 67.167 140.083 67.167 L 142.167 67.167 142.167 66.000 L 142.167 64.833 136.094 64.833 L 130.021 64.833 130.006 69.116 C 129.989 73.821,129.994 73.778,129.519 72.977 C 129.336 72.669,129.107 72.326,129.010 72.215 C 128.913 72.105,128.833 71.931,128.833 71.831 C 128.833 71.730,128.758 71.693,128.667 71.750 C 128.575 71.807,128.500 71.736,128.500 71.593 C 128.500 71.450,128.425 71.333,128.333 71.333 C 128.242 71.333,128.167 71.224,128.167 71.091 C 128.167 70.958,127.979 70.661,127.750 70.432 C 127.521 70.203,127.333 69.899,127.333 69.758 C 127.333 69.616,127.275 69.500,127.205 69.500 C 127.134 69.500,126.934 69.237,126.762 68.917 C 126.589 68.596,126.384 68.333,126.307 68.333 C 126.230 68.333,126.167 68.237,126.167 68.120 C 126.167 68.003,126.017 67.799,125.833 67.667 C 125.650 67.535,125.500 67.341,125.500 67.236 C 125.500 67.131,125.345 66.847,125.155 66.606 C 124.965 66.364,124.864 66.167,124.930 66.167 C 124.997 66.167,124.890 66.027,124.692 65.855 C 124.495 65.684,124.333 65.459,124.333 65.355 C 124.333 65.252,124.254 65.167,124.157 65.167 C 124.060 65.167,124.027 65.092,124.083 65.000 C 124.149 64.895,123.724 64.833,122.927 64.833 L 121.667 64.833 121.667 72.000 M142.500 72.000 L 142.500 79.167 147.083 79.167 L 151.667 79.167 151.667 78.083 L 151.667 77.000 148.417 77.000 L 145.167 77.000 145.167 75.167 L 145.167 73.333 148.250 73.333 L 151.333 73.333 151.333 72.000 L 151.333 70.667 148.250 70.667 L 145.167 70.667 145.167 69.083 L 145.167 67.500 148.417 67.500 L 151.667 67.500 151.667 66.167 L 151.667 64.833 147.083 64.833 L 142.500 64.833 142.500 72.000 M152.000 72.000 L 152.000 79.167 153.333 79.167 L 154.667 79.167 154.667 73.333 L 154.667 67.500 156.583 67.500 C 157.658 67.500,158.500 67.568,158.500 67.655 C 158.500 67.741,158.636 67.854,158.802 67.907 C 159.352 68.081,159.996 70.167,159.500 70.167 C 159.408 70.167,159.333 70.271,159.333 70.399 C 159.333 71.234,158.429 71.667,156.683 71.667 L 155.000 71.667 155.000 72.627 C 155.000 73.620,155.230 74.032,156.136 74.655 C 156.326 74.787,156.443 74.958,156.394 75.037 C 156.346 75.115,156.612 75.476,156.986 75.839 C 157.361 76.203,157.667 76.572,157.667 76.661 C 157.667 76.750,157.910 77.070,158.208 77.372 C 158.506 77.674,158.960 78.201,159.217 78.544 L 159.684 79.167 161.342 79.167 C 162.254 79.167,163.000 79.128,163.000 79.081 C 163.000 78.856,162.516 78.199,161.875 77.551 C 161.485 77.157,161.167 76.757,161.167 76.661 C 161.167 76.566,160.829 76.160,160.417 75.759 C 160.004 75.358,159.667 74.952,159.667 74.858 C 159.667 74.763,159.502 74.571,159.302 74.430 C 159.101 74.289,158.970 74.154,159.010 74.129 C 159.426 73.871,159.859 73.667,159.991 73.667 C 160.548 73.667,162.000 71.668,162.000 70.901 C 162.000 70.691,162.075 70.473,162.167 70.417 C 162.258 70.360,162.333 69.985,162.333 69.583 C 162.333 69.182,162.258 68.807,162.167 68.750 C 162.075 68.693,162.000 68.389,162.000 68.073 C 162.000 67.758,161.925 67.500,161.833 67.500 C 161.742 67.500,161.666 67.369,161.666 67.208 C 161.664 66.833,161.093 65.962,160.946 66.110 C 160.884 66.172,160.833 66.097,160.833 65.944 C 160.833 65.792,160.721 65.667,160.583 65.667 C 160.446 65.667,160.333 65.600,160.333 65.519 C 160.333 65.066,158.641 64.833,155.344 64.833 L 152.000 64.833 152.000 72.000 M163.167 72.000 L 163.167 79.167 164.417 79.167 L 165.667 79.167 165.676 74.792 C 165.684 71.339,165.728 70.483,165.885 70.731 C 165.994 70.903,166.252 71.219,166.458 71.431 C 166.665 71.644,166.833 71.897,166.833 71.992 C 166.833 72.088,166.901 72.167,166.984 72.167 C 167.066 72.167,167.213 72.393,167.309 72.669 C 167.405 72.945,167.600 73.216,167.742 73.270 C 167.884 73.324,168.000 73.511,168.000 73.684 C 168.000 73.858,168.058 74.000,168.129 74.000 C 168.200 74.000,168.399 74.262,168.572 74.583 C 168.744 74.904,168.949 75.167,169.026 75.167 C 169.103 75.167,169.167 75.252,169.167 75.355 C 169.167 75.459,169.305 75.666,169.473 75.814 C 169.642 75.962,169.831 76.290,169.893 76.542 C 169.955 76.794,170.080 77.000,170.170 77.000 C 170.260 77.000,170.333 77.078,170.333 77.174 C 170.333 77.270,170.521 77.536,170.750 77.765 C 170.979 77.994,171.167 78.263,171.167 78.363 C 171.167 78.822,171.892 79.167,172.859 79.167 L 173.833 79.167 173.833 72.000 L 173.833 64.833 172.667 64.833 L 171.500 64.833 171.500 69.240 C 171.500 73.855,171.447 74.215,170.930 73.152 C 170.756 72.793,170.550 72.500,170.473 72.500 C 170.396 72.500,170.333 72.383,170.333 72.240 C 170.333 72.097,170.266 72.022,170.184 72.072 C 170.103 72.123,169.989 71.977,169.931 71.749 C 169.874 71.520,169.753 71.333,169.663 71.333 C 169.574 71.333,169.500 71.188,169.500 71.011 C 169.500 70.834,169.350 70.642,169.167 70.583 C 168.983 70.525,168.833 70.333,168.833 70.155 C 168.833 69.978,168.763 69.833,168.678 69.833 C 168.592 69.833,168.469 69.665,168.404 69.458 C 168.339 69.252,168.146 68.962,167.976 68.814 C 167.806 68.666,167.667 68.422,167.667 68.272 C 167.667 68.122,167.604 68.000,167.528 68.000 C 167.452 68.000,167.158 67.644,166.876 67.208 C 166.594 66.773,166.206 66.236,166.015 66.016 C 165.823 65.796,165.667 65.547,165.667 65.463 C 165.667 65.055,165.142 64.833,164.179 64.833 L 163.167 64.833 163.167 72.000 M184.833 66.000 L 184.833 67.167 186.917 67.167 L 189.000 67.167 189.000 73.167 L 189.000 79.167 190.333 79.167 L 191.667 79.167 191.667 73.167 L 191.667 67.167 193.750 67.167 L 195.833 67.167 195.833 66.000 L 195.833 64.833 190.333 64.833 L 184.833 64.833 184.833 66.000 M196.167 66.167 L 196.167 67.500 197.500 67.500 L 198.833 67.500 198.833 72.250 L 198.833 77.000 197.500 77.000 L 196.167 77.000 196.167 78.083 L 196.167 79.167 200.000 79.167 L 203.833 79.167 203.833 78.083 L 203.833 77.000 202.667 77.000 L 201.500 77.000 201.500 72.250 L 201.500 67.500 202.667 67.500 L 203.833 67.500 203.833 66.167 L 203.833 64.833 200.000 64.833 L 196.167 64.833 196.167 66.167 M219.000 72.000 L 219.000 79.167 220.167 79.167 L 221.333 79.167 221.333 74.749 C 221.333 70.372,221.336 70.332,221.667 70.539 C 221.850 70.653,222.000 70.870,222.000 71.020 C 222.000 71.170,222.112 71.386,222.250 71.500 C 222.387 71.614,222.500 71.794,222.500 71.900 C 222.500 72.006,222.650 72.201,222.833 72.333 C 223.017 72.465,223.167 72.629,223.167 72.696 C 223.167 72.825,223.818 73.850,224.260 74.417 C 224.403 74.600,224.679 75.031,224.874 75.375 C 225.069 75.719,225.289 76.000,225.364 76.000 C 225.439 76.000,225.500 76.094,225.500 76.208 C 225.500 76.323,225.688 76.635,225.917 76.901 C 226.146 77.167,226.333 77.469,226.333 77.572 C 226.333 77.675,226.483 77.868,226.667 78.000 C 226.850 78.132,227.000 78.309,227.000 78.392 C 227.000 78.824,227.749 79.167,228.692 79.167 L 229.667 79.167 229.667 72.000 L 229.667 64.833 228.500 64.833 L 227.333 64.833 227.333 69.365 L 227.333 73.896 227.000 73.538 C 226.817 73.342,226.667 73.102,226.667 73.007 C 226.667 72.911,226.609 72.833,226.538 72.833 C 226.467 72.833,226.268 72.571,226.095 72.250 C 225.922 71.929,225.727 71.667,225.661 71.667 C 225.595 71.667,225.449 71.447,225.338 71.179 C 225.227 70.910,225.031 70.650,224.901 70.601 C 224.772 70.551,224.667 70.375,224.667 70.209 C 224.667 70.043,224.517 69.799,224.333 69.667 C 224.150 69.535,224.000 69.330,224.000 69.213 C 224.000 69.096,223.939 69.000,223.864 69.000 C 223.790 69.000,223.603 68.737,223.450 68.417 C 223.297 68.096,223.096 67.833,223.003 67.833 C 222.910 67.833,222.833 67.711,222.833 67.561 C 222.833 67.412,222.694 67.168,222.524 67.020 C 222.354 66.871,222.161 66.581,222.096 66.375 C 222.031 66.169,221.908 66.000,221.822 66.000 C 221.737 66.000,221.667 65.901,221.667 65.780 C 221.667 65.271,220.857 64.833,219.915 64.833 L 219.000 64.833 219.000 72.000 M243.667 72.000 L 243.667 79.167 248.250 79.167 L 252.833 79.167 252.833 78.083 L 252.833 77.000 249.583 77.000 L 246.333 77.000 246.314 71.042 C 246.303 67.765,246.303 65.027,246.314 64.958 C 246.324 64.890,245.733 64.833,245.000 64.833 L 243.667 64.833 243.667 72.000 M271.167 72.000 L 271.167 79.167 272.500 79.167 L 273.833 79.167 273.833 76.250 L 273.833 73.333 276.500 73.333 L 279.167 73.333 279.167 76.250 L 279.167 79.167 284.500 79.167 L 289.833 79.167 289.833 78.083 L 289.833 77.000 288.500 77.000 L 287.167 77.000 287.167 72.250 L 287.167 67.500 288.300 67.500 C 289.720 67.500,289.833 67.387,289.833 65.967 L 289.833 64.833 284.500 64.833 L 279.167 64.833 279.167 67.750 L 279.167 70.667 276.500 70.667 L 273.833 70.667 273.833 67.750 L 273.833 64.833 272.500 64.833 L 271.167 64.833 271.167 72.000 M290.167 72.000 L 290.167 79.167 291.333 79.167 L 292.500 79.167 292.500 77.000 L 292.500 74.833 294.250 74.833 C 295.212 74.833,296.000 74.769,296.000 74.690 C 296.000 74.611,296.403 74.505,296.896 74.454 C 297.876 74.353,298.454 74.074,298.594 73.634 C 298.643 73.478,298.811 73.310,298.967 73.260 C 299.870 72.973,300.689 67.813,299.875 67.542 C 299.760 67.503,299.667 67.328,299.667 67.153 C 299.667 66.977,299.592 66.833,299.500 66.833 C 299.408 66.833,299.333 66.755,299.333 66.659 C 299.333 66.473,298.585 65.667,298.412 65.667 C 298.356 65.667,298.197 65.554,298.060 65.417 C 297.922 65.279,297.669 65.167,297.498 65.167 C 297.327 65.167,297.140 65.092,297.083 65.000 C 297.020 64.898,295.665 64.833,293.573 64.833 L 290.167 64.833 290.167 72.000 M301.333 72.000 L 301.333 79.167 302.667 79.167 L 304.000 79.167 304.000 77.000 L 304.000 74.833 305.667 74.833 C 306.583 74.833,307.333 74.774,307.333 74.701 C 307.333 74.628,307.615 74.550,307.958 74.529 C 308.302 74.507,308.720 74.448,308.887 74.397 C 309.351 74.254,310.833 72.773,310.833 72.451 C 310.833 72.295,310.908 72.167,311.000 72.167 C 311.092 72.167,311.167 71.979,311.167 71.750 C 311.167 71.521,311.242 71.333,311.333 71.333 C 311.433 71.333,311.500 70.667,311.500 69.667 C 311.500 68.667,311.433 68.000,311.333 68.000 C 311.242 68.000,311.167 67.813,311.167 67.583 C 311.167 67.354,311.092 67.167,311.000 67.167 C 310.908 67.167,310.833 67.054,310.833 66.917 C 310.833 66.779,310.746 66.667,310.639 66.667 C 310.532 66.667,310.489 66.622,310.544 66.567 C 310.731 66.381,309.541 65.360,308.946 65.196 C 308.622 65.106,308.313 65.076,308.261 65.128 C 308.209 65.180,308.167 65.135,308.167 65.028 C 308.167 64.886,307.242 64.833,304.750 64.833 L 301.333 64.833 301.333 72.000 M312.333 66.167 L 312.333 67.500 313.583 67.500 L 314.833 67.500 314.833 72.250 L 314.833 77.000 313.583 77.000 L 312.333 77.000 312.333 78.083 L 312.333 79.167 316.250 79.167 L 320.167 79.167 320.167 78.083 L 320.167 77.000 318.833 77.000 L 317.500 77.000 317.500 72.250 L 317.500 67.500 318.731 67.500 C 320.146 67.500,320.160 67.483,320.164 65.792 L 320.167 64.833 316.250 64.833 L 312.333 64.833 312.333 66.167 M320.333 72.000 L 320.333 79.167 321.667 79.167 L 323.000 79.167 323.000 74.917 C 323.000 72.579,323.043 70.667,323.095 70.667 C 323.215 70.667,323.667 71.113,323.667 71.231 C 323.667 71.394,324.826 73.081,325.365 73.703 C 325.531 73.894,325.667 74.124,325.667 74.214 C 325.667 74.304,325.798 74.500,325.958 74.649 C 326.282 74.951,326.522 75.316,326.931 76.125 C 327.082 76.423,327.271 76.667,327.352 76.667 C 327.434 76.667,327.500 76.763,327.500 76.880 C 327.500 76.997,327.650 77.201,327.833 77.333 C 328.017 77.465,328.167 77.698,328.167 77.850 C 328.167 78.002,328.279 78.219,328.417 78.333 C 328.554 78.447,328.667 78.636,328.667 78.753 C 328.667 79.063,329.065 79.167,330.264 79.167 L 331.333 79.167 331.333 72.000 L 331.333 64.833 330.000 64.833 L 328.667 64.833 328.667 69.250 C 328.667 73.285,328.554 74.403,328.265 73.250 C 328.207 73.021,328.087 72.833,327.997 72.833 C 327.907 72.833,327.833 72.700,327.833 72.537 C 327.833 72.374,327.683 72.132,327.500 72.000 C 327.317 71.868,327.167 71.664,327.167 71.547 C 327.167 71.429,327.109 71.333,327.038 71.333 C 326.967 71.333,326.768 71.071,326.595 70.750 C 326.422 70.429,326.218 70.167,326.140 70.167 C 326.063 70.167,326.000 70.017,326.000 69.833 C 326.000 69.650,325.937 69.500,325.860 69.500 C 325.782 69.500,325.578 69.237,325.405 68.917 C 325.232 68.596,325.033 68.333,324.962 68.333 C 324.891 68.333,324.833 68.216,324.833 68.073 C 324.833 67.931,324.758 67.860,324.667 67.917 C 324.575 67.973,324.500 67.903,324.500 67.760 C 324.500 67.617,324.432 67.500,324.350 67.500 C 324.267 67.500,324.120 67.274,324.024 66.998 C 323.928 66.722,323.733 66.451,323.591 66.397 C 323.449 66.342,323.333 66.156,323.333 65.982 C 323.333 65.809,323.270 65.667,323.193 65.667 C 323.116 65.667,322.968 65.479,322.864 65.250 C 322.687 64.863,322.590 64.833,321.504 64.833 L 320.333 64.833 320.333 72.000 M336.597 64.978 C 336.547 65.058,336.285 65.168,336.013 65.222 C 335.366 65.352,333.640 66.672,333.328 67.276 C 333.194 67.537,332.981 67.858,332.856 67.990 C 332.425 68.443,332.000 69.696,332.000 70.514 C 332.000 70.965,331.925 71.333,331.833 71.333 C 331.742 71.333,331.667 71.708,331.667 72.167 C 331.667 72.625,331.742 73.000,331.833 73.000 C 331.925 73.000,332.000 73.337,332.000 73.750 C 332.000 74.167,332.078 74.500,332.177 74.500 C 332.274 74.500,332.306 74.575,332.249 74.668 C 332.126 74.867,332.509 76.000,332.700 76.000 C 332.773 76.000,332.833 76.114,332.833 76.252 C 332.833 76.627,334.961 78.667,335.352 78.667 C 335.536 78.667,335.643 78.736,335.591 78.821 C 335.436 79.073,337.175 79.210,339.614 79.139 C 341.204 79.092,341.913 79.011,341.960 78.869 C 341.997 78.758,342.139 78.667,342.275 78.667 C 342.759 78.667,344.657 77.007,344.664 76.578 C 344.665 76.484,344.817 76.299,345.000 76.167 C 345.183 76.035,345.333 75.762,345.333 75.560 C 345.333 75.359,345.411 75.169,345.505 75.137 C 345.600 75.106,345.724 74.424,345.780 73.623 L 345.883 72.167 341.858 72.167 L 337.833 72.167 337.833 73.500 L 337.833 74.833 340.250 74.833 C 341.579 74.833,342.667 74.871,342.667 74.916 C 342.667 75.132,341.341 76.333,341.103 76.333 C 340.955 76.333,340.833 76.408,340.833 76.500 C 340.833 76.592,340.721 76.667,340.583 76.667 C 340.446 76.667,340.333 76.742,340.333 76.833 C 340.333 77.074,337.987 77.041,337.451 76.792 C 337.204 76.677,337.002 76.527,337.001 76.458 C 337.001 76.390,336.891 76.333,336.757 76.333 C 336.129 76.333,334.667 74.362,334.667 73.516 C 334.667 73.324,334.592 73.167,334.500 73.167 C 334.297 73.167,334.275 71.389,334.477 71.264 C 334.556 71.216,334.667 70.836,334.724 70.421 C 334.893 69.184,336.791 67.500,338.016 67.500 C 338.271 67.500,338.527 67.425,338.583 67.333 C 338.640 67.242,338.832 67.167,339.010 67.167 C 339.188 67.167,339.333 67.242,339.333 67.333 C 339.333 67.425,339.583 67.500,339.889 67.500 C 340.194 67.500,340.501 67.556,340.569 67.625 C 340.638 67.694,340.744 67.756,340.806 67.764 C 341.325 67.832,342.667 68.959,342.667 69.328 C 342.667 69.422,342.742 69.500,342.833 69.500 C 342.925 69.500,343.000 69.686,343.000 69.913 C 343.000 70.421,343.375 70.539,344.757 70.468 L 345.750 70.417 345.701 69.667 C 345.674 69.255,345.580 68.847,345.492 68.759 C 345.405 68.672,345.333 68.465,345.333 68.300 C 345.333 68.135,345.258 68.000,345.167 68.000 C 345.075 68.000,345.000 67.922,345.000 67.826 C 345.000 67.517,343.162 65.667,342.855 65.667 C 342.767 65.667,342.669 65.610,342.639 65.542 C 342.394 64.991,336.905 64.480,336.597 64.978 M211.583 67.333 C 211.640 67.425,211.826 67.500,211.996 67.500 C 212.350 67.500,213.331 68.020,213.332 68.208 C 213.333 68.277,213.478 68.333,213.655 68.333 C 213.833 68.333,214.025 68.483,214.083 68.667 C 214.142 68.850,214.259 69.000,214.345 69.000 C 214.430 69.000,214.500 69.112,214.500 69.250 C 214.500 69.387,214.575 69.500,214.667 69.500 C 214.758 69.500,214.833 69.650,214.833 69.833 C 214.833 70.017,214.908 70.167,215.000 70.167 C 215.092 70.167,215.167 70.279,215.167 70.417 C 215.167 70.554,215.242 70.667,215.333 70.667 C 215.552 70.667,215.554 73.288,215.335 73.361 C 215.244 73.392,215.153 73.618,215.133 73.863 C 215.113 74.108,215.037 74.273,214.965 74.228 C 214.892 74.184,214.833 74.264,214.833 74.407 C 214.833 74.550,214.758 74.667,214.667 74.667 C 214.575 74.667,214.500 74.779,214.500 74.917 C 214.500 75.054,214.430 75.167,214.345 75.167 C 214.259 75.167,214.144 75.310,214.088 75.486 C 214.032 75.662,213.763 75.883,213.491 75.978 C 213.219 76.073,212.951 76.267,212.897 76.409 C 212.839 76.559,212.597 76.667,212.316 76.667 C 212.050 76.667,211.833 76.742,211.833 76.833 C 211.833 76.929,211.333 77.000,210.667 77.000 C 210.000 77.000,209.500 76.929,209.500 76.833 C 209.500 76.742,209.350 76.667,209.167 76.667 C 208.983 76.667,208.833 76.607,208.833 76.534 C 208.833 76.461,208.494 76.262,208.080 76.091 C 207.579 75.885,207.295 75.653,207.232 75.402 C 207.179 75.195,206.993 74.895,206.818 74.736 C 206.643 74.578,206.500 74.354,206.500 74.238 C 206.500 74.122,206.406 73.997,206.292 73.958 C 206.142 73.908,206.083 73.380,206.083 72.083 C 206.083 70.787,206.142 70.258,206.292 70.208 C 206.406 70.170,206.500 70.034,206.500 69.905 C 206.500 69.321,208.703 67.500,209.411 67.500 C 209.643 67.500,209.833 67.425,209.833 67.333 C 209.833 67.242,210.204 67.167,210.657 67.167 C 211.110 67.167,211.527 67.242,211.583 67.333 M283.430 67.500 L 284.500 67.500 284.500 72.250 L 284.500 77.000 283.167 77.000 L 281.833 77.000 281.833 72.149 C 281.833 67.794,281.860 67.308,282.097 67.399 C 282.242 67.454,282.842 67.500,283.430 67.500 M296.923 68.101 L 297.542 68.701 297.463 69.920 C 297.347 71.737,296.697 72.167,294.063 72.167 L 292.500 72.167 292.500 69.833 L 292.500 67.500 294.402 67.500 L 296.305 67.500 296.923 68.101 M307.756 67.708 C 308.764 68.612,308.833 68.746,308.833 69.785 C 308.833 70.827,308.237 71.833,307.620 71.833 C 307.462 71.833,307.333 71.908,307.333 72.000 C 307.333 72.100,306.667 72.167,305.667 72.167 L 304.000 72.167 304.000 69.833 L 304.000 67.500 305.762 67.500 C 306.936 67.500,307.601 67.569,307.756 67.708 M181.333 70.010 C 181.333 70.290,181.399 70.479,181.479 70.430 C 181.559 70.380,181.674 70.710,181.734 71.163 C 181.794 71.616,181.916 72.031,182.005 72.086 C 182.628 72.471,182.141 72.833,181.000 72.833 C 179.661 72.833,179.593 72.728,180.162 71.549 C 180.342 71.176,180.540 70.561,180.600 70.185 C 180.739 69.312,181.333 69.171,181.333 70.010 M237.000 69.907 C 237.000 70.131,237.075 70.360,237.167 70.417 C 237.258 70.473,237.333 70.703,237.333 70.927 C 237.333 71.150,237.408 71.333,237.500 71.333 C 237.592 71.333,237.667 71.521,237.667 71.750 C 237.667 71.979,237.742 72.167,237.833 72.167 C 237.925 72.167,238.000 72.317,238.000 72.500 C 238.000 72.804,237.889 72.833,236.750 72.833 C 235.611 72.833,235.500 72.804,235.500 72.500 C 235.500 72.317,235.575 72.167,235.667 72.167 C 235.758 72.167,235.833 71.979,235.833 71.750 C 235.833 71.521,235.908 71.333,236.000 71.333 C 236.092 71.333,236.167 71.150,236.167 70.927 C 236.167 70.703,236.242 70.473,236.333 70.417 C 236.425 70.360,236.500 70.131,236.500 69.907 C 236.500 69.656,236.596 69.500,236.750 69.500 C 236.904 69.500,237.000 69.656,237.000 69.907 " stroke="none" fill="#fcfcfc" fill-rule="evenodd"></path><path id="path1" d="M364.083 6.964 C 362.254 7.690,360.804 10.366,361.111 12.447 C 361.462 14.825,361.751 15.601,362.641 16.561 C 364.205 18.249,368.354 18.010,369.441 16.170 C 369.605 15.893,369.789 15.667,369.850 15.667 C 369.911 15.667,369.998 15.498,370.042 15.292 C 370.087 15.085,370.175 14.795,370.238 14.646 C 370.324 14.442,370.237 14.354,369.885 14.286 C 369.345 14.182,369.000 14.404,369.000 14.854 C 369.000 15.026,368.925 15.167,368.833 15.167 C 368.742 15.167,368.667 15.265,368.667 15.385 C 368.667 15.753,367.792 16.462,367.000 16.736 C 363.406 17.978,360.827 13.330,362.846 9.250 C 363.950 7.020,367.736 6.923,368.768 9.097 C 369.099 9.795,370.000 9.950,370.000 9.308 C 370.000 7.458,366.415 6.038,364.083 6.964 M375.083 6.964 C 371.104 8.544,371.034 15.590,374.980 17.343 C 376.749 18.128,379.759 17.537,380.770 16.205 C 384.315 11.536,380.241 4.916,375.083 6.964 M384.167 12.250 L 384.167 17.667 384.667 17.667 L 385.167 17.667 385.167 13.000 C 385.167 10.433,385.227 8.333,385.300 8.333 C 385.558 8.333,385.833 8.738,385.833 9.117 C 385.833 9.327,385.908 9.500,386.000 9.500 C 386.092 9.500,386.167 9.651,386.167 9.836 C 386.167 10.020,386.234 10.301,386.317 10.461 C 386.399 10.620,386.596 11.200,386.754 11.750 C 386.912 12.300,387.107 12.880,387.187 13.039 C 387.268 13.199,387.333 13.480,387.333 13.664 C 387.333 13.849,387.408 14.000,387.500 14.000 C 387.592 14.000,387.667 14.151,387.667 14.336 C 387.667 14.520,387.734 14.801,387.817 14.961 C 387.940 15.198,388.366 16.552,388.602 17.458 C 388.717 17.898,389.833 17.710,389.833 17.250 C 389.833 17.021,389.908 16.833,390.000 16.833 C 390.092 16.833,390.167 16.708,390.167 16.554 C 390.167 16.236,390.926 13.898,391.171 13.461 C 391.260 13.301,391.333 13.057,391.333 12.917 C 391.333 12.777,391.399 12.532,391.479 12.373 C 391.560 12.214,391.760 11.633,391.925 11.083 C 392.090 10.533,392.287 10.012,392.363 9.925 C 392.438 9.838,392.502 9.613,392.505 9.425 C 392.512 8.979,392.928 8.436,393.156 8.576 C 393.274 8.650,393.333 10.176,393.333 13.177 L 393.333 17.667 393.833 17.667 L 394.333 17.667 394.333 12.241 L 394.333 6.816 393.458 6.866 L 392.583 6.917 392.362 7.667 C 392.240 8.079,392.079 8.567,392.004 8.750 C 391.929 8.933,391.777 9.346,391.667 9.667 C 391.556 9.987,391.410 10.400,391.342 10.583 C 391.273 10.767,391.014 11.554,390.766 12.333 C 390.519 13.112,390.253 13.900,390.177 14.083 C 390.101 14.267,389.939 14.754,389.818 15.167 C 389.619 15.843,389.412 16.157,389.161 16.164 C 389.113 16.166,388.975 15.810,388.856 15.375 C 388.736 14.940,388.574 14.433,388.495 14.250 C 388.416 14.067,388.152 13.279,387.909 12.500 C 387.665 11.721,387.399 10.953,387.316 10.794 C 387.234 10.635,387.167 10.369,387.167 10.202 C 387.167 10.036,387.103 9.829,387.026 9.742 C 386.949 9.655,386.756 9.133,386.598 8.583 C 386.082 6.787,386.122 6.833,385.087 6.833 L 384.167 6.833 384.167 12.250 M378.837 7.918 C 379.407 8.214,380.052 8.878,380.318 9.447 C 380.440 9.705,380.608 10.052,380.693 10.217 C 381.329 11.456,380.673 14.990,379.626 15.963 C 378.841 16.694,376.532 17.289,376.250 16.833 C 376.193 16.742,375.995 16.667,375.808 16.667 C 375.005 16.667,373.845 15.473,373.380 14.167 C 373.131 13.470,373.096 10.564,373.333 10.417 C 373.425 10.360,373.500 10.131,373.500 9.907 C 373.500 9.683,373.575 9.500,373.667 9.500 C 373.758 9.500,373.833 9.393,373.833 9.263 C 373.833 8.033,377.272 7.109,378.837 7.918 M357.500 17.083 C 357.500 17.639,357.528 17.667,358.083 17.667 C 358.639 17.667,358.667 17.639,358.667 17.083 C 358.667 16.528,358.639 16.500,358.083 16.500 C 357.528 16.500,357.500 16.528,357.500 17.083 " stroke="none" fill="#e39c2c" fill-rule="evenodd"></path><path id="path2" d="M352.167 0.120 C 351.846 0.159,351.512 0.260,351.425 0.345 C 351.338 0.430,351.134 0.500,350.972 0.500 C 350.712 0.500,350.157 0.995,349.195 2.083 C 348.412 2.970,348.417 2.915,348.417 11.417 C 348.417 19.928,348.412 19.875,349.202 20.750 C 349.367 20.933,349.708 21.313,349.960 21.594 C 350.515 22.215,351.385 22.667,352.026 22.667 C 352.287 22.667,352.500 22.742,352.500 22.833 C 352.500 22.944,359.830 23.000,374.157 23.000 C 388.415 23.000,395.849 22.943,395.917 22.833 C 395.973 22.742,396.278 22.667,396.593 22.667 C 396.909 22.667,397.167 22.592,397.167 22.500 C 397.167 22.408,397.278 22.333,397.413 22.333 C 397.726 22.333,399.500 20.571,399.500 20.260 C 399.500 20.132,399.594 19.997,399.708 19.958 C 400.101 19.827,400.000 3.591,399.601 2.757 C 399.223 1.969,397.762 0.500,397.356 0.500 C 397.197 0.500,396.973 0.406,396.858 0.292 C 396.657 0.091,353.769 -0.074,352.167 0.120 M57.676 1.525 C 57.501 1.813,57.220 2.488,57.054 3.023 C 56.887 3.559,56.694 3.998,56.625 3.999 C 56.556 3.999,56.500 4.188,56.500 4.417 C 56.500 4.646,56.425 4.833,56.333 4.833 C 56.242 4.833,56.167 4.979,56.167 5.157 C 56.167 5.335,56.098 5.523,56.015 5.574 C 55.931 5.626,55.812 5.968,55.750 6.334 C 55.688 6.700,55.569 7.000,55.485 7.000 C 55.402 7.000,55.333 7.188,55.333 7.417 C 55.333 7.646,55.258 7.833,55.167 7.833 C 55.075 7.833,55.000 7.983,55.000 8.167 C 55.000 8.350,54.925 8.500,54.833 8.500 C 54.742 8.500,54.667 8.641,54.667 8.814 C 54.667 8.987,54.555 9.343,54.418 9.606 C 54.281 9.869,54.168 10.252,54.168 10.458 C 54.167 10.665,54.092 10.833,54.000 10.833 C 53.908 10.833,53.833 10.979,53.833 11.157 C 53.833 11.335,53.758 11.527,53.667 11.583 C 53.575 11.640,53.500 11.832,53.500 12.010 C 53.500 12.188,53.430 12.333,53.344 12.333 C 53.257 12.333,53.136 12.671,53.075 13.083 C 53.013 13.496,52.896 13.833,52.814 13.833 C 52.733 13.833,52.667 13.979,52.667 14.157 C 52.667 14.335,52.592 14.527,52.500 14.583 C 52.408 14.640,52.333 14.832,52.333 15.010 C 52.333 15.188,52.258 15.333,52.167 15.333 C 52.075 15.333,52.000 15.521,52.000 15.750 C 52.000 15.979,51.932 16.167,51.848 16.167 C 51.764 16.167,51.643 16.485,51.578 16.875 C 51.512 17.265,51.412 17.621,51.355 17.667 C 51.136 17.841,50.833 18.509,50.833 18.817 C 50.833 18.994,50.757 19.164,50.663 19.196 C 50.569 19.227,50.445 19.552,50.387 19.918 C 50.329 20.284,50.237 20.621,50.183 20.667 C 49.961 20.853,49.667 21.516,49.667 21.831 C 49.667 22.016,49.604 22.167,49.527 22.167 C 49.450 22.167,49.247 22.598,49.076 23.125 C 48.905 23.652,48.705 24.155,48.632 24.242 C 48.560 24.329,48.500 24.535,48.500 24.700 C 48.500 24.865,48.425 25.000,48.333 25.000 C 48.242 25.000,48.167 25.141,48.167 25.314 C 48.167 25.487,48.055 25.843,47.918 26.106 C 47.781 26.369,47.668 26.700,47.668 26.842 C 47.666 27.182,47.284 27.997,47.125 27.999 C 47.056 27.999,47.000 28.136,47.000 28.302 C 47.000 28.468,46.848 28.919,46.662 29.303 C 46.477 29.687,46.280 30.227,46.225 30.501 C 46.170 30.775,46.059 31.000,45.979 31.000 C 45.899 31.000,45.833 31.188,45.833 31.417 C 45.833 31.646,45.758 31.833,45.667 31.833 C 45.575 31.833,45.500 31.979,45.500 32.157 C 45.500 32.335,45.432 32.523,45.348 32.574 C 45.264 32.626,45.145 32.968,45.083 33.334 C 45.021 33.700,44.902 34.000,44.819 34.000 C 44.735 34.000,44.667 34.188,44.667 34.417 C 44.667 34.646,44.592 34.833,44.500 34.833 C 44.408 34.833,44.333 34.947,44.333 35.086 C 44.333 35.224,44.265 35.468,44.181 35.627 C 43.796 36.356,43.500 37.164,43.500 37.484 C 43.500 37.676,43.425 37.833,43.333 37.833 C 43.242 37.833,43.167 37.979,43.167 38.157 C 43.167 38.335,43.092 38.527,43.000 38.583 C 42.908 38.640,42.833 38.832,42.833 39.010 C 42.833 39.188,42.767 39.333,42.686 39.333 C 42.604 39.333,42.487 39.671,42.425 40.083 C 42.364 40.496,42.243 40.833,42.156 40.833 C 42.070 40.833,42.000 41.021,42.000 41.250 C 42.000 41.479,41.925 41.667,41.833 41.667 C 41.742 41.667,41.667 41.817,41.667 42.000 C 41.667 42.183,41.592 42.333,41.500 42.333 C 41.408 42.333,41.333 42.521,41.333 42.750 C 41.333 42.979,41.265 43.167,41.181 43.167 C 41.098 43.167,40.976 43.485,40.911 43.875 C 40.846 44.265,40.745 44.621,40.688 44.667 C 40.465 44.844,40.167 45.511,40.167 45.831 C 40.167 46.016,40.096 46.167,40.010 46.167 C 39.924 46.167,39.803 46.504,39.741 46.917 C 39.679 47.329,39.581 47.667,39.522 47.667 C 39.463 47.667,39.315 47.910,39.193 48.208 C 39.072 48.506,38.911 48.900,38.836 49.083 C 38.762 49.267,38.581 49.691,38.434 50.025 C 38.287 50.360,38.167 50.739,38.167 50.867 C 38.167 51.187,37.779 51.997,37.625 51.999 C 37.556 51.999,37.500 52.225,37.500 52.500 C 37.500 52.775,37.426 53.000,37.335 53.000 C 37.245 53.000,37.123 53.300,37.064 53.667 C 37.005 54.033,36.892 54.333,36.812 54.333 C 36.732 54.333,36.667 54.483,36.667 54.667 C 36.667 54.850,36.592 55.000,36.500 55.000 C 36.408 55.000,36.333 55.188,36.333 55.417 C 36.333 55.646,36.274 55.833,36.202 55.833 C 36.130 55.833,35.924 56.321,35.744 56.917 C 35.564 57.512,35.360 58.000,35.292 58.000 C 35.223 58.000,35.167 58.188,35.167 58.417 C 35.167 58.646,35.092 58.833,35.000 58.833 C 34.908 58.833,34.833 58.968,34.833 59.133 C 34.833 59.298,34.771 59.505,34.695 59.592 C 34.546 59.761,34.167 60.997,34.167 61.311 C 34.167 61.448,35.529 61.500,39.083 61.500 L 44.000 61.500 44.000 61.083 C 44.000 60.854,44.075 60.667,44.167 60.667 C 44.258 60.667,44.333 60.553,44.333 60.414 C 44.333 60.276,44.402 60.032,44.486 59.873 C 44.870 59.144,45.167 58.336,45.167 58.016 C 45.167 57.824,45.242 57.667,45.333 57.667 C 45.425 57.667,45.500 57.521,45.500 57.343 C 45.500 57.165,45.575 56.973,45.667 56.917 C 45.758 56.860,45.833 56.668,45.833 56.490 C 45.833 56.312,45.902 56.167,45.985 56.167 C 46.069 56.167,46.191 55.848,46.256 55.458 C 46.321 55.069,46.421 54.712,46.479 54.667 C 46.701 54.489,47.000 53.822,47.000 53.502 C 47.000 53.318,47.067 53.167,47.149 53.167 C 47.230 53.167,47.432 52.717,47.597 52.167 C 47.762 51.617,47.957 51.167,48.032 51.167 C 48.106 51.167,48.167 51.021,48.167 50.843 C 48.167 50.665,48.242 50.473,48.333 50.417 C 48.425 50.360,48.500 50.168,48.500 49.990 C 48.500 49.812,48.570 49.667,48.656 49.667 C 48.743 49.667,48.864 49.329,48.925 48.917 C 48.987 48.504,49.086 48.167,49.145 48.167 C 49.204 48.167,49.353 47.923,49.476 47.625 C 49.600 47.327,49.880 46.701,50.100 46.233 C 50.320 45.766,50.500 45.254,50.500 45.096 C 50.500 44.321,50.331 44.333,61.314 44.333 L 71.652 44.333 71.761 44.919 C 71.822 45.240,71.938 45.545,72.019 45.595 C 72.100 45.645,72.167 45.832,72.167 46.010 C 72.167 46.188,72.242 46.333,72.333 46.333 C 72.425 46.333,72.500 46.479,72.500 46.657 C 72.500 46.835,72.575 47.027,72.667 47.083 C 72.758 47.140,72.833 47.332,72.833 47.510 C 72.833 47.688,72.904 47.833,72.990 47.833 C 73.076 47.833,73.197 48.171,73.259 48.583 C 73.321 48.996,73.438 49.333,73.519 49.333 C 73.600 49.333,73.667 49.483,73.667 49.667 C 73.667 49.850,73.742 50.000,73.833 50.000 C 73.925 50.000,74.000 50.188,74.000 50.417 C 74.000 50.646,74.066 50.833,74.146 50.833 C 74.226 50.833,74.336 51.053,74.389 51.321 C 74.443 51.589,74.632 52.133,74.810 52.529 C 74.987 52.926,75.234 53.494,75.357 53.792 C 75.480 54.090,75.630 54.333,75.688 54.333 C 75.747 54.333,75.846 54.671,75.908 55.083 C 75.970 55.496,76.091 55.833,76.177 55.833 C 76.263 55.833,76.333 55.983,76.333 56.167 C 76.333 56.350,76.408 56.500,76.500 56.500 C 76.592 56.500,76.667 56.688,76.667 56.917 C 76.667 57.146,76.723 57.333,76.792 57.333 C 76.860 57.333,77.064 57.821,77.244 58.417 C 77.424 59.013,77.630 59.500,77.702 59.500 C 77.774 59.500,77.833 59.688,77.833 59.917 C 77.833 60.146,77.908 60.333,78.000 60.333 C 78.092 60.333,78.167 60.483,78.167 60.667 C 78.167 60.850,78.242 61.000,78.333 61.000 C 78.425 61.000,78.500 61.112,78.500 61.250 C 78.500 61.466,79.148 61.500,83.333 61.500 L 88.167 61.500 88.166 61.125 C 88.165 60.919,88.053 60.535,87.916 60.273 C 87.779 60.010,87.667 59.654,87.667 59.481 C 87.667 59.308,87.592 59.167,87.500 59.167 C 87.408 59.167,87.333 59.017,87.333 58.833 C 87.333 58.650,87.258 58.500,87.167 58.500 C 87.075 58.500,87.000 58.313,87.000 58.083 C 87.000 57.854,86.933 57.667,86.852 57.667 C 86.770 57.667,86.653 57.399,86.592 57.071 C 86.530 56.743,86.335 56.216,86.157 55.899 C 85.979 55.582,85.833 55.175,85.833 54.995 C 85.833 54.814,85.758 54.667,85.667 54.667 C 85.575 54.667,85.500 54.521,85.500 54.343 C 85.500 54.165,85.435 53.979,85.355 53.930 C 85.275 53.881,85.166 53.619,85.111 53.349 C 85.026 52.922,84.572 51.776,84.180 51.000 C 84.110 50.862,83.919 50.319,83.754 49.792 C 83.589 49.265,83.390 48.833,83.311 48.833 C 83.231 48.833,83.167 48.682,83.167 48.498 C 83.167 48.178,82.868 47.511,82.645 47.333 C 82.588 47.288,82.488 46.931,82.422 46.542 C 82.357 46.152,82.236 45.833,82.152 45.833 C 82.068 45.833,82.000 45.646,82.000 45.417 C 82.000 45.188,81.925 45.000,81.833 45.000 C 81.742 45.000,81.667 44.854,81.667 44.677 C 81.667 44.499,81.598 44.311,81.515 44.259 C 81.431 44.207,81.312 43.866,81.250 43.500 C 81.188 43.134,81.069 42.793,80.985 42.741 C 80.902 42.689,80.833 42.501,80.833 42.323 C 80.833 42.146,80.758 42.000,80.667 42.000 C 80.575 42.000,80.500 41.813,80.500 41.583 C 80.500 41.354,80.425 41.167,80.333 41.167 C 80.242 41.167,80.167 41.017,80.167 40.833 C 80.167 40.650,80.100 40.500,80.019 40.500 C 79.938 40.500,79.821 40.163,79.759 39.750 C 79.697 39.338,79.576 39.000,79.490 39.000 C 79.404 39.000,79.333 38.813,79.333 38.583 C 79.333 38.354,79.258 38.167,79.167 38.167 C 79.075 38.167,79.000 38.017,79.000 37.833 C 79.000 37.650,78.925 37.500,78.833 37.500 C 78.742 37.500,78.666 37.331,78.666 37.125 C 78.665 36.919,78.553 36.535,78.416 36.273 C 78.279 36.010,78.167 35.654,78.167 35.481 C 78.167 35.308,78.092 35.167,78.000 35.167 C 77.908 35.167,77.833 35.017,77.833 34.833 C 77.833 34.650,77.758 34.500,77.667 34.500 C 77.575 34.500,77.500 34.313,77.500 34.083 C 77.500 33.854,77.433 33.667,77.352 33.667 C 77.270 33.667,77.153 33.399,77.092 33.071 C 77.030 32.743,76.835 32.216,76.657 31.899 C 76.479 31.582,76.333 31.175,76.333 30.995 C 76.333 30.814,76.267 30.667,76.185 30.667 C 76.104 30.667,75.990 30.416,75.932 30.109 C 75.875 29.802,75.679 29.243,75.497 28.867 C 75.315 28.491,75.167 28.067,75.167 27.925 C 75.167 27.783,75.092 27.667,75.000 27.667 C 74.908 27.667,74.833 27.479,74.833 27.250 C 74.833 27.021,74.768 26.833,74.688 26.833 C 74.607 26.833,74.493 26.590,74.434 26.293 C 74.296 25.607,73.957 24.833,73.793 24.833 C 73.723 24.833,73.667 24.608,73.667 24.333 C 73.667 24.058,73.606 23.833,73.532 23.833 C 73.457 23.833,73.262 23.383,73.097 22.833 C 72.932 22.283,72.730 21.833,72.649 21.833 C 72.567 21.833,72.500 21.682,72.500 21.498 C 72.500 21.178,72.201 20.511,71.979 20.333 C 71.921 20.287,71.821 19.931,71.756 19.542 C 71.691 19.152,71.569 18.833,71.485 18.833 C 71.402 18.833,71.333 18.646,71.333 18.417 C 71.333 18.188,71.258 18.000,71.167 18.000 C 71.075 18.000,71.000 17.865,71.000 17.700 C 71.000 17.535,70.938 17.329,70.863 17.242 C 70.787 17.155,70.581 16.615,70.405 16.042 C 70.228 15.469,70.027 15.000,69.958 15.000 C 69.890 15.000,69.833 14.813,69.833 14.583 C 69.833 14.354,69.758 14.167,69.667 14.167 C 69.575 14.167,69.500 14.017,69.500 13.833 C 69.500 13.650,69.434 13.500,69.352 13.500 C 69.271 13.500,69.154 13.163,69.092 12.750 C 69.030 12.338,68.909 12.000,68.823 12.000 C 68.737 12.000,68.667 11.813,68.667 11.583 C 68.667 11.354,68.592 11.167,68.500 11.167 C 68.408 11.167,68.333 11.017,68.333 10.833 C 68.333 10.650,68.258 10.500,68.167 10.500 C 68.075 10.500,68.000 10.331,67.999 10.125 C 67.998 9.919,67.886 9.535,67.749 9.273 C 67.612 9.010,67.500 8.654,67.500 8.481 C 67.500 8.308,67.425 8.167,67.333 8.167 C 67.242 8.167,67.167 8.017,67.167 7.833 C 67.167 7.650,67.092 7.500,67.000 7.500 C 66.908 7.500,66.833 7.313,66.833 7.083 C 66.833 6.854,66.767 6.667,66.685 6.667 C 66.604 6.667,66.486 6.395,66.424 6.063 C 66.313 5.470,66.247 5.294,65.859 4.544 C 65.753 4.339,65.667 4.058,65.667 3.919 C 65.667 3.780,65.592 3.667,65.500 3.667 C 65.408 3.667,65.333 3.498,65.332 3.292 C 65.332 3.085,65.219 2.702,65.082 2.439 C 64.945 2.177,64.833 1.870,64.833 1.757 C 64.833 1.104,64.324 1.000,61.109 1.000 L 57.995 1.000 57.676 1.525 M0.000 31.740 L 0.000 61.500 4.333 61.500 L 8.667 61.500 8.667 51.750 L 8.667 42.000 16.583 42.000 C 21.212 42.000,24.500 41.937,24.500 41.849 C 24.500 41.766,24.894 41.656,25.375 41.606 C 26.905 41.447,27.667 41.302,27.667 41.171 C 27.667 41.101,27.948 41.006,28.292 40.960 C 28.946 40.871,30.543 40.195,30.639 39.966 C 30.669 39.893,30.838 39.833,31.014 39.833 C 31.190 39.833,31.333 39.766,31.333 39.685 C 31.333 39.603,31.512 39.491,31.731 39.436 C 31.949 39.382,32.369 39.111,32.665 38.835 C 32.960 38.559,33.288 38.332,33.393 38.331 C 33.551 38.329,34.387 37.570,35.375 36.531 C 35.490 36.411,35.865 36.039,36.208 35.705 C 36.552 35.370,36.833 35.011,36.833 34.907 C 36.833 34.802,37.058 34.481,37.333 34.193 C 37.608 33.905,37.833 33.594,37.833 33.502 C 37.833 33.409,37.908 33.333,38.000 33.333 C 38.092 33.333,38.167 33.247,38.167 33.142 C 38.167 32.888,39.048 31.099,39.208 31.028 C 39.277 30.997,39.333 30.833,39.333 30.663 C 39.333 30.492,39.404 30.309,39.490 30.256 C 39.577 30.203,39.698 29.823,39.759 29.413 C 39.821 29.002,39.938 28.667,40.019 28.667 C 40.100 28.667,40.167 28.446,40.167 28.177 C 40.167 27.907,40.242 27.640,40.333 27.583 C 40.425 27.527,40.500 27.200,40.500 26.857 C 40.500 26.514,40.589 26.144,40.699 26.035 C 40.985 25.748,40.989 18.135,40.703 18.040 C 40.584 18.000,40.500 17.666,40.500 17.236 C 40.500 16.831,40.425 16.500,40.333 16.500 C 40.242 16.500,40.167 16.237,40.167 15.917 C 40.167 15.596,40.102 15.333,40.022 15.333 C 39.942 15.333,39.839 15.052,39.793 14.708 C 39.705 14.054,39.029 12.457,38.800 12.361 C 38.726 12.331,38.667 12.162,38.667 11.986 C 38.667 11.810,38.610 11.666,38.542 11.666 C 38.473 11.666,38.278 11.328,38.108 10.916 C 37.939 10.504,37.733 10.167,37.650 10.167 C 37.568 10.167,37.500 10.071,37.500 9.953 C 37.500 9.836,37.350 9.632,37.167 9.500 C 36.983 9.368,36.833 9.164,36.833 9.047 C 36.833 8.798,33.913 5.833,33.667 5.833 C 33.575 5.833,33.500 5.758,33.500 5.667 C 33.500 5.575,33.404 5.500,33.287 5.500 C 33.170 5.500,32.967 5.353,32.838 5.173 C 32.708 4.993,32.397 4.801,32.146 4.745 C 31.895 4.690,31.598 4.534,31.485 4.399 C 31.217 4.075,29.564 3.323,28.875 3.211 C 28.577 3.163,28.333 3.058,28.333 2.978 C 28.333 2.899,28.150 2.833,27.927 2.833 C 27.703 2.833,27.473 2.758,27.417 2.667 C 27.360 2.575,27.071 2.500,26.773 2.500 C 26.476 2.500,26.140 2.406,26.025 2.292 C 25.863 2.129,22.957 2.072,12.908 2.031 L 0.000 1.980 0.000 31.740 M88.833 31.750 L 88.833 61.500 93.250 61.500 L 97.667 61.500 97.667 31.750 L 97.667 2.000 93.250 2.000 L 88.833 2.000 88.833 31.750 M119.109 2.305 C 118.957 2.472,118.833 2.702,118.833 2.816 C 118.833 2.929,118.608 3.211,118.333 3.442 C 118.058 3.674,117.833 3.935,117.833 4.022 C 117.833 4.110,117.646 4.383,117.417 4.631 C 117.188 4.878,117.000 5.140,117.000 5.214 C 117.000 5.288,116.813 5.536,116.583 5.765 C 116.354 5.994,116.167 6.261,116.167 6.357 C 116.167 6.454,115.942 6.743,115.667 7.000 C 115.392 7.257,115.167 7.515,115.167 7.574 C 115.167 7.676,114.998 7.902,114.542 8.411 C 114.427 8.538,114.333 8.689,114.333 8.746 C 114.333 8.802,114.146 9.036,113.917 9.265 C 113.688 9.494,113.500 9.761,113.500 9.857 C 113.500 9.954,113.275 10.243,113.000 10.500 C 112.725 10.757,112.500 11.053,112.500 11.158 C 112.500 11.263,112.313 11.523,112.083 11.735 C 111.854 11.948,111.667 12.215,111.667 12.328 C 111.667 12.442,111.479 12.683,111.250 12.863 C 111.021 13.043,110.833 13.292,110.833 13.415 C 110.833 13.538,110.608 13.851,110.333 14.110 C 110.058 14.370,109.833 14.642,109.833 14.715 C 109.833 14.788,109.646 15.050,109.417 15.297 C 109.188 15.544,109.000 15.807,109.000 15.881 C 109.000 15.955,108.813 16.203,108.583 16.432 C 108.354 16.661,108.167 16.909,108.167 16.983 C 108.167 17.057,107.942 17.353,107.667 17.640 C 107.392 17.928,107.167 18.207,107.167 18.260 C 107.167 18.314,107.073 18.462,106.958 18.589 C 106.510 19.090,106.333 19.323,106.333 19.417 C 106.333 19.471,106.146 19.703,105.917 19.932 C 105.688 20.161,105.500 20.409,105.500 20.483 C 105.500 20.557,105.275 20.853,105.000 21.140 C 104.725 21.428,104.500 21.743,104.500 21.840 C 104.500 21.937,104.313 22.190,104.083 22.402 C 103.854 22.614,103.667 22.860,103.667 22.948 C 103.667 23.036,103.485 23.279,103.263 23.487 C 103.042 23.696,102.770 24.084,102.660 24.350 C 102.550 24.616,102.400 24.833,102.328 24.833 C 102.255 24.833,101.836 25.340,101.396 25.958 C 100.956 26.577,100.462 27.229,100.298 27.406 C 100.134 27.584,100.000 27.787,100.000 27.857 C 100.000 27.927,99.813 28.172,99.583 28.402 C 99.354 28.631,99.167 28.897,99.167 28.992 C 99.167 29.088,99.092 29.167,99.000 29.167 C 98.635 29.167,98.793 34.397,99.167 34.667 C 99.350 34.799,99.500 34.969,99.500 35.044 C 99.500 35.191,99.588 35.308,100.291 36.099 C 100.544 36.383,100.900 36.824,101.083 37.078 C 101.267 37.333,101.585 37.717,101.792 37.930 C 101.998 38.144,102.167 38.372,102.167 38.438 C 102.167 38.503,102.504 38.881,102.917 39.276 C 103.329 39.671,103.667 40.081,103.667 40.186 C 103.667 40.291,103.910 40.611,104.208 40.897 C 104.506 41.183,104.971 41.717,105.241 42.083 C 105.512 42.450,105.868 42.871,106.033 43.020 C 106.198 43.168,106.333 43.340,106.333 43.402 C 106.333 43.537,106.569 43.828,107.292 44.587 C 107.590 44.900,107.833 45.233,107.833 45.328 C 107.833 45.422,107.903 45.500,107.989 45.500 C 108.074 45.500,108.191 45.646,108.247 45.825 C 108.304 46.003,108.497 46.196,108.675 46.253 C 108.854 46.309,109.000 46.463,109.000 46.594 C 109.000 46.724,109.337 47.174,109.750 47.592 C 110.162 48.011,110.500 48.405,110.501 48.468 C 110.501 48.531,110.839 48.955,111.251 49.410 C 111.663 49.864,112.000 50.293,112.000 50.362 C 112.000 50.432,112.263 50.751,112.583 51.072 C 112.904 51.393,113.167 51.699,113.167 51.751 C 113.167 51.972,114.299 53.167,114.508 53.167 C 114.595 53.167,114.667 53.307,114.667 53.479 C 114.667 53.650,114.929 54.015,115.250 54.289 C 115.571 54.563,115.833 54.838,115.833 54.901 C 115.833 55.037,116.068 55.327,116.792 56.087 C 117.090 56.400,117.333 56.720,117.333 56.798 C 117.333 56.876,117.671 57.293,118.083 57.723 C 118.496 58.154,118.833 58.576,118.833 58.662 C 118.833 58.867,119.636 59.667,119.841 59.667 C 119.928 59.667,120.000 59.785,120.000 59.930 C 120.000 60.074,120.288 60.487,120.641 60.846 L 121.281 61.500 145.224 61.500 L 169.167 61.500 169.167 57.083 L 169.167 52.667 155.500 52.667 L 141.833 52.667 141.833 44.500 L 141.833 36.333 155.167 36.333 L 168.500 36.333 168.500 31.750 L 168.500 27.167 155.167 27.167 L 141.833 27.167 141.833 19.167 L 141.833 11.167 155.500 11.167 L 169.167 11.167 169.167 6.583 L 169.167 2.000 150.917 2.000 L 132.667 2.000 132.667 31.333 C 132.667 58.538,132.625 61.514,132.258 60.360 C 132.205 60.191,131.787 59.653,131.330 59.164 C 130.874 58.675,130.500 58.218,130.500 58.149 C 130.500 58.080,130.181 57.684,129.792 57.268 C 129.402 56.853,128.858 56.239,128.583 55.904 C 128.308 55.569,127.915 55.120,127.708 54.905 C 127.502 54.691,127.333 54.475,127.333 54.426 C 127.333 54.302,126.662 53.517,126.208 53.110 C 126.002 52.925,125.833 52.699,125.833 52.608 C 125.833 52.517,125.496 52.119,125.083 51.724 C 124.671 51.329,124.333 50.943,124.333 50.866 C 124.333 50.789,123.996 50.374,123.583 49.944 C 123.171 49.513,122.833 49.092,122.833 49.007 C 122.833 48.922,122.515 48.507,122.125 48.084 C 121.735 47.661,121.098 46.970,120.708 46.547 C 120.319 46.124,120.000 45.727,120.000 45.664 C 120.000 45.601,119.793 45.332,119.539 45.066 C 119.286 44.801,118.855 44.285,118.581 43.920 C 118.307 43.555,117.765 42.926,117.375 42.521 C 116.985 42.116,116.667 41.715,116.667 41.629 C 116.667 41.544,116.385 41.193,116.042 40.851 C 115.698 40.508,115.267 40.016,115.083 39.758 C 114.900 39.500,114.506 39.039,114.208 38.733 C 113.910 38.428,113.667 38.110,113.667 38.027 C 113.667 37.943,113.329 37.548,112.917 37.148 C 112.504 36.749,112.167 36.339,112.167 36.238 C 112.167 36.137,111.831 35.761,111.421 35.402 C 111.011 35.043,110.674 34.664,110.671 34.559 C 110.669 34.454,110.329 34.011,109.917 33.574 C 109.504 33.138,109.167 32.721,109.167 32.648 C 109.167 32.575,108.979 32.328,108.750 32.098 C 108.521 31.869,108.333 31.637,108.333 31.583 C 108.333 31.529,108.521 31.297,108.750 31.068 C 108.979 30.839,109.167 30.591,109.167 30.517 C 109.167 30.443,109.382 30.158,109.645 29.883 C 109.907 29.608,110.151 29.307,110.186 29.214 C 110.256 29.030,110.988 28.081,111.708 27.241 C 111.960 26.947,112.167 26.590,112.167 26.448 C 112.167 26.305,112.305 26.145,112.473 26.092 C 112.642 26.038,112.886 25.790,113.015 25.540 C 113.144 25.290,113.419 24.927,113.625 24.732 C 113.831 24.538,114.000 24.312,114.000 24.231 C 114.000 24.150,114.263 23.788,114.583 23.428 C 114.904 23.068,115.167 22.692,115.167 22.593 C 115.167 22.494,115.314 22.321,115.495 22.209 C 115.675 22.096,115.949 21.759,116.103 21.460 C 116.257 21.161,116.522 20.819,116.691 20.699 C 116.861 20.579,117.000 20.411,117.000 20.325 C 117.000 20.183,117.432 19.619,117.958 19.073 C 118.073 18.954,118.167 18.811,118.167 18.754 C 118.167 18.698,118.354 18.464,118.583 18.235 C 118.813 18.006,119.000 17.739,119.000 17.643 C 119.000 17.546,119.225 17.257,119.500 17.000 C 119.775 16.743,120.000 16.458,120.000 16.367 C 120.000 16.276,120.206 15.981,120.458 15.710 C 120.710 15.440,121.067 15.011,121.250 14.757 C 121.433 14.504,121.677 14.198,121.792 14.077 C 121.906 13.956,122.000 13.811,122.000 13.754 C 122.000 13.698,122.188 13.464,122.417 13.235 C 122.646 13.006,122.833 12.739,122.833 12.643 C 122.833 12.546,123.058 12.257,123.333 12.000 C 123.608 11.743,123.833 11.485,123.833 11.426 C 123.833 11.309,124.055 11.026,124.625 10.416 C 124.831 10.196,125.000 9.969,125.000 9.912 C 125.000 9.856,125.094 9.705,125.208 9.577 C 125.657 9.077,125.833 8.843,125.833 8.749 C 125.833 8.696,126.021 8.464,126.250 8.235 C 126.479 8.006,126.667 7.761,126.667 7.692 C 126.667 7.622,126.929 7.279,127.250 6.928 C 127.571 6.578,127.833 6.237,127.833 6.170 C 127.833 6.104,128.058 5.814,128.333 5.526 C 128.608 5.238,128.833 4.962,128.833 4.911 C 128.833 4.860,129.021 4.617,129.250 4.369 C 129.479 4.122,129.667 3.788,129.667 3.627 C 129.667 3.465,129.739 3.333,129.827 3.333 C 130.091 3.333,130.667 2.626,130.667 2.302 C 130.667 1.832,119.534 1.835,119.109 2.305 M172.167 6.583 L 172.167 11.167 181.083 11.167 L 190.000 11.167 190.000 36.500 L 190.000 61.833 194.583 61.833 L 199.167 61.833 199.167 36.500 L 199.167 11.167 208.000 11.167 L 216.833 11.167 216.833 6.583 L 216.833 2.000 194.500 2.000 L 172.167 2.000 172.167 6.583 M368.375 6.885 C 369.946 7.809,370.896 9.701,369.875 9.873 C 369.623 9.915,369.316 9.980,369.194 10.017 C 369.071 10.053,368.846 9.858,368.693 9.583 C 367.916 8.183,367.371 7.836,365.952 7.834 C 363.630 7.832,362.578 9.215,362.590 12.250 C 362.602 15.101,363.716 16.563,365.879 16.563 C 367.364 16.563,368.833 15.467,368.833 14.360 C 368.833 13.894,369.360 13.770,370.072 14.068 L 370.668 14.317 370.364 15.089 C 369.211 18.024,365.621 19.067,362.977 17.234 C 359.972 15.151,360.139 8.897,363.249 7.075 C 364.752 6.195,367.056 6.109,368.375 6.885 M379.372 6.830 C 383.207 8.632,383.389 15.492,379.653 17.424 C 375.702 19.467,371.820 16.874,371.840 12.205 C 371.860 7.660,375.544 5.031,379.372 6.830 M387.735 11.049 C 388.551 13.504,389.278 15.454,389.349 15.382 C 389.420 15.309,389.899 13.975,390.413 12.417 C 390.928 10.858,391.420 9.453,391.508 9.294 C 391.595 9.135,391.667 8.866,391.667 8.697 C 391.667 8.527,391.717 8.338,391.779 8.276 C 391.842 8.214,392.010 7.808,392.154 7.373 L 392.417 6.583 393.458 6.534 L 394.500 6.484 394.500 12.168 L 394.500 17.852 393.708 17.801 L 392.917 17.750 392.868 13.583 L 392.819 9.417 391.480 13.333 C 390.744 15.488,390.100 17.385,390.049 17.550 C 389.975 17.792,389.810 17.840,389.193 17.800 L 388.429 17.750 388.075 16.667 C 387.881 16.071,387.675 15.471,387.617 15.333 C 387.559 15.196,387.241 14.221,386.910 13.167 C 386.579 12.112,386.248 11.100,386.173 10.917 C 386.099 10.733,385.936 10.246,385.811 9.833 C 385.603 9.149,385.579 9.468,385.539 13.458 L 385.494 17.833 384.747 17.833 L 384.000 17.833 384.000 12.159 L 384.000 6.485 385.125 6.534 L 386.250 6.583 387.735 11.049 M375.545 8.106 C 372.725 9.497,372.655 14.922,375.440 16.252 C 378.671 17.795,381.607 14.361,380.415 10.433 C 379.766 8.292,377.431 7.176,375.545 8.106 M24.458 11.458 C 24.497 11.573,24.709 11.667,24.931 11.667 C 25.152 11.667,25.333 11.742,25.333 11.833 C 25.333 11.925,25.521 12.000,25.750 12.000 C 25.979 12.000,26.168 12.056,26.169 12.125 C 26.170 12.194,26.488 12.400,26.877 12.583 C 27.599 12.924,29.833 14.991,29.833 15.318 C 29.833 15.418,29.897 15.500,29.975 15.500 C 30.053 15.500,30.256 15.838,30.426 16.250 C 30.596 16.662,30.795 17.000,30.868 17.000 C 30.940 17.000,31.000 17.150,31.000 17.333 C 31.000 17.517,31.065 17.667,31.144 17.667 C 31.438 17.667,31.719 19.823,31.720 22.083 C 31.720 24.320,31.445 26.333,31.139 26.333 C 31.062 26.333,31.000 26.521,31.000 26.750 C 31.000 26.979,30.943 27.167,30.873 27.167 C 30.803 27.167,30.616 27.464,30.459 27.828 C 30.301 28.192,30.040 28.652,29.878 28.850 C 29.202 29.676,27.849 31.000,27.681 31.000 C 27.581 31.000,27.500 31.064,27.500 31.142 C 27.500 31.219,27.162 31.422,26.750 31.592 C 26.337 31.762,26.000 31.961,26.000 32.034 C 26.000 32.107,25.813 32.167,25.583 32.167 C 25.354 32.167,25.167 32.242,25.167 32.333 C 25.167 32.425,24.948 32.500,24.681 32.500 C 24.413 32.500,24.163 32.594,24.125 32.708 C 24.071 32.870,22.327 32.930,16.361 32.975 L 8.667 33.033 8.667 22.087 L 8.667 11.141 16.528 11.195 C 22.629 11.238,24.405 11.297,24.458 11.458 M358.833 17.009 L 358.833 17.852 358.042 17.801 C 356.708 17.715,356.750 16.167,358.087 16.167 L 358.833 16.167 358.833 17.009 M61.470 16.971 C 61.499 17.170,61.593 17.333,61.678 17.333 C 61.764 17.333,61.833 17.521,61.833 17.750 C 61.833 17.979,61.908 18.167,62.000 18.167 C 62.092 18.167,62.167 18.392,62.167 18.667 C 62.167 18.942,62.235 19.167,62.318 19.167 C 62.401 19.167,62.520 19.542,62.583 20.000 C 62.646 20.458,62.766 20.833,62.849 20.833 C 62.932 20.833,63.000 21.016,63.000 21.240 C 63.000 21.464,63.075 21.693,63.167 21.750 C 63.258 21.807,63.333 22.036,63.333 22.260 C 63.333 22.484,63.400 22.667,63.481 22.667 C 63.562 22.667,63.679 23.004,63.741 23.417 C 63.803 23.829,63.924 24.167,64.010 24.167 C 64.096 24.167,64.167 24.354,64.167 24.583 C 64.167 24.813,64.242 25.000,64.333 25.000 C 64.425 25.000,64.500 25.225,64.500 25.500 C 64.500 25.775,64.575 26.000,64.667 26.000 C 64.758 26.000,64.833 26.188,64.833 26.417 C 64.833 26.646,64.900 26.833,64.981 26.833 C 65.062 26.833,65.181 27.182,65.245 27.608 C 65.358 28.365,65.412 28.525,65.807 29.289 C 65.913 29.494,66.000 29.813,66.000 29.998 C 66.000 30.182,66.070 30.333,66.156 30.333 C 66.243 30.333,66.364 30.671,66.425 31.083 C 66.487 31.496,66.604 31.833,66.686 31.833 C 66.767 31.833,66.833 32.016,66.833 32.240 C 66.833 32.464,66.908 32.693,67.000 32.750 C 67.092 32.807,67.167 33.036,67.167 33.260 C 67.167 33.484,67.242 33.667,67.333 33.667 C 67.425 33.667,67.500 33.848,67.500 34.069 C 67.500 34.291,67.563 34.497,67.640 34.528 C 67.717 34.558,67.828 34.827,67.886 35.125 L 67.992 35.667 61.163 35.667 L 54.333 35.667 54.333 35.250 C 54.333 35.021,54.408 34.833,54.500 34.833 C 54.592 34.833,54.667 34.720,54.667 34.581 C 54.667 34.442,54.733 34.199,54.814 34.039 C 54.895 33.880,55.054 33.525,55.167 33.250 C 55.280 32.975,55.432 32.630,55.506 32.483 C 55.579 32.336,55.691 31.867,55.755 31.441 C 55.819 31.015,55.938 30.667,56.019 30.667 C 56.100 30.667,56.167 30.479,56.167 30.250 C 56.167 30.021,56.242 29.833,56.333 29.833 C 56.425 29.833,56.500 29.688,56.500 29.510 C 56.500 29.332,56.571 29.143,56.657 29.089 C 56.743 29.036,56.865 28.656,56.926 28.244 C 56.988 27.833,57.105 27.455,57.186 27.405 C 57.267 27.355,57.333 27.131,57.333 26.907 C 57.333 26.683,57.408 26.500,57.500 26.500 C 57.592 26.500,57.667 26.319,57.667 26.097 C 57.667 25.876,57.723 25.669,57.792 25.639 C 57.953 25.567,58.502 24.007,58.501 23.625 C 58.500 23.465,58.575 23.333,58.667 23.333 C 58.758 23.333,58.833 23.108,58.833 22.833 C 58.833 22.558,58.908 22.333,59.000 22.333 C 59.092 22.333,59.167 22.146,59.167 21.917 C 59.167 21.688,59.233 21.500,59.314 21.500 C 59.396 21.500,59.513 21.162,59.575 20.750 C 59.636 20.337,59.757 20.000,59.844 20.000 C 59.930 20.000,60.000 19.817,60.000 19.593 C 60.000 19.369,60.075 19.140,60.167 19.083 C 60.258 19.027,60.333 18.797,60.333 18.573 C 60.333 18.350,60.408 18.167,60.500 18.167 C 60.592 18.167,60.667 17.979,60.667 17.750 C 60.667 17.521,60.742 17.333,60.833 17.333 C 60.925 17.333,61.000 17.140,61.000 16.903 C 61.000 16.381,61.391 16.438,61.470 16.971 " stroke="none" fill="#342c2c" fill-rule="evenodd"></path><path id="path3" d="M365.000 6.594 C 365.561 6.718,367.636 6.751,367.451 6.633 C 367.340 6.562,366.688 6.513,366.000 6.522 C 365.313 6.531,364.863 6.564,365.000 6.594 M377.167 6.649 C 377.946 6.712,378.759 6.861,378.973 6.979 C 379.187 7.097,379.403 7.152,379.454 7.101 C 379.672 6.883,378.475 6.606,377.167 6.571 L 375.750 6.534 377.167 6.649 M363.917 6.923 C 363.500 7.123,363.486 7.146,363.833 7.062 C 364.306 6.946,364.836 6.676,364.583 6.679 C 364.492 6.681,364.192 6.790,363.917 6.923 M374.917 6.923 C 374.500 7.123,374.486 7.146,374.833 7.062 C 375.306 6.946,375.836 6.676,375.583 6.679 C 375.492 6.681,375.192 6.790,374.917 6.923 M384.039 12.208 L 384.083 17.750 384.544 17.770 C 384.965 17.789,384.969 17.784,384.585 17.718 L 384.167 17.645 384.167 12.239 L 384.167 6.833 385.075 6.833 C 385.764 6.833,386.024 6.904,386.153 7.125 C 386.247 7.285,386.325 7.338,386.328 7.242 C 386.339 6.857,385.887 6.667,384.964 6.667 L 383.996 6.667 384.039 12.208 M392.533 6.867 C 392.423 6.977,392.333 7.141,392.333 7.232 C 392.333 7.323,392.427 7.273,392.542 7.122 C 392.672 6.951,393.062 6.825,393.583 6.787 L 394.417 6.727 393.575 6.697 C 393.103 6.680,392.646 6.754,392.533 6.867 M362.529 7.863 C 362.146 8.243,361.859 8.581,361.892 8.614 C 361.925 8.648,362.265 8.362,362.647 7.980 C 363.029 7.598,363.316 7.260,363.284 7.229 C 363.253 7.197,362.913 7.483,362.529 7.863 M373.497 7.920 C 373.094 8.331,372.808 8.667,372.862 8.667 C 373.000 8.667,374.354 7.299,374.285 7.230 C 374.254 7.199,373.900 7.510,373.497 7.920 M365.625 7.618 C 365.831 7.657,366.169 7.657,366.375 7.618 C 366.581 7.578,366.412 7.545,366.000 7.545 C 365.587 7.545,365.419 7.578,365.625 7.618 M376.708 7.615 C 376.869 7.657,377.131 7.657,377.292 7.615 C 377.452 7.573,377.321 7.539,377.000 7.539 C 376.679 7.539,376.548 7.573,376.708 7.615 M380.451 7.911 C 380.615 8.138,380.819 8.325,380.904 8.328 C 380.989 8.331,380.882 8.146,380.667 7.917 C 380.167 7.385,380.065 7.382,380.451 7.911 M363.901 8.105 C 363.222 8.565,362.846 8.971,362.840 9.250 C 362.839 9.342,363.030 9.171,363.267 8.871 C 363.503 8.571,363.971 8.181,364.307 8.004 C 364.642 7.826,364.833 7.678,364.732 7.674 C 364.630 7.670,364.256 7.864,363.901 8.105 M367.417 7.854 C 367.600 7.952,367.956 8.265,368.208 8.551 C 368.460 8.837,368.667 8.988,368.667 8.886 C 368.667 8.647,367.550 7.665,367.286 7.672 C 367.174 7.675,367.233 7.757,367.417 7.854 M375.250 7.928 C 374.694 8.217,373.833 8.988,373.833 9.198 C 373.833 9.272,374.133 9.033,374.500 8.667 C 374.867 8.300,375.275 8.000,375.407 8.000 C 375.539 8.000,375.693 7.925,375.750 7.833 C 375.886 7.613,375.840 7.622,375.250 7.928 M378.583 7.925 C 378.858 8.080,379.336 8.441,379.645 8.728 C 380.004 9.061,380.132 9.125,379.999 8.905 C 379.767 8.521,378.926 7.906,378.417 7.749 C 378.233 7.692,378.308 7.771,378.583 7.925 M386.437 8.083 C 386.496 8.358,386.611 8.696,386.691 8.833 C 386.785 8.993,386.799 8.903,386.730 8.583 C 386.670 8.308,386.556 7.971,386.475 7.833 C 386.381 7.673,386.368 7.763,386.437 8.083 M392.016 8.192 C 391.795 8.825,391.787 8.951,391.978 8.742 C 392.138 8.568,392.382 7.667,392.269 7.667 C 392.231 7.667,392.117 7.903,392.016 8.192 M385.204 13.042 L 385.242 17.750 385.329 13.333 C 385.397 9.926,385.464 8.926,385.625 8.958 C 385.889 9.011,385.893 8.793,385.633 8.533 C 385.204 8.104,385.168 8.484,385.204 13.042 M392.707 8.831 C 392.388 9.341,392.462 9.628,392.792 9.162 C 393.073 8.764,393.086 8.907,393.167 13.250 L 393.250 17.750 393.750 17.774 C 394.220 17.797,394.222 17.794,393.794 17.722 L 393.339 17.645 393.294 13.128 C 393.250 8.650,393.173 8.084,392.707 8.831 M368.830 9.458 C 368.943 9.692,369.151 9.826,369.381 9.814 C 369.716 9.796,369.719 9.787,369.421 9.711 C 369.240 9.665,368.992 9.505,368.870 9.356 C 368.679 9.121,368.673 9.135,368.830 9.458 M361.271 9.756 C 361.213 9.905,361.174 10.190,361.184 10.389 C 361.195 10.617,361.251 10.536,361.338 10.168 C 361.483 9.548,361.444 9.306,361.271 9.756 M362.613 9.625 C 362.497 9.821,362.284 10.927,362.380 10.833 C 362.489 10.727,362.826 9.500,362.746 9.500 C 362.713 9.500,362.653 9.556,362.613 9.625 M392.259 10.042 C 392.223 10.156,392.065 10.608,391.907 11.045 C 391.748 11.483,391.661 11.884,391.714 11.936 C 391.766 11.988,391.884 11.780,391.975 11.474 C 392.067 11.167,392.217 10.673,392.309 10.375 C 392.401 10.077,392.442 9.833,392.400 9.833 C 392.357 9.833,392.294 9.927,392.259 10.042 M380.512 10.282 C 380.549 10.714,380.810 11.081,380.822 10.718 C 380.828 10.517,380.758 10.307,380.667 10.250 C 380.575 10.193,380.505 10.208,380.512 10.282 M381.848 10.500 C 381.843 10.729,381.911 11.029,382.000 11.167 C 382.212 11.495,382.212 10.910,382.000 10.417 C 381.869 10.111,381.856 10.118,381.848 10.500 M373.278 10.444 C 373.127 10.596,373.141 13.702,373.294 13.942 C 373.362 14.048,373.417 13.279,373.417 12.234 C 373.417 11.189,373.410 10.333,373.403 10.333 C 373.395 10.333,373.339 10.383,373.278 10.444 M386.178 10.448 C 386.216 10.881,386.477 11.248,386.488 10.885 C 386.495 10.684,386.425 10.473,386.333 10.417 C 386.242 10.360,386.172 10.374,386.178 10.448 M361.039 11.333 C 361.039 11.654,361.073 11.785,361.115 11.625 C 361.157 11.465,361.157 11.202,361.115 11.042 C 361.073 10.881,361.039 11.012,361.039 11.333 M362.193 12.064 C 362.168 13.158,362.400 14.405,362.692 14.739 C 362.766 14.824,362.744 14.637,362.643 14.322 C 362.542 14.007,362.405 13.112,362.339 12.333 L 362.219 10.917 362.193 12.064 M387.505 11.333 C 387.505 11.471,387.578 11.696,387.667 11.833 C 387.810 12.056,387.828 12.056,387.828 11.833 C 387.828 11.696,387.756 11.471,387.667 11.333 C 387.523 11.111,387.505 11.111,387.505 11.333 M390.956 11.281 C 390.914 11.355,390.835 11.642,390.780 11.917 C 390.681 12.414,390.682 12.414,390.932 11.856 C 391.150 11.369,391.170 10.903,390.956 11.281 M386.596 11.667 C 386.657 11.896,386.776 12.196,386.861 12.333 C 386.969 12.507,386.982 12.456,386.904 12.167 C 386.843 11.938,386.724 11.637,386.639 11.500 C 386.531 11.326,386.518 11.377,386.596 11.667 M371.850 12.264 C 371.859 12.715,371.926 13.271,371.999 13.500 C 372.076 13.742,372.094 13.428,372.042 12.750 C 371.938 11.377,371.826 11.095,371.850 12.264 M361.042 12.750 C 361.044 13.117,361.078 13.247,361.118 13.040 C 361.158 12.832,361.156 12.532,361.115 12.373 C 361.073 12.214,361.040 12.383,361.042 12.750 M387.937 12.583 C 387.996 12.858,388.111 13.196,388.191 13.333 C 388.285 13.493,388.299 13.403,388.230 13.083 C 388.170 12.808,388.056 12.471,387.975 12.333 C 387.881 12.173,387.868 12.263,387.937 12.583 M381.947 13.397 C 381.885 13.560,381.838 13.819,381.844 13.972 C 381.851 14.156,381.909 14.114,382.015 13.848 C 382.104 13.626,382.150 13.368,382.119 13.273 C 382.087 13.178,382.010 13.234,381.947 13.397 M361.169 13.847 C 361.171 14.069,361.246 14.362,361.336 14.500 C 361.451 14.676,361.468 14.577,361.392 14.167 C 361.261 13.448,361.166 13.312,361.169 13.847 M380.686 13.611 C 380.675 13.718,380.618 13.943,380.559 14.111 C 380.475 14.348,380.497 14.374,380.658 14.226 C 380.772 14.121,380.829 13.896,380.785 13.726 C 380.741 13.556,380.697 13.504,380.686 13.611 M369.111 14.111 C 368.902 14.320,368.997 14.543,369.217 14.361 C 369.336 14.262,369.618 14.217,369.842 14.260 C 370.203 14.331,370.212 14.322,369.917 14.182 C 369.507 13.987,369.257 13.965,369.111 14.111 M390.685 14.685 C 390.583 14.980,390.528 15.250,390.563 15.286 C 390.599 15.321,390.712 15.109,390.815 14.815 C 390.917 14.520,390.972 14.250,390.937 14.214 C 390.901 14.179,390.788 14.391,390.685 14.685 M373.501 14.461 C 373.500 14.788,374.161 15.717,374.646 16.070 L 375.083 16.388 374.642 15.902 C 374.399 15.635,374.043 15.154,373.851 14.833 C 373.659 14.512,373.501 14.345,373.501 14.461 M381.501 14.915 C 381.404 15.169,381.162 15.606,380.963 15.885 C 380.764 16.165,380.690 16.339,380.799 16.271 C 381.083 16.096,381.892 14.670,381.775 14.553 C 381.721 14.498,381.597 14.661,381.501 14.915 M389.750 14.833 C 389.687 15.030,389.674 15.229,389.720 15.275 C 389.765 15.321,389.854 15.197,389.917 15.000 C 389.979 14.803,389.993 14.604,389.947 14.558 C 389.901 14.512,389.813 14.636,389.750 14.833 M380.001 15.248 C 379.804 15.568,379.329 16.017,378.946 16.246 C 378.247 16.665,378.205 16.830,378.886 16.479 C 379.431 16.198,380.002 15.640,380.270 15.125 C 380.609 14.474,380.429 14.557,380.001 15.248 M387.678 14.948 C 387.716 15.381,387.977 15.748,387.988 15.385 C 387.995 15.184,387.925 14.973,387.833 14.917 C 387.742 14.860,387.672 14.874,387.678 14.948 M362.839 15.107 C 362.846 15.310,363.316 15.907,363.401 15.821 C 363.439 15.782,363.328 15.573,363.152 15.357 C 362.977 15.140,362.836 15.028,362.839 15.107 M368.336 15.661 C 368.231 15.857,367.906 16.164,367.614 16.342 C 367.322 16.520,367.178 16.666,367.294 16.666 C 367.581 16.667,368.777 15.554,368.638 15.416 C 368.577 15.355,368.441 15.465,368.336 15.661 M389.448 15.727 C 389.386 15.889,389.260 15.974,389.168 15.917 C 389.076 15.860,389.000 15.893,389.000 15.990 C 389.000 16.203,389.170 16.212,389.479 16.017 C 389.604 15.937,389.674 15.773,389.634 15.653 C 389.583 15.498,389.528 15.520,389.448 15.727 M361.965 15.917 C 362.060 16.100,362.388 16.475,362.694 16.750 L 363.250 17.249 362.667 16.583 C 362.347 16.217,362.019 15.842,361.938 15.750 C 361.858 15.658,361.870 15.733,361.965 15.917 M369.438 16.175 C 368.668 17.480,365.696 18.149,363.937 17.414 C 363.605 17.276,363.333 17.200,363.333 17.246 C 363.333 17.914,366.857 18.086,368.078 17.478 C 368.823 17.106,369.996 15.941,369.811 15.756 C 369.768 15.712,369.600 15.901,369.438 16.175 M373.136 16.103 C 373.431 16.534,374.333 17.302,374.333 17.122 C 374.333 17.093,373.984 16.735,373.557 16.326 C 372.920 15.717,372.844 15.677,373.136 16.103 M388.096 16.167 C 388.157 16.396,388.276 16.696,388.361 16.833 C 388.469 17.007,388.482 16.956,388.404 16.667 C 388.343 16.438,388.224 16.137,388.139 16.000 C 388.031 15.826,388.018 15.877,388.096 16.167 M363.917 16.333 C 364.192 16.515,364.492 16.665,364.583 16.665 C 364.675 16.665,364.504 16.516,364.204 16.333 C 363.497 15.901,363.265 15.902,363.917 16.333 M357.365 17.032 L 357.417 17.750 358.083 17.750 L 358.750 17.750 358.750 17.083 C 358.750 16.417,358.750 16.417,358.032 16.365 L 357.313 16.313 357.365 17.032 M358.667 17.083 C 358.667 17.639,358.639 17.667,358.083 17.667 C 357.528 17.667,357.500 17.639,357.500 17.083 C 357.500 16.528,357.528 16.500,358.083 16.500 C 358.639 16.500,358.667 16.528,358.667 17.083 M379.675 17.013 C 379.267 17.281,378.989 17.500,379.058 17.500 C 379.290 17.500,380.106 17.024,380.324 16.761 C 380.611 16.415,380.548 16.440,379.675 17.013 M365.215 16.866 C 365.326 16.937,365.642 16.995,365.917 16.995 C 366.192 16.995,366.508 16.937,366.619 16.866 C 366.730 16.796,366.414 16.738,365.917 16.738 C 365.419 16.738,365.103 16.796,365.215 16.866 M376.272 16.869 C 376.376 17.037,377.520 17.035,377.785 16.866 C 377.897 16.796,377.583 16.738,377.089 16.738 C 376.595 16.738,376.228 16.797,376.272 16.869 M374.500 17.248 C 374.500 17.633,376.730 18.027,377.833 17.837 C 378.480 17.726,378.376 17.705,377.083 17.682 C 376.134 17.665,375.430 17.567,375.167 17.417 C 374.732 17.168,374.500 17.110,374.500 17.248 " stroke="none" fill="#c0852c" fill-rule="evenodd"></path><path id="path4" d="M229.915 29.667 C 229.915 45.296,229.934 51.690,229.958 43.875 C 229.982 36.060,229.982 23.273,229.958 15.458 C 229.934 7.644,229.915 14.037,229.915 29.667 M365.458 6.454 C 365.756 6.491,366.244 6.491,366.542 6.454 C 366.840 6.417,366.596 6.387,366.000 6.387 C 365.404 6.387,365.160 6.417,365.458 6.454 M376.458 6.454 C 376.756 6.491,377.244 6.491,377.542 6.454 C 377.840 6.417,377.596 6.387,377.000 6.387 C 376.404 6.387,376.160 6.417,376.458 6.454 M363.335 7.042 C 362.429 7.587,361.470 8.724,361.262 9.500 C 361.201 9.729,361.323 9.593,361.534 9.198 C 362.090 8.154,363.100 7.216,364.070 6.843 C 364.536 6.664,364.763 6.513,364.576 6.509 C 364.389 6.504,363.830 6.744,363.335 7.042 M367.933 6.880 C 368.926 7.418,369.056 7.522,369.538 8.167 C 370.143 8.976,370.288 9.613,369.889 9.716 C 369.641 9.780,369.655 9.798,369.958 9.814 C 370.614 9.848,370.351 8.822,369.417 7.701 C 369.033 7.241,367.833 6.498,367.485 6.505 C 367.356 6.507,367.557 6.676,367.933 6.880 M374.365 7.010 C 373.026 7.779,371.830 9.721,371.857 11.083 C 371.864 11.434,371.928 11.310,372.071 10.667 C 372.483 8.804,373.566 7.433,375.094 6.837 C 375.547 6.660,375.767 6.513,375.583 6.509 C 375.400 6.506,374.852 6.731,374.365 7.010 M384.911 6.624 C 386.061 6.695,386.250 6.811,386.412 7.545 C 386.478 7.841,386.566 7.997,386.608 7.891 C 386.650 7.784,386.572 7.428,386.434 7.099 L 386.184 6.500 385.050 6.532 L 383.917 6.563 384.911 6.624 M392.233 7.099 C 392.095 7.428,392.015 7.784,392.054 7.891 C 392.093 7.997,392.183 7.858,392.252 7.583 C 392.450 6.806,392.643 6.667,393.525 6.667 L 394.342 6.667 394.296 12.250 C 394.271 15.321,394.306 17.833,394.375 17.833 C 394.444 17.833,394.500 15.283,394.500 12.167 L 394.500 6.500 393.491 6.500 C 392.491 6.500,392.481 6.505,392.233 7.099 M379.660 7.134 C 383.237 9.604,382.994 15.725,379.250 17.434 C 378.792 17.643,378.513 17.818,378.632 17.824 C 380.907 17.925,383.093 13.264,382.153 10.317 C 381.675 8.821,380.107 6.811,379.440 6.842 C 379.336 6.847,379.434 6.978,379.660 7.134 M364.289 8.013 C 363.623 8.364,362.662 9.536,362.673 9.983 C 362.677 10.130,362.824 9.961,363.001 9.608 C 363.633 8.341,364.462 7.833,365.899 7.833 C 367.194 7.833,368.488 8.536,368.504 9.248 C 368.512 9.643,369.083 10.158,369.333 9.998 C 369.550 9.860,369.546 9.838,369.308 9.836 C 369.156 9.834,368.831 9.491,368.586 9.073 C 367.762 7.666,365.843 7.193,364.289 8.013 M375.771 7.799 C 375.726 7.872,376.162 7.901,376.739 7.864 C 379.185 7.708,380.660 9.369,380.665 12.285 C 380.670 15.297,378.707 17.054,376.005 16.455 C 375.566 16.358,375.474 16.374,375.621 16.521 C 376.022 16.922,378.033 16.776,378.870 16.286 C 381.615 14.677,381.474 9.432,378.647 7.990 C 377.999 7.659,375.942 7.523,375.771 7.799 M374.790 8.354 C 374.117 8.856,373.513 9.992,373.420 10.930 L 373.339 11.750 373.562 10.795 C 373.757 9.964,374.423 8.678,374.667 8.664 C 374.712 8.661,374.938 8.513,375.167 8.333 C 375.724 7.897,375.376 7.916,374.790 8.354 M386.667 8.241 C 386.667 8.516,388.057 12.499,388.128 12.428 C 388.169 12.386,387.888 11.429,387.503 10.301 C 386.844 8.371,386.667 7.933,386.667 8.241 M391.778 8.278 C 391.717 8.339,391.671 8.545,391.677 8.736 C 391.687 9.055,391.701 9.051,391.847 8.684 C 392.011 8.276,391.977 8.079,391.778 8.278 M385.447 8.942 C 385.385 9.004,385.333 10.987,385.333 13.347 C 385.333 16.625,385.284 17.659,385.125 17.723 C 384.999 17.774,385.032 17.812,385.206 17.820 C 385.472 17.832,385.498 17.487,385.539 13.458 C 385.586 8.862,385.565 8.956,386.107 10.816 C 386.144 10.943,386.211 11.011,386.256 10.966 C 386.345 10.877,385.845 9.163,385.669 8.956 C 385.610 8.885,385.510 8.879,385.447 8.942 M392.803 9.167 C 392.505 9.609,392.232 10.500,392.394 10.500 C 392.447 10.500,392.561 10.256,392.647 9.958 C 392.756 9.582,392.808 10.672,392.818 13.532 C 392.831 17.116,392.945 18.331,393.219 17.808 C 393.454 17.360,393.042 8.811,392.803 9.167 M391.435 9.351 C 391.395 9.479,391.243 9.952,391.098 10.403 C 390.953 10.854,390.870 11.259,390.913 11.302 C 390.957 11.346,391.027 11.277,391.070 11.149 C 391.536 9.756,391.665 9.276,391.593 9.204 C 391.546 9.157,391.475 9.223,391.435 9.351 M360.938 10.375 C 360.804 10.878,360.828 13.510,360.970 13.869 C 361.032 14.026,361.083 13.220,361.083 12.077 C 361.083 9.815,361.085 9.829,360.938 10.375 M362.438 10.708 C 362.305 11.208,362.327 13.342,362.470 13.702 C 362.532 13.859,362.583 13.165,362.583 12.160 C 362.583 10.163,362.584 10.166,362.438 10.708 M392.083 11.000 C 392.021 11.197,392.007 11.396,392.053 11.442 C 392.099 11.488,392.187 11.364,392.250 11.167 C 392.313 10.970,392.326 10.771,392.280 10.725 C 392.235 10.679,392.146 10.803,392.083 11.000 M386.341 11.248 C 386.328 11.525,387.543 15.239,387.705 15.417 C 387.915 15.647,387.686 14.753,387.307 13.861 C 387.138 13.464,387.000 13.051,387.000 12.945 C 387.000 12.696,386.352 11.027,386.341 11.248 M390.186 13.103 C 389.898 13.991,389.693 14.749,389.731 14.786 C 389.768 14.824,390.039 14.132,390.333 13.250 C 390.627 12.368,390.832 11.610,390.788 11.566 C 390.745 11.522,390.474 12.214,390.186 13.103 M391.693 12.193 C 391.406 13.169,389.974 17.236,389.812 17.541 C 389.718 17.716,389.716 17.833,389.808 17.833 C 389.892 17.833,390.001 17.702,390.049 17.542 C 390.098 17.381,390.561 16.023,391.078 14.523 C 391.595 13.023,391.982 11.760,391.938 11.716 C 391.894 11.672,391.784 11.886,391.693 12.193 M388.167 12.796 C 388.167 12.905,388.816 15.013,389.103 15.833 C 389.208 16.135,389.667 15.609,389.667 15.186 C 389.667 14.995,389.613 15.010,389.437 15.251 C 389.228 15.536,389.166 15.432,388.755 14.116 C 388.352 12.822,388.167 12.406,388.167 12.796 M373.362 13.333 C 373.359 13.563,373.421 13.900,373.500 14.083 L 373.643 14.417 373.638 14.083 C 373.636 13.900,373.573 13.563,373.500 13.333 L 373.367 12.917 373.362 13.333 M371.848 13.455 C 371.791 14.890,374.160 17.864,375.331 17.825 C 375.470 17.820,375.249 17.655,374.840 17.457 C 373.462 16.789,372.562 15.612,372.070 13.833 C 371.951 13.401,371.857 13.241,371.848 13.455 M369.042 13.944 C 368.927 13.990,368.838 14.190,368.844 14.389 C 368.854 14.750,368.854 14.750,369.005 14.375 C 369.174 13.956,369.290 13.928,369.906 14.163 C 370.635 14.440,370.007 16.093,368.798 17.080 C 368.497 17.326,368.412 17.447,368.610 17.349 C 369.179 17.068,370.056 15.942,370.371 15.091 L 370.658 14.313 370.085 14.073 C 369.481 13.821,369.378 13.808,369.042 13.944 M362.671 14.342 C 362.663 14.803,363.540 15.961,364.152 16.298 C 365.809 17.208,367.666 16.799,368.532 15.333 L 368.877 14.750 368.445 15.250 C 368.207 15.525,368.009 15.790,368.006 15.839 C 367.984 16.168,366.824 16.563,365.879 16.563 C 364.585 16.563,363.649 15.988,363.059 14.833 C 362.848 14.421,362.674 14.200,362.671 14.342 M361.184 14.500 C 361.177 14.786,361.606 15.705,362.057 16.370 C 362.414 16.895,363.768 17.836,364.154 17.827 C 364.298 17.823,364.118 17.671,363.754 17.489 C 362.622 16.925,362.021 16.214,361.366 14.667 C 361.269 14.438,361.187 14.362,361.184 14.500 M373.926 14.917 C 374.269 15.520,375.006 16.333,375.210 16.333 C 375.291 16.333,375.106 16.090,374.799 15.792 C 374.492 15.494,374.106 15.063,373.941 14.833 C 373.646 14.423,373.646 14.425,373.926 14.917 M387.854 15.833 C 387.864 16.311,388.440 17.730,388.640 17.769 C 388.751 17.791,388.765 17.770,388.671 17.724 C 388.577 17.677,388.500 17.551,388.500 17.444 C 388.500 17.337,388.353 16.875,388.174 16.417 C 387.995 15.958,387.851 15.696,387.854 15.833 M357.417 16.251 C 357.806 16.387,358.833 16.422,358.833 16.300 C 358.833 16.227,358.477 16.173,358.042 16.180 C 357.606 16.187,357.325 16.219,357.417 16.251 M357.167 17.073 C 357.167 17.389,357.224 17.683,357.295 17.726 C 357.365 17.770,357.395 17.512,357.361 17.153 C 357.284 16.347,357.167 16.299,357.167 17.073 M364.917 18.012 C 365.100 18.084,365.587 18.143,366.000 18.143 C 366.412 18.143,366.900 18.084,367.083 18.012 C 367.286 17.931,366.863 17.880,366.000 17.880 C 365.137 17.880,364.714 17.931,364.917 18.012 M376.090 18.016 C 376.517 18.182,377.660 18.179,378.083 18.010 C 378.290 17.927,377.915 17.879,377.090 17.882 C 376.298 17.886,375.896 17.939,376.090 18.016 " stroke="none" fill="#8d642c" fill-rule="evenodd"></path></g></svg>