<?xml version="1.0" standalone="no"?>
<!DOCTYPE svg PUBLIC "-//W3C//DTD SVG 20010904//EN"
 "http://www.w3.org/TR/2001/REC-SVG-20010904/DTD/svg10.dtd">
<svg version="1.0" xmlns="http://www.w3.org/2000/svg"
 width="870.000000pt" height="215.000000pt" viewBox="0 0 870.000000 215.000000"
 preserveAspectRatio="xMidYMid meet">

<g transform="translate(0.000000,215.000000) scale(0.100000,-0.100000)"
fill="#000000" stroke="none">
<path d="M1692 1728 c-5 -7 -57 -132 -115 -278 -237 -595 -317 -799 -317 -804
0 -4 -9 -25 -19 -49 -21 -44 -101 -246 -101 -253 0 -7 185 -4 197 4 6 4 21 32
32 62 12 30 25 62 29 70 5 8 30 72 58 142 l49 127 255 1 255 0 52 -133 c29
-72 65 -163 81 -202 l29 -70 101 -3 c56 -1 102 -1 102 0 0 5 -60 161 -75 193
-7 17 -29 71 -48 120 -20 50 -61 155 -92 235 -49 126 -108 273 -147 367 -6 15
-12 30 -12 33 -5 21 -170 428 -178 438 -6 7 -34 12 -68 12 -34 0 -62 -5 -68
-12z m101 -380 c14 -40 50 -145 81 -232 31 -88 56 -165 56 -173 0 -10 -35 -13
-171 -13 l-171 0 5 23 c2 12 33 101 67 197 34 96 69 196 78 223 9 26 19 47 23
47 4 0 18 -33 32 -72z"/>
<path d="M334 1707 c-2 -7 -3 -316 -2 -687 l3 -675 98 -3 97 -3 0 233 0 233
142 -3 c228 -5 337 18 435 91 35 26 101 106 121 147 88 182 58 405 -76 548
-56 60 -115 94 -199 116 -81 21 -611 24 -619 3z m621 -209 c178 -93 177 -395
-2 -479 -44 -21 -63 -23 -233 -23 -102 -1 -186 2 -187 7 -2 4 -3 124 -3 268
l0 261 188 -4 c178 -4 189 -5 237 -30z"/>
<path d="M2419 1065 c-1 -360 -1 -662 -1 -670 0 -59 -5 -56 95 -53 l92 3 2
665 c1 366 -1 675 -3 688 -4 21 -9 22 -94 22 l-90 0 -1 -655z"/>
<path d="M3109 1688 c-12 -18 -34 -45 -47 -60 -14 -16 -22 -28 -17 -28 5 0 2
-6 -7 -12 -9 -7 -100 -125 -202 -262 -179 -239 -186 -250 -186 -295 0 -51 -2
-48 160 -241 47 -56 96 -116 110 -133 22 -29 196 -239 244 -294 18 -21 28 -23
138 -23 65 0 118 3 118 8 -1 4 -28 39 -61 77 -100 115 -299 353 -373 444 -38
47 -85 103 -104 123 -22 24 -32 42 -28 53 3 9 37 55 76 103 100 125 333 430
346 453 6 11 22 32 36 47 13 15 32 37 42 50 l19 22 -121 0 -121 0 -22 -32z"/>
<path d="M3440 1030 l0 -690 418 2 417 3 3 74 c2 40 1 84 -2 97 l-7 25 -317
-1 -317 -1 0 198 0 198 313 3 312 2 0 95 0 95 -312 2 -313 3 0 195 0 195 318
3 317 2 0 95 0 95 -415 0 -415 0 0 -690z"/>
<path d="M4360 1625 l0 -95 210 0 210 0 0 -595 0 -595 95 0 95 0 0 595 0 595
210 0 210 0 0 95 0 95 -515 0 -515 0 0 -95z"/>
</g>
</svg>
