<?xml version="1.0" encoding="UTF-8"?>
<!DOCTYPE svg PUBLIC "-//W3C//DTD SVG 1.1//EN" "http://www.w3.org/Graphics/SVG/1.1/DTD/svg11.dtd">
<!-- Creator: CorelDRAW X7 -->
<svg xmlns="http://www.w3.org/2000/svg" xml:space="preserve" width="210mm" height="297mm" version="1.1" style="shape-rendering:geometricPrecision; text-rendering:geometricPrecision; image-rendering:optimizeQuality; fill-rule:evenodd; clip-rule:evenodd"
viewBox="0 0 21000 29700"
 xmlns:xlink="http://www.w3.org/1999/xlink">
 <defs>
  <style type="text/css">
   <![CDATA[
    .fil1 {fill:none}
    .fil4 {fill:#332C2B}
    .fil2 {fill:#F08519}
    .fil0 {fill:#299DD2}
    .fil3 {fill:#332C2B;fill-rule:nonzero}
    .fil5 {fill:#F08519;fill-rule:nonzero}
   ]]>
  </style>
 </defs>
 <g id="Layer_x0020_1">
  <metadata id="CorelCorpID_0Corel-Layer"/>
  <g id="_1500551398224">
   <g>
    <path class="fil0" d="M-21256 3456c-469,380 -1075,471 -1620,196 -1119,-564 -1050,-2196 115,-2641 270,-103 630,-129 904,-26l85 39c-235,-40 -381,-71 -623,-34 -1214,184 -1571,1745 -575,2419 501,340 1127,286 1587,-99 41,-35 102,-31 137,10 35,40 30,101 -10,136z"/>
   </g>
   <path class="fil1" d="M-21319 3383c-580,501 -1455,438 -1956,-142 -502,-579 -438,-1455 141,-1956 375,-324 894,-423 1362,-261"/>
   <g>
    <path class="fil0" d="M-21481 3047c-226,192 -464,286 -765,247 -865,-113 -1108,-1254 -368,-1698 301,-181 698,-170 978,48 71,56 65,57 120,128l-72 -50c-234,-160 -481,-226 -759,-143 -760,227 -767,1295 -25,1522 287,88 546,9 765,-185 37,-35 95,-34 129,3 35,36 34,94 -3,128z"/>
   </g>
   <path class="fil1" d="M-21544 2982c-341,326 -883,313 -1209,-28 -326,-342 -314,-884 28,-1210 342,-326 883,-314 1209,28"/>
   <g>
    <path class="fil2" d="M-22004 1112c-522,-71 -1017,171 -1256,661 -440,902 337,1924 1283,1684 178,-45 353,-134 477,-276 -54,31 -105,65 -158,94 -813,444 -1744,-233 -1577,-1133 108,-582 632,-943 1201,-854 47,8 93,-25 101,-73 8,-49 -23,-95 -71,-103z"/>
   </g>
   <path class="fil1" d="M-22019 1200c-602,-104 -1177,313 -1283,931 -106,618 296,1202 898,1306 322,56 653,-38 904,-256"/>
  </g>
  <path class="fil3" d="M-18417 1801l0 961 241 0 0 -845c0,-78 -38,-116 -116,-116l-125 0z"/>
  <path class="fil3" d="M-19451 1801l-123 0c-80,0 -118,40 -117,120l0 506c0,107 -54,160 -163,160 -109,0 -163,-53 -163,-160l0 -626 -242 0 0 577c0,162 42,267 125,320 84,54 173,82 273,82 103,0 198,-26 283,-75 85,-52 127,-161 127,-327l0 -577z"/>
  <path class="fil3" d="M-20511 1527l-126 0 0 1235 242 0 0 -1117c0,-64 -53,-118 -116,-118z"/>
  <path class="fil3" d="M-21191 1769c-290,0 -436,165 -436,499 0,331 146,498 436,498 291,0 438,-167 438,-498 0,-334 -147,-499 -438,-499zm18 212c123,0 185,93 185,280 -2,190 -63,289 -187,289 -123,0 -187,-95 -189,-282 0,-191 64,-287 191,-287z"/>
  <path class="fil3" d="M-22574 2467c4,100 41,176 108,227 66,57 167,86 302,86 254,0 439,-88 439,-324 0,-65 -21,-123 -67,-170 -53,-49 -160,-91 -323,-124 -125,-23 -187,-62 -187,-111 0,-49 47,-74 141,-74 80,0 129,24 146,65 14,38 51,58 107,60l152 0c-5,-100 -43,-178 -114,-234 -73,-55 -171,-82 -294,-82 -220,4 -383,102 -383,309 1,151 110,245 323,283 165,29 249,69 249,118 0,62 -51,91 -153,91 -111,0 -185,-32 -198,-124 0,-4 1,-7 1,-11 0,-65 -56,-118 -125,-118 -69,0 -125,53 -125,118 0,5 0,10 1,15z"/>
  <path class="fil3" d="M-19367 2463c4,100 40,177 108,227 66,57 167,86 302,86 254,0 439,-87 439,-323 0,-66 -22,-124 -67,-171 -53,-49 -160,-91 -323,-124 -126,-23 -187,-61 -187,-110 0,-49 47,-75 141,-75 80,0 129,24 146,65 14,39 50,59 107,60l152 0c-5,-99 -43,-178 -114,-234 -73,-54 -171,-82 -294,-82 -220,4 -384,102 -384,309 2,151 111,245 324,283 165,30 249,69 249,119 0,61 -51,90 -153,90 -111,0 -185,-32 -198,-124 0,-3 0,-7 0,-11 0,-65 -55,-118 -124,-118 -69,0 -125,53 -125,118 0,5 0,10 1,15z"/>
  <path class="fil4" d="M-20089 1140l1768 0c87,0 159,72 159,160l0 161 1 0 0 260 -159 0 0 0 -1 0 -1768 0c-87,0 -159,-72 -159,-160l0 -261c0,-88 72,-160 159,-160z"/>
  <path class="fil5" d="M-19940 1268c27,0 51,6 73,19 22,12 39,29 51,51 13,22 19,46 19,73 0,27 -6,51 -18,73 -12,21 -29,38 -50,51 -21,12 -45,19 -71,19 -22,0 -42,-5 -61,-15 -18,-9 -33,-22 -45,-38l0 150c0,6 -2,11 -6,14 -4,4 -8,6 -14,6 -6,0 -11,-2 -14,-6 -4,-3 -6,-8 -6,-14l0 -115c0,-1 0,-2 0,-4l0 -121c0,-27 6,-51 18,-73 13,-22 30,-39 52,-51 21,-13 46,-19 72,-19zm0 250c20,0 38,-5 53,-14 16,-9 29,-22 38,-38 9,-17 14,-35 14,-55 0,-20 -5,-38 -14,-55 -9,-16 -22,-29 -38,-38 -15,-10 -33,-14 -53,-14 -19,0 -37,4 -53,14 -15,9 -28,22 -37,38 -9,17 -13,35 -13,55 0,6 0,10 0,13 1,0 1,1 1,2 3,27 14,49 33,66 19,17 42,26 69,26zm347 -251c15,0 26,2 34,6 9,4 13,9 13,16 0,2 0,3 -1,4 -1,5 -3,8 -6,10 -3,2 -7,3 -12,3 -3,0 -8,-1 -16,-1 -3,-1 -7,-1 -12,-1 -26,0 -47,7 -63,21 -16,13 -25,31 -25,53l0 154c0,6 -1,10 -5,14 -3,3 -8,5 -14,5 -6,0 -11,-2 -14,-5 -4,-4 -6,-8 -6,-14l0 -242c0,-6 2,-11 6,-15 3,-3 8,-5 14,-5 6,0 11,2 14,5 4,4 5,9 5,15l0 22c10,-14 23,-25 38,-33 16,-8 32,-12 50,-12zm210 287c-27,0 -52,-7 -74,-19 -21,-12 -38,-29 -51,-51 -12,-22 -18,-46 -18,-73 0,-27 6,-52 18,-73 13,-22 30,-39 51,-52 22,-12 47,-18 74,-18 27,0 51,6 72,18 22,13 39,30 51,52 13,21 19,46 19,73 0,27 -6,51 -18,73 -13,22 -30,39 -51,51 -22,12 -46,19 -73,19zm0 -36c19,0 37,-5 53,-14 16,-9 28,-22 37,-38 9,-17 13,-35 13,-55 0,-21 -4,-39 -13,-55 -9,-16 -21,-29 -37,-38 -16,-10 -34,-14 -53,-14 -20,0 -38,4 -54,14 -15,9 -28,22 -37,38 -9,16 -14,34 -14,55 0,20 5,38 14,55 9,16 22,29 37,38 16,9 34,14 54,14zm145 153c-6,0 -11,-2 -15,-6 -3,-3 -5,-8 -5,-14 0,-6 2,-11 5,-14 4,-4 9,-6 15,-6 23,0 43,-7 58,-23 15,-15 22,-34 22,-57l0 -261c0,-5 2,-10 6,-14 3,-4 8,-6 14,-6 6,0 10,2 14,6 4,4 6,9 6,14l0 261c0,23 -5,44 -16,62 -10,18 -24,32 -42,43 -18,10 -39,15 -62,15zm326 -403c25,0 47,6 67,17 19,12 34,29 45,49 11,21 16,45 16,72 0,5 -1,10 -5,13 -3,3 -8,5 -13,5l-207 0c2,28 13,51 32,68 20,17 44,26 72,26 13,0 25,-2 38,-6 12,-5 22,-10 30,-16 4,-4 9,-6 13,-6 4,0 8,2 12,5 4,4 6,8 6,13 0,5 -2,9 -5,12 -12,10 -26,18 -43,24 -18,6 -35,10 -51,10 -27,0 -52,-6 -73,-19 -22,-12 -38,-29 -51,-50 -12,-22 -18,-47 -18,-74 0,-28 6,-52 17,-74 12,-22 28,-39 48,-51 20,-12 44,-18 70,-18zm0 35c-26,0 -48,8 -65,24 -17,16 -28,38 -31,64l187 0c-2,-26 -12,-48 -28,-64 -17,-16 -38,-24 -63,-24zm310 251c-27,0 -51,-7 -72,-19 -21,-13 -38,-30 -50,-51 -12,-22 -18,-46 -18,-73 0,-27 6,-52 17,-74 12,-21 28,-38 49,-51 20,-12 43,-18 69,-18 43,0 77,16 104,49 3,3 4,7 4,11 0,5 -3,10 -9,14 -3,2 -6,3 -9,3 -5,0 -10,-2 -15,-7 -10,-12 -22,-20 -34,-26 -12,-5 -26,-8 -41,-8 -19,0 -36,4 -50,13 -15,9 -26,22 -34,39 -9,16 -13,34 -13,55 0,20 5,38 13,55 9,16 21,29 36,38 16,9 33,14 53,14 27,0 49,-8 66,-22 5,-4 9,-6 14,-6 4,0 8,1 11,4 5,4 8,9 8,14 0,4 -2,8 -6,11 -24,23 -55,35 -93,35zm304 -42c6,0 10,1 14,5 3,4 5,9 5,15 0,5 -2,10 -6,13 -4,4 -10,6 -16,6l-11 0c-18,0 -34,-4 -48,-13 -15,-9 -26,-21 -34,-35 -8,-15 -12,-32 -12,-51l0 -137 -33 0c-6,0 -10,-2 -13,-5 -4,-3 -5,-7 -5,-12 0,-5 1,-9 5,-13 3,-3 7,-4 13,-4l33 0 0 -80c0,-6 2,-11 5,-14 4,-4 9,-6 15,-6 5,0 10,2 14,6 4,3 6,8 6,14l0 80 58 0c5,0 9,1 13,4 3,4 5,8 5,13 0,5 -2,9 -5,12 -4,3 -8,5 -13,5l-58 0 0 137c0,17 5,32 15,43 10,11 23,17 39,17l14 0z"/>
 </g>
</svg>
