<?xml version="1.0" standalone="no"?>
<!DOCTYPE svg PUBLIC "-//W3C//DTD SVG 20010904//EN"
 "http://www.w3.org/TR/2001/REC-SVG-20010904/DTD/svg10.dtd">
<svg version="1.0" xmlns="http://www.w3.org/2000/svg"
 width="814.000000pt" height="234.000000pt" viewBox="0 0 814.000000 234.000000"
 preserveAspectRatio="xMidYMid meet">

<g transform="translate(0.000000,234.000000) scale(0.100000,-0.100000)"
fill="#000000" stroke="none">
<path d="M194 1747 l-29 -25 0 -512 0 -512 28 -24 c39 -33 81 -31 118 5 l29
29 0 185 0 185 138 4 c122 3 143 7 194 30 75 35 138 94 173 165 26 51 29 69
29 148 0 78 -3 98 -27 146 -32 66 -108 142 -175 172 -42 20 -67 22 -248 25
l-201 3 -29 -24z m426 -179 c58 -40 75 -72 75 -141 0 -74 -25 -116 -85 -147
-32 -17 -59 -20 -155 -20 l-115 0 0 165 0 165 124 0 c111 0 126 -2 156 -22z"/>
<path d="M1323 1760 c-12 -5 -28 -19 -36 -32 -22 -35 -367 -961 -367 -986 0
-77 91 -122 144 -69 12 12 40 71 62 130 l39 107 196 0 196 0 43 -115 c26 -71
51 -121 63 -130 55 -38 136 3 137 69 0 38 -357 990 -379 1010 -22 20 -70 28
-98 16z m103 -502 l61 -163 -64 -3 c-34 -2 -92 -2 -126 0 l-64 3 61 163 c33
89 63 162 66 162 3 0 33 -73 66 -162z"/>
<path d="M3183 1746 l-28 -24 0 -512 0 -512 28 -24 28 -24 290 0 291 0 29 29
c31 31 35 53 19 95 -19 50 -49 56 -290 56 l-220 0 0 145 0 145 201 0 201 0 30
30 c26 27 30 36 25 67 -4 20 -16 46 -27 57 -19 20 -34 21 -225 24 l-205 3 0
145 0 144 220 0 c241 0 271 6 290 56 16 42 12 64 -19 95 l-29 29 -291 0 -290
0 -28 -24z"/>
<path d="M4039 1741 c-36 -37 -38 -79 -5 -118 24 -28 24 -28 170 -31 l146 -3
0 -441 0 -440 29 -29 c52 -51 121 -32 141 39 6 23 10 198 10 455 l0 417 130 0
c147 0 181 10 198 58 14 40 4 79 -26 102 -24 19 -41 20 -394 20 l-370 0 -29
-29z"/>
<path d="M2053 1745 c-12 -9 -27 -32 -33 -53 -14 -50 -14 -924 0 -974 20 -71
89 -90 141 -39 l29 29 0 129 0 128 83 83 84 83 174 -227 c96 -126 186 -235
200 -243 53 -30 119 13 119 77 0 33 -22 65 -184 277 l-184 240 178 180 c99 99
184 193 189 208 13 34 -7 90 -37 106 -56 30 -62 25 -349 -261 l-273 -273 0
244 0 243 -29 29 c-33 33 -74 38 -108 14z"/>
</g>
</svg>
