<?xml version="1.0" standalone="no"?>
<!DOCTYPE svg PUBLIC "-//W3C//DTD SVG 20010904//EN"
 "http://www.w3.org/TR/2001/REC-SVG-20010904/DTD/svg10.dtd">
<svg version="1.0" xmlns="http://www.w3.org/2000/svg"
 width="1000.000000pt" height="175.000000pt" viewBox="0 0 1000.000000 175.000000"
 preserveAspectRatio="xMidYMid meet">

<g transform="translate(0.000000,175.000000) scale(0.100000,-0.100000)"
fill="#000000" stroke="none">
<path d="M6848 1551 l-33 -29 0 -657 0 -657 33 -29 32 -29 1396 0 c1008 0
1401 3 1417 11 12 6 30 21 39 33 16 19 18 70 18 671 0 601 -2 652 -18 671 -9
12 -27 27 -39 33 -16 8 -409 11 -1417 11 l-1396 0 -32 -29z m253 -140 l29 -29
0 -436 0 -436 230 0 231 0 24 -25 c17 -16 25 -35 25 -60 0 -25 -8 -44 -25 -60
l-24 -25 -295 0 -294 0 -26 31 -26 31 0 490 0 490 29 29 c20 20 39 29 61 29
22 0 41 -9 61 -29z m1400 0 c32 -33 36 -58 14 -100 -23 -45 -58 -51 -286 -51
l-209 0 0 -139 0 -140 201 -3 201 -3 24 -28 c33 -39 31 -81 -5 -118 l-29 -29
-196 0 -196 0 0 -145 0 -145 224 0 c123 0 232 -3 241 -6 19 -8 45 -55 45 -83
0 -11 -12 -33 -26 -50 l-26 -31 -288 0 c-159 0 -296 3 -305 6 -43 17 -45 37
-45 544 0 493 1 508 39 537 12 9 93 12 304 13 l289 0 29 -29z m414 -6 l25 -24
0 -241 c0 -132 1 -240 3 -240 1 0 122 119 267 265 280 280 283 282 343 254 14
-6 30 -22 36 -36 27 -58 20 -67 -173 -262 l-184 -186 169 -220 c94 -121 176
-232 184 -247 21 -39 19 -62 -11 -97 -27 -33 -67 -41 -104 -21 -10 5 -95 111
-190 236 l-173 226 -83 -83 -84 -84 0 -128 c0 -122 -1 -129 -25 -152 -24 -25
-65 -32 -100 -19 -43 17 -45 37 -45 539 0 488 1 503 39 532 27 21 79 15 106
-12z"/>
<path d="M2090 1412 l-30 -30 0 -486 c0 -334 3 -493 11 -509 23 -50 91 -61
136 -23 l28 24 3 185 4 184 131 5 c148 5 207 24 281 89 108 94 144 255 87 385
-28 63 -112 147 -174 175 -48 22 -68 24 -250 27 l-197 4 -30 -30z m419 -170
c75 -39 105 -153 59 -222 -46 -67 -66 -75 -203 -78 l-124 -4 -3 162 c-2 89 -2
162 -1 163 1 1 54 1 118 0 92 -2 125 -6 154 -21z"/>
<path d="M3195 1422 c-27 -17 -47 -63 -208 -494 -97 -262 -177 -490 -177 -507
0 -89 125 -110 163 -27 8 17 29 70 47 119 l33 87 191 -2 190 -3 41 -109 c44
-116 68 -146 117 -146 35 0 88 48 88 80 0 32 -357 972 -377 992 -28 27 -73 32
-108 10z m52 -650 c-66 -1 -122 0 -125 2 -4 4 35 113 108 301 11 29 14 24 75
-135 l62 -165 -120 -3z"/>
<path d="M5039 1411 l-29 -29 0 -487 c0 -498 1 -513 39 -542 12 -9 93 -12 304
-13 l289 0 29 29 c36 36 37 70 3 110 l-25 31 -230 2 -230 3 -2 143 -2 142 196
0 c182 0 198 2 222 20 53 42 39 127 -24 149 -19 6 -106 11 -213 11 l-181 0 2
140 2 140 226 3 227 2 30 34 c24 27 29 39 24 65 -3 17 -17 41 -32 54 -25 22
-29 22 -310 22 l-286 0 -29 -29z"/>
<path d="M5885 1415 c-33 -32 -33 -84 -1 -122 l24 -28 141 0 141 0 0 -433 0
-434 29 -29 c35 -34 77 -38 112 -10 l24 19 5 442 5 442 118 -1 c137 -2 181 8
202 49 22 43 18 68 -14 101 l-29 29 -367 0 -366 0 -24 -25z"/>
<path d="M3916 1405 l-26 -24 0 -496 0 -496 25 -24 c33 -34 84 -34 119 1 25
26 26 30 26 152 l0 126 78 80 c42 45 80 82 83 84 3 1 81 -97 174 -218 93 -122
178 -228 189 -236 61 -43 135 10 126 91 -1 11 -79 121 -174 245 -94 124 -175
230 -179 236 -4 7 64 82 168 184 112 111 178 185 185 205 19 59 -22 115 -84
115 -26 0 -67 -37 -298 -267 l-268 -268 0 239 0 238 -29 29 c-37 37 -78 38
-115 4z"/>
<path d="M263 1403 c-23 -9 -15 -52 10 -58 12 -3 306 -4 654 -3 665 3 673 4
647 46 -10 16 -58 17 -655 19 -354 1 -650 -1 -656 -4z"/>
<path d="M768 1263 c145 -2 379 -2 520 0 141 1 23 2 -263 2 -286 0 -402 -1
-257 -2z"/>
<path d="M75 1080 c-4 -7 255 -10 769 -10 511 0 776 3 776 10 0 14 -1536 14
-1545 0z"/>
<path d="M445 900 c-3 -11 -3 -24 0 -30 4 -7 259 -10 744 -10 638 0 740 2 751
15 10 11 9 18 -3 30 -14 13 -105 15 -751 15 -725 0 -735 0 -741 -20z"/>
<path d="M446 724 c-17 -45 -21 -44 668 -42 l651 3 0 25 0 25 -656 3 c-600 2
-657 1 -663 -14z"/>
<path d="M185 590 c-3 -5 -3 -14 0 -20 4 -6 230 -10 646 -10 632 0 639 0 639
20 0 20 -7 20 -639 20 -416 0 -642 -4 -646 -10z"/>
<path d="M943 438 c3 -10 55 -13 217 -13 162 0 214 3 218 13 3 9 -45 12 -218
12 -173 0 -221 -3 -217 -12z"/>
</g>
</svg>
