<svg id="svg" version="1.1" xmlns="http://www.w3.org/2000/svg" xmlns:xlink="http://www.w3.org/1999/xlink" width="400" height="59.58620689655172" viewBox="0, 0, 400,59.58620689655172"><g id="svgg"><path id="path0" d="M210.333 31.167 L 210.333 59.500 224.417 59.500 L 238.500 59.500 238.500 57.924 L 238.500 56.348 237.958 56.251 C 237.660 56.198,232.129 56.175,225.667 56.202 L 213.917 56.250 213.959 29.878 C 214.009 -0.707,214.281 2.833,211.880 2.833 L 210.333 2.833 210.333 31.167 M245.333 31.166 L 245.333 59.500 258.750 59.500 L 272.167 59.500 272.167 57.936 C 272.167 56.455,272.147 56.367,271.792 56.272 C 271.585 56.216,266.373 56.170,260.208 56.169 L 249.000 56.167 249.000 44.667 L 249.000 33.167 258.333 33.167 L 267.667 33.167 267.667 31.417 L 267.667 29.667 258.333 29.667 L 249.000 29.667 249.000 18.083 L 249.000 6.500 260.589 6.500 L 272.178 6.500 272.131 4.708 L 272.083 2.917 258.708 2.874 L 245.333 2.831 245.333 31.166 M282.333 31.167 L 282.333 59.500 284.167 59.500 L 286.000 59.500 286.000 50.089 L 286.000 40.678 286.500 40.167 C 286.775 39.885,287.000 39.617,287.000 39.570 C 287.000 39.523,287.169 39.312,287.375 39.101 C 288.012 38.450,288.667 37.674,288.667 37.572 C 288.667 37.518,288.967 37.177,289.333 36.814 C 289.700 36.451,290.000 36.077,290.000 35.984 C 290.000 35.890,290.061 35.852,290.136 35.898 C 290.211 35.944,290.412 35.745,290.583 35.456 C 290.754 35.167,291.086 34.737,291.322 34.502 C 291.557 34.267,291.899 33.870,292.081 33.621 C 292.545 32.985,292.967 33.108,293.237 33.958 C 293.299 34.155,293.493 34.361,293.667 34.417 C 293.841 34.472,294.034 34.679,294.097 34.878 C 294.160 35.076,294.464 35.483,294.773 35.783 C 295.081 36.082,295.333 36.407,295.333 36.505 C 295.333 36.603,295.502 36.848,295.708 37.050 C 295.915 37.251,296.343 37.754,296.660 38.167 C 296.978 38.579,297.297 38.942,297.369 38.972 C 297.441 39.003,297.500 39.102,297.500 39.193 C 297.500 39.284,297.725 39.584,298.000 39.859 C 298.275 40.134,298.500 40.417,298.500 40.488 C 298.500 40.559,298.725 40.853,299.000 41.140 C 299.275 41.428,299.500 41.734,299.500 41.820 C 299.500 41.906,299.674 42.113,299.886 42.280 C 300.098 42.447,300.414 42.808,300.589 43.083 C 300.763 43.358,301.077 43.749,301.286 43.950 C 301.495 44.152,301.667 44.362,301.667 44.416 C 301.667 44.525,301.898 44.818,302.458 45.417 C 302.665 45.638,302.833 45.870,302.833 45.933 C 302.833 45.996,303.058 46.262,303.333 46.525 C 303.608 46.788,303.833 47.082,303.833 47.179 C 303.833 47.276,304.096 47.603,304.417 47.906 C 304.737 48.208,305.000 48.522,305.001 48.603 C 305.001 48.684,305.245 49.028,305.542 49.369 C 305.840 49.709,306.233 50.184,306.417 50.424 C 306.600 50.664,306.844 50.961,306.958 51.085 C 307.073 51.208,307.167 51.362,307.167 51.427 C 307.167 51.491,307.420 51.783,307.729 52.074 C 308.038 52.366,308.342 52.765,308.404 52.960 C 308.466 53.156,308.659 53.361,308.833 53.417 C 309.007 53.472,309.194 53.655,309.247 53.825 C 309.301 53.994,309.605 54.408,309.922 54.745 C 310.240 55.081,310.500 55.469,310.500 55.605 C 310.500 55.741,310.575 55.807,310.667 55.750 C 310.758 55.693,310.833 55.723,310.833 55.816 C 310.833 55.909,311.021 56.172,311.250 56.402 C 311.479 56.631,311.667 56.883,311.667 56.961 C 311.667 57.040,311.892 57.320,312.167 57.583 C 312.442 57.847,312.667 58.135,312.667 58.223 C 312.667 58.311,312.925 58.634,313.242 58.941 L 313.817 59.500 315.992 59.500 C 318.437 59.500,318.680 59.346,317.667 58.443 C 317.392 58.198,317.167 57.917,317.167 57.818 C 317.167 57.720,316.923 57.396,316.625 57.099 C 316.327 56.802,316.064 56.469,316.040 56.359 C 316.017 56.248,315.735 55.904,315.415 55.593 C 315.095 55.282,314.833 54.959,314.833 54.875 C 314.833 54.791,314.608 54.521,314.333 54.276 C 314.058 54.031,313.833 53.751,313.833 53.654 C 313.833 53.557,313.571 53.230,313.250 52.927 C 312.929 52.625,312.667 52.325,312.667 52.260 C 312.667 52.196,312.573 52.042,312.458 51.918 C 312.344 51.795,312.100 51.497,311.917 51.257 C 311.733 51.017,311.340 50.542,311.042 50.202 C 310.745 49.862,310.501 49.517,310.501 49.436 C 310.500 49.356,310.237 49.042,309.917 48.739 C 309.596 48.437,309.333 48.115,309.333 48.026 C 309.333 47.936,309.090 47.601,308.792 47.283 C 308.040 46.479,307.215 45.495,306.877 45.000 C 306.721 44.771,306.441 44.414,306.255 44.206 C 306.069 43.999,305.729 43.600,305.500 43.320 C 305.271 43.040,304.990 42.709,304.875 42.584 C 304.760 42.459,304.667 42.309,304.667 42.249 C 304.667 42.190,304.442 41.916,304.167 41.641 C 303.892 41.366,303.667 41.083,303.667 41.013 C 303.667 40.942,303.404 40.614,303.083 40.284 C 302.762 39.953,302.500 39.604,302.500 39.508 C 302.500 39.412,302.430 39.333,302.345 39.333 C 302.259 39.333,302.143 39.187,302.086 39.009 C 302.029 38.830,301.837 38.637,301.658 38.581 C 301.479 38.524,301.333 38.359,301.333 38.215 C 301.333 38.071,301.108 37.738,300.833 37.475 C 300.558 37.212,300.333 36.934,300.333 36.857 C 300.333 36.781,300.071 36.448,299.750 36.117 C 299.429 35.787,299.167 35.464,299.167 35.400 C 299.167 35.336,298.904 35.029,298.583 34.717 C 298.262 34.406,298.000 34.080,298.000 33.993 C 298.000 33.907,297.775 33.621,297.500 33.358 C 297.225 33.096,297.000 32.808,297.000 32.720 C 297.000 32.632,296.831 32.402,296.625 32.208 C 296.095 31.711,295.833 31.373,295.833 31.186 C 295.833 31.097,295.641 30.873,295.407 30.689 L 294.980 30.353 295.422 29.857 C 295.665 29.584,295.839 29.336,295.809 29.305 C 295.778 29.275,296.212 28.796,296.772 28.241 C 297.332 27.686,297.842 27.067,297.906 26.866 C 297.970 26.665,298.087 26.500,298.166 26.500 C 298.343 26.500,298.626 26.221,299.167 25.513 C 299.396 25.212,299.931 24.612,300.355 24.178 C 300.779 23.744,301.178 23.227,301.241 23.028 C 301.304 22.829,301.420 22.667,301.499 22.667 C 301.654 22.667,301.847 22.476,302.500 21.682 C 302.729 21.403,303.217 20.837,303.583 20.425 C 303.950 20.012,304.438 19.443,304.667 19.160 C 304.896 18.878,305.431 18.288,305.855 17.851 C 306.279 17.414,306.677 16.897,306.738 16.703 C 306.800 16.509,306.997 16.304,307.175 16.247 C 307.354 16.191,307.500 16.077,307.500 15.996 C 307.500 15.914,307.706 15.656,307.958 15.422 C 308.210 15.188,308.417 14.941,308.417 14.873 C 308.417 14.806,308.811 14.342,309.292 13.843 C 309.773 13.344,310.167 12.877,310.167 12.804 C 310.167 12.731,310.542 12.317,311.000 11.884 C 311.458 11.452,311.833 11.035,311.833 10.959 C 311.833 10.812,312.103 10.454,312.466 10.117 C 312.585 10.007,312.773 9.819,312.883 9.700 C 312.993 9.581,313.252 9.303,313.458 9.083 C 313.665 8.862,313.833 8.635,313.833 8.577 C 313.833 8.520,314.208 8.096,314.667 7.635 C 315.125 7.174,315.500 6.735,315.500 6.659 C 315.500 6.584,315.912 6.124,316.417 5.637 C 316.921 5.150,317.333 4.692,317.333 4.618 C 317.333 4.545,317.521 4.297,317.750 4.068 C 317.979 3.839,318.167 3.467,318.167 3.242 L 318.167 2.833 316.071 2.833 C 314.067 2.833,313.500 2.961,313.500 3.412 C 313.500 3.549,313.222 3.872,312.378 4.713 C 311.990 5.100,311.671 5.543,311.669 5.697 C 311.668 5.851,311.521 6.024,311.342 6.081 C 311.163 6.137,310.972 6.326,310.917 6.500 C 310.861 6.674,310.674 6.861,310.500 6.917 C 310.326 6.972,310.137 7.163,310.081 7.342 C 310.024 7.521,309.908 7.667,309.822 7.667 C 309.737 7.667,309.667 7.740,309.667 7.829 C 309.667 7.918,309.348 8.314,308.958 8.709 C 308.569 9.103,308.100 9.638,307.917 9.898 C 307.602 10.344,307.478 10.480,306.964 10.943 C 306.846 11.049,306.600 11.335,306.417 11.578 C 306.233 11.821,305.746 12.389,305.333 12.840 C 304.345 13.920,304.167 14.135,304.167 14.244 C 304.167 14.294,303.792 14.702,303.333 15.151 C 302.875 15.600,302.500 16.015,302.500 16.074 C 302.500 16.192,302.202 16.573,301.867 16.883 C 301.748 16.993,301.561 17.182,301.450 17.303 C 301.340 17.424,301.081 17.681,300.875 17.875 C 300.669 18.068,300.500 18.294,300.500 18.377 C 300.500 18.460,300.125 18.904,299.667 19.365 C 299.208 19.826,298.833 20.262,298.833 20.333 C 298.833 20.405,298.421 20.876,297.917 21.380 C 297.412 21.885,297.000 22.350,297.000 22.416 C 297.000 22.534,296.085 23.544,295.375 24.209 C 295.169 24.402,295.000 24.633,295.000 24.722 C 295.000 24.811,294.625 25.243,294.167 25.682 C 293.708 26.122,293.333 26.556,293.333 26.646 C 293.333 26.737,292.921 27.210,292.417 27.696 C 291.912 28.183,291.500 28.644,291.500 28.720 C 291.500 28.797,291.168 29.191,290.763 29.596 C 290.358 30.002,290.075 30.333,290.134 30.333 C 290.193 30.333,290.074 30.450,289.870 30.593 C 289.667 30.735,289.500 30.924,289.500 31.012 C 289.500 31.099,289.125 31.544,288.667 32.000 C 288.208 32.456,287.833 32.898,287.833 32.983 C 287.833 33.068,287.440 33.522,286.958 33.994 L 286.083 34.851 286.041 19.079 C 285.992 0.871,286.247 2.833,283.929 2.833 L 282.333 2.833 282.333 31.167 " stroke="none" fill="#fcfcfc" fill-rule="evenodd"></path><path id="path1" d="M342.885 12.843 C 338.518 13.412,334.872 18.911,335.577 23.864 C 336.026 27.015,336.330 28.500,336.528 28.500 C 336.604 28.500,336.667 28.624,336.667 28.776 C 336.667 29.197,337.740 31.011,338.377 31.667 C 339.013 32.320,339.796 33.000,339.913 33.000 C 339.956 33.000,340.424 33.206,340.954 33.457 C 342.086 33.995,345.956 34.146,346.932 33.691 C 347.199 33.567,347.679 33.342,347.999 33.191 C 349.705 32.388,351.099 30.574,351.888 28.133 L 352.141 27.350 351.253 27.091 C 350.013 26.731,349.891 26.754,349.768 27.375 C 348.757 32.502,341.897 33.672,339.201 29.177 C 337.420 26.208,337.460 20.306,339.281 17.380 C 341.663 13.553,348.464 14.110,349.281 18.199 C 349.419 18.887,349.722 19.071,350.355 18.851 C 350.645 18.750,351.059 18.667,351.275 18.667 C 351.822 18.667,351.789 18.145,351.159 16.845 C 349.648 13.724,346.778 12.336,342.885 12.843 M362.221 12.843 C 361.371 12.954,359.486 13.667,359.167 13.999 C 359.121 14.046,358.795 14.300,358.443 14.563 C 355.476 16.775,353.879 23.793,355.480 27.583 C 356.965 31.097,358.112 32.306,361.317 33.738 C 361.853 33.977,365.837 33.970,366.350 33.728 C 366.570 33.625,367.087 33.401,367.500 33.231 C 367.912 33.061,368.349 32.827,368.470 32.711 C 368.591 32.595,368.742 32.500,368.804 32.500 C 368.941 32.500,370.295 31.215,370.724 30.678 C 371.174 30.114,372.000 28.471,372.000 28.139 C 372.000 27.982,372.075 27.807,372.167 27.750 C 372.258 27.693,372.333 27.441,372.333 27.190 C 372.333 26.939,372.424 26.643,372.535 26.532 C 372.832 26.235,372.822 21.153,372.522 20.167 C 371.801 17.790,371.105 16.458,370.000 15.343 C 368.919 14.251,368.619 14.020,367.741 13.607 C 367.379 13.436,366.953 13.229,366.793 13.148 C 366.028 12.756,363.953 12.617,362.221 12.843 M376.333 23.411 L 376.333 33.833 377.333 33.833 L 378.333 33.833 378.350 25.292 C 378.359 20.594,378.417 16.569,378.479 16.347 L 378.592 15.944 378.879 16.383 C 379.037 16.624,379.167 16.891,379.167 16.975 C 379.167 17.156,379.644 18.771,379.839 19.250 C 379.913 19.433,380.100 20.033,380.254 20.583 C 380.408 21.133,380.590 21.733,380.660 21.917 C 380.730 22.100,380.918 22.700,381.079 23.250 C 381.240 23.800,381.434 24.400,381.510 24.583 C 381.585 24.767,381.699 25.177,381.761 25.495 C 381.824 25.812,381.935 26.187,382.007 26.328 C 382.080 26.468,382.265 27.033,382.419 27.583 C 382.573 28.133,382.834 28.996,382.999 29.500 C 383.163 30.004,383.539 31.185,383.833 32.125 L 384.368 33.833 385.324 33.833 L 386.280 33.833 386.492 33.125 C 386.609 32.735,386.765 32.267,386.838 32.083 C 386.912 31.900,387.208 30.962,387.497 30.000 C 387.786 29.037,388.092 28.120,388.178 27.961 C 388.263 27.801,388.333 27.525,388.333 27.345 C 388.333 27.166,388.398 26.979,388.478 26.930 C 388.558 26.881,388.672 26.536,388.731 26.163 C 388.791 25.790,388.906 25.357,388.987 25.201 C 389.067 25.045,389.264 24.467,389.423 23.917 C 389.583 23.367,389.773 22.767,389.846 22.583 C 389.919 22.400,390.289 21.237,390.667 20.000 C 391.046 18.762,391.425 17.620,391.511 17.461 C 391.597 17.301,391.667 17.020,391.667 16.836 C 391.667 16.648,391.777 16.500,391.917 16.500 C 392.136 16.500,392.167 17.574,392.167 25.167 L 392.167 33.833 393.250 33.833 L 394.333 33.833 394.333 23.417 L 394.333 13.000 392.854 13.000 C 391.165 13.000,391.180 12.990,390.761 14.417 C 390.299 15.989,390.106 16.570,389.987 16.750 C 389.926 16.842,389.824 17.207,389.760 17.562 C 389.696 17.917,389.580 18.330,389.502 18.479 C 389.425 18.628,389.237 19.200,389.084 19.750 C 388.932 20.300,388.746 20.900,388.671 21.083 C 388.595 21.267,388.408 21.867,388.254 22.417 C 388.100 22.967,387.914 23.567,387.840 23.750 C 387.766 23.933,387.574 24.533,387.413 25.083 C 387.252 25.633,387.066 26.233,387.000 26.417 C 386.934 26.600,386.748 27.200,386.587 27.750 C 386.426 28.300,386.237 28.900,386.166 29.083 C 386.095 29.267,385.950 29.735,385.845 30.125 C 385.543 31.241,385.298 31.008,384.747 29.083 C 384.590 28.533,384.283 27.523,384.064 26.838 C 383.845 26.153,383.667 25.496,383.667 25.377 C 383.667 25.259,383.601 25.032,383.521 24.873 C 383.440 24.714,383.244 24.133,383.084 23.583 C 382.925 23.033,382.733 22.396,382.659 22.167 C 382.380 21.306,381.696 19.048,381.423 18.083 C 381.267 17.533,381.080 16.968,381.007 16.828 C 380.935 16.687,380.824 16.312,380.761 15.995 C 380.699 15.677,380.585 15.267,380.508 15.083 C 380.431 14.900,380.258 14.375,380.123 13.917 L 379.877 13.083 378.105 13.036 L 376.333 12.989 376.333 23.411 M366.667 15.345 C 368.169 16.156,370.000 18.514,370.000 19.638 C 370.000 19.800,370.066 20.005,370.146 20.092 C 370.665 20.655,370.662 26.165,370.143 26.742 C 370.064 26.829,369.997 27.054,369.993 27.242 C 369.983 27.798,369.057 29.359,368.252 30.181 C 365.821 32.659,361.838 32.622,359.400 30.098 C 355.941 26.518,356.458 18.552,360.326 15.823 C 361.915 14.702,365.038 14.467,366.667 15.345 M329.167 32.500 L 329.167 33.833 330.333 33.833 L 331.500 33.833 331.500 32.500 L 331.500 31.167 330.333 31.167 L 329.167 31.167 329.167 32.500 " stroke="none" fill="#e39c2c" fill-rule="evenodd"></path><path id="path2" d="M331.369 0.163 C 330.792 0.229,330.155 0.364,329.952 0.462 C 329.749 0.560,329.265 0.774,328.875 0.936 C 328.485 1.098,328.167 1.291,328.167 1.365 C 328.167 1.439,328.089 1.500,327.993 1.500 C 327.777 1.500,327.396 1.809,326.716 2.536 C 326.606 2.654,326.419 2.840,326.300 2.950 C 325.912 3.309,325.667 3.649,325.667 3.826 C 325.667 3.922,325.606 4.000,325.532 4.000 C 325.388 4.000,324.833 5.158,324.833 5.459 C 324.833 5.558,324.757 5.664,324.664 5.695 C 324.571 5.726,324.448 6.260,324.390 6.881 C 324.332 7.502,324.220 8.050,324.142 8.099 C 323.943 8.222,323.959 34.429,324.159 34.794 C 324.246 34.953,324.363 35.513,324.420 36.039 C 324.477 36.565,324.593 37.038,324.678 37.091 C 324.764 37.143,324.833 37.332,324.833 37.510 C 324.833 37.688,324.900 37.833,324.982 37.833 C 325.064 37.833,325.178 38.021,325.235 38.250 C 325.293 38.479,325.413 38.667,325.503 38.667 C 325.593 38.667,325.667 38.762,325.667 38.879 C 325.667 38.995,325.855 39.276,326.085 39.504 C 326.315 39.731,326.596 40.014,326.710 40.133 C 327.409 40.865,328.198 41.486,328.583 41.607 C 328.767 41.664,328.954 41.758,329.000 41.814 C 329.238 42.107,329.972 42.372,330.775 42.455 C 331.271 42.506,331.716 42.612,331.765 42.690 C 331.881 42.878,392.333 42.877,392.333 42.690 C 392.333 42.611,392.771 42.507,393.306 42.458 C 394.167 42.380,394.918 42.120,395.167 41.814 C 395.212 41.758,395.400 41.664,395.583 41.607 C 395.972 41.485,396.814 40.820,397.450 40.133 C 397.561 40.014,397.748 39.827,397.867 39.716 C 398.254 39.358,398.500 39.018,398.500 38.840 C 398.500 38.745,398.574 38.667,398.663 38.667 C 398.753 38.667,398.874 38.479,398.932 38.250 C 398.989 38.021,399.103 37.833,399.185 37.833 C 399.266 37.833,399.333 37.698,399.333 37.533 C 399.333 37.368,399.406 37.161,399.494 37.073 C 400.209 36.358,400.240 7.098,399.527 5.720 C 399.441 5.553,399.231 5.117,399.060 4.750 C 398.890 4.383,398.694 4.058,398.625 4.028 C 398.556 3.997,398.500 3.892,398.500 3.795 C 398.500 3.409,396.268 1.427,395.325 0.975 C 393.295 0.003,396.236 0.085,362.833 0.062 C 346.104 0.051,331.945 0.096,331.369 0.163 M53.667 3.750 C 53.667 3.887,53.601 4.000,53.521 4.000 C 53.441 4.000,53.328 4.300,53.269 4.667 C 53.211 5.033,53.089 5.333,52.998 5.333 C 52.907 5.333,52.833 5.521,52.833 5.750 C 52.833 5.979,52.767 6.167,52.685 6.167 C 52.604 6.167,52.487 6.435,52.425 6.763 C 52.364 7.090,52.177 7.602,52.010 7.899 C 51.843 8.196,51.654 8.677,51.590 8.968 C 51.527 9.258,51.405 9.539,51.321 9.591 C 51.236 9.644,51.167 9.832,51.167 10.010 C 51.167 10.188,51.098 10.333,51.015 10.333 C 50.931 10.333,50.812 10.633,50.750 11.000 C 50.688 11.367,50.569 11.667,50.485 11.667 C 50.402 11.667,50.333 11.812,50.333 11.990 C 50.333 12.168,50.265 12.356,50.181 12.408 C 50.097 12.459,49.978 12.801,49.917 13.168 C 49.855 13.534,49.736 13.833,49.652 13.833 C 49.568 13.833,49.500 13.979,49.500 14.157 C 49.500 14.335,49.434 14.521,49.352 14.572 C 49.271 14.622,49.155 14.926,49.095 15.248 C 49.034 15.570,48.913 15.833,48.826 15.833 C 48.738 15.833,48.667 15.975,48.667 16.148 C 48.667 16.320,48.555 16.677,48.418 16.939 C 48.281 17.202,48.168 17.548,48.168 17.708 C 48.167 17.869,48.096 18.000,48.010 18.000 C 47.924 18.000,47.803 18.337,47.741 18.750 C 47.679 19.162,47.581 19.500,47.522 19.500 C 47.374 19.500,47.030 20.307,46.900 20.960 C 46.840 21.257,46.726 21.500,46.646 21.500 C 46.566 21.500,46.500 21.650,46.500 21.833 C 46.500 22.017,46.435 22.167,46.355 22.167 C 46.275 22.167,46.161 22.467,46.103 22.833 C 46.044 23.200,45.922 23.500,45.831 23.500 C 45.741 23.500,45.667 23.688,45.667 23.917 C 45.667 24.146,45.596 24.333,45.510 24.333 C 45.424 24.333,45.303 24.671,45.241 25.083 C 45.179 25.496,45.081 25.833,45.022 25.833 C 44.892 25.833,44.560 26.577,44.408 27.208 C 44.347 27.460,44.230 27.667,44.149 27.667 C 44.067 27.667,44.000 27.854,44.000 28.083 C 44.000 28.313,43.932 28.500,43.848 28.500 C 43.764 28.500,43.645 28.800,43.583 29.167 C 43.521 29.533,43.402 29.833,43.319 29.833 C 43.235 29.833,43.167 29.979,43.167 30.157 C 43.167 30.335,43.100 30.521,43.019 30.572 C 42.938 30.622,42.821 30.932,42.759 31.261 C 42.697 31.590,42.510 32.102,42.343 32.399 C 42.176 32.696,41.987 33.178,41.923 33.470 C 41.859 33.761,41.738 34.000,41.653 34.000 C 41.569 34.000,41.500 34.141,41.500 34.314 C 41.500 34.487,41.388 34.843,41.251 35.106 C 41.114 35.369,41.002 35.715,41.001 35.875 C 41.000 36.035,40.944 36.167,40.875 36.167 C 40.806 36.167,40.605 36.621,40.427 37.176 C 40.250 37.731,40.044 38.223,39.969 38.269 C 39.894 38.315,39.833 38.480,39.832 38.635 C 39.832 38.790,39.719 39.131,39.582 39.394 C 39.445 39.657,39.333 39.975,39.333 40.102 C 39.333 40.229,39.258 40.333,39.167 40.333 C 39.075 40.333,39.000 40.502,38.999 40.708 C 38.998 40.915,38.886 41.298,38.749 41.561 C 38.612 41.823,38.500 42.142,38.500 42.269 C 38.500 42.396,38.430 42.500,38.344 42.500 C 38.257 42.500,38.136 42.837,38.075 43.250 C 38.013 43.663,37.896 44.000,37.814 44.000 C 37.733 44.000,37.667 44.112,37.667 44.250 C 37.667 44.387,37.592 44.500,37.500 44.500 C 37.408 44.500,37.333 44.669,37.332 44.875 C 37.332 45.081,37.219 45.465,37.082 45.727 C 36.945 45.990,36.833 46.309,36.833 46.436 C 36.833 46.563,36.765 46.667,36.681 46.667 C 36.598 46.667,36.479 46.967,36.417 47.333 C 36.355 47.700,36.236 48.000,36.152 48.000 C 36.068 48.000,36.000 48.146,36.000 48.323 C 36.000 48.501,35.934 48.688,35.852 48.738 C 35.771 48.789,35.653 49.102,35.591 49.435 C 35.483 50.009,35.204 50.650,34.982 50.833 C 34.927 50.879,34.830 51.198,34.766 51.542 C 34.703 51.885,34.580 52.167,34.492 52.167 C 34.405 52.167,34.333 52.354,34.333 52.583 C 34.333 52.813,34.265 53.000,34.181 53.000 C 34.098 53.000,33.979 53.300,33.917 53.667 C 33.855 54.033,33.754 54.333,33.693 54.333 C 33.631 54.333,33.482 54.652,33.361 55.042 C 33.240 55.431,33.028 56.012,32.890 56.333 C 32.752 56.654,32.533 57.163,32.403 57.464 C 32.273 57.765,32.167 58.121,32.167 58.256 C 32.167 58.390,32.100 58.500,32.019 58.500 C 31.938 58.500,31.838 58.725,31.798 59.000 L 31.724 59.500 36.348 59.500 L 40.971 59.500 41.083 58.833 C 41.145 58.467,41.264 58.167,41.348 58.167 C 41.432 58.167,41.500 58.063,41.500 57.936 C 41.500 57.809,41.612 57.490,41.749 57.227 C 41.886 56.965,41.998 56.581,41.999 56.375 C 42.000 56.169,42.060 56.000,42.134 56.000 C 42.207 56.000,42.405 55.606,42.574 55.125 C 42.742 54.644,42.944 54.179,43.023 54.092 C 43.102 54.005,43.167 53.798,43.167 53.633 C 43.167 53.468,43.233 53.333,43.315 53.333 C 43.396 53.333,43.513 53.065,43.575 52.737 C 43.636 52.410,43.823 51.898,43.990 51.601 C 44.157 51.304,44.346 50.822,44.410 50.530 C 44.474 50.239,44.596 50.000,44.680 50.000 C 44.764 50.000,44.833 49.813,44.833 49.583 C 44.833 49.354,44.905 49.167,44.992 49.167 C 45.080 49.167,45.201 48.904,45.261 48.583 C 45.321 48.262,45.437 48.000,45.519 48.000 C 45.600 48.000,45.667 47.813,45.667 47.583 C 45.667 47.354,45.736 47.167,45.820 47.167 C 45.904 47.167,46.023 46.943,46.083 46.670 C 46.142 46.397,46.373 45.816,46.595 45.379 C 46.817 44.941,46.999 44.484,46.999 44.363 C 47.002 43.668,47.019 43.667,57.058 43.667 L 66.640 43.667 66.750 44.165 C 66.810 44.439,66.928 44.706,67.013 44.758 C 67.097 44.810,67.167 44.999,67.167 45.177 C 67.167 45.354,67.233 45.500,67.315 45.500 C 67.396 45.500,67.514 45.772,67.576 46.104 C 67.684 46.676,67.963 47.317,68.184 47.500 C 68.240 47.546,68.337 47.865,68.400 48.208 C 68.463 48.552,68.587 48.833,68.674 48.833 C 68.762 48.833,68.833 49.021,68.833 49.250 C 68.833 49.479,68.908 49.667,69.000 49.667 C 69.092 49.667,69.167 49.798,69.168 49.958 C 69.168 50.119,69.281 50.465,69.418 50.727 C 69.555 50.990,69.667 51.309,69.667 51.436 C 69.667 51.563,69.735 51.667,69.819 51.667 C 69.902 51.667,70.021 51.967,70.083 52.333 C 70.145 52.700,70.246 53.000,70.307 53.000 C 70.459 53.000,70.801 53.799,70.934 54.460 C 70.993 54.757,71.107 55.000,71.188 55.000 C 71.268 55.000,71.333 55.188,71.333 55.417 C 71.333 55.646,71.407 55.833,71.498 55.833 C 71.589 55.833,71.711 56.133,71.769 56.500 C 71.828 56.867,71.933 57.167,72.003 57.167 C 72.073 57.167,72.180 57.362,72.240 57.602 C 72.300 57.841,72.504 58.366,72.693 58.768 L 73.037 59.500 77.539 59.500 L 82.042 59.500 81.934 58.958 C 81.874 58.660,81.752 58.392,81.663 58.361 C 81.573 58.331,81.500 58.124,81.500 57.903 C 81.500 57.681,81.433 57.500,81.352 57.500 C 81.270 57.500,81.153 57.232,81.092 56.904 C 81.030 56.576,80.835 56.049,80.657 55.732 C 80.479 55.416,80.333 55.076,80.333 54.978 C 80.333 54.881,80.228 54.564,80.100 54.275 C 79.972 53.986,79.732 53.356,79.567 52.875 C 79.402 52.394,79.207 52.000,79.134 52.000 C 79.060 52.000,79.000 51.843,79.000 51.650 C 79.000 51.458,78.887 51.045,78.750 50.734 C 78.612 50.422,78.387 49.912,78.250 49.600 C 78.112 49.288,78.000 48.950,78.000 48.848 C 78.000 48.652,77.654 47.975,77.482 47.833 C 77.427 47.788,77.330 47.469,77.266 47.125 C 77.203 46.781,77.080 46.500,76.992 46.500 C 76.905 46.500,76.833 46.313,76.833 46.083 C 76.833 45.854,76.765 45.667,76.681 45.667 C 76.598 45.667,76.479 45.367,76.417 45.001 C 76.355 44.635,76.236 44.293,76.152 44.241 C 76.068 44.189,76.000 44.001,76.000 43.823 C 76.000 43.646,75.944 43.499,75.875 43.499 C 75.806 43.498,75.610 43.048,75.439 42.499 C 75.267 41.949,75.071 41.500,75.002 41.500 C 74.933 41.500,74.828 41.200,74.769 40.833 C 74.711 40.467,74.589 40.167,74.498 40.167 C 74.407 40.167,74.333 39.979,74.333 39.750 C 74.333 39.521,74.268 39.333,74.188 39.333 C 74.107 39.333,73.993 39.090,73.934 38.793 C 73.796 38.107,73.457 37.333,73.293 37.333 C 73.223 37.333,73.166 37.165,73.166 36.958 C 73.165 36.752,73.053 36.369,72.916 36.106 C 72.779 35.843,72.667 35.525,72.667 35.398 C 72.667 35.271,72.601 35.167,72.521 35.167 C 72.441 35.167,72.328 34.867,72.269 34.500 C 72.211 34.133,72.089 33.833,71.998 33.833 C 71.907 33.833,71.833 33.676,71.833 33.484 C 71.833 33.291,71.730 32.897,71.603 32.609 C 71.056 31.361,70.859 30.880,70.652 30.292 C 70.532 29.948,70.373 29.667,70.300 29.667 C 70.227 29.667,70.166 29.498,70.166 29.292 C 70.165 29.085,70.053 28.702,69.916 28.439 C 69.779 28.177,69.667 27.858,69.667 27.731 C 69.667 27.604,69.600 27.500,69.519 27.500 C 69.437 27.500,69.320 27.232,69.259 26.904 C 69.197 26.576,69.019 26.070,68.862 25.779 C 68.705 25.488,68.435 24.819,68.261 24.292 C 68.088 23.765,67.883 23.333,67.806 23.333 C 67.729 23.333,67.666 23.165,67.666 22.958 C 67.665 22.752,67.553 22.369,67.416 22.106 C 67.279 21.843,67.167 21.525,67.167 21.398 C 67.167 21.271,67.100 21.167,67.019 21.167 C 66.937 21.167,66.819 20.895,66.757 20.563 C 66.650 19.991,66.371 19.349,66.149 19.167 C 66.094 19.121,65.996 18.802,65.933 18.458 C 65.870 18.115,65.747 17.833,65.659 17.833 C 65.572 17.833,65.500 17.646,65.500 17.417 C 65.500 17.188,65.432 17.000,65.348 17.000 C 65.264 17.000,65.145 16.700,65.083 16.334 C 65.022 15.968,64.903 15.626,64.819 15.574 C 64.735 15.523,64.667 15.335,64.667 15.157 C 64.667 14.979,64.600 14.833,64.519 14.833 C 64.437 14.833,64.318 14.552,64.254 14.208 C 64.189 13.865,64.080 13.508,64.010 13.417 C 63.940 13.325,63.744 12.856,63.575 12.375 C 63.406 11.894,63.207 11.500,63.134 11.500 C 63.060 11.500,63.000 11.343,63.000 11.150 C 63.000 10.958,62.896 10.564,62.770 10.275 C 62.643 9.986,62.418 9.476,62.270 9.141 C 62.121 8.807,62.000 8.465,62.000 8.383 C 62.000 8.129,61.591 7.336,61.458 7.335 C 61.390 7.334,61.333 7.165,61.332 6.958 C 61.332 6.752,61.219 6.369,61.082 6.106 C 60.945 5.843,60.833 5.525,60.833 5.398 C 60.833 5.271,60.768 5.167,60.688 5.167 C 60.609 5.167,60.500 4.897,60.447 4.568 C 60.273 3.496,60.286 3.500,56.813 3.500 C 54.127 3.500,53.667 3.537,53.667 3.750 M-0.000 31.909 L 0.000 59.500 4.083 59.500 L 8.167 59.500 8.167 50.500 L 8.167 41.500 15.333 41.500 C 20.000 41.500,22.500 41.442,22.500 41.333 C 22.500 41.242,22.912 41.167,23.417 41.167 C 23.921 41.167,24.333 41.101,24.333 41.022 C 24.333 40.942,24.783 40.825,25.333 40.763 C 25.883 40.701,26.333 40.579,26.333 40.492 C 26.333 40.405,26.521 40.333,26.750 40.333 C 26.979 40.333,27.167 40.268,27.167 40.188 C 27.167 40.108,27.467 39.995,27.833 39.936 C 28.200 39.877,28.500 39.774,28.501 39.706 C 28.501 39.639,28.838 39.445,29.251 39.275 C 29.663 39.106,30.000 38.899,30.000 38.817 C 30.000 38.734,30.083 38.667,30.184 38.667 C 30.650 38.667,34.333 35.182,34.333 34.741 C 34.333 34.628,34.446 34.492,34.583 34.440 C 34.721 34.387,34.833 34.232,34.833 34.096 C 34.833 33.960,35.021 33.661,35.250 33.432 C 35.479 33.203,35.667 32.862,35.667 32.674 C 35.667 32.487,35.742 32.333,35.833 32.333 C 35.925 32.333,36.000 32.221,36.000 32.083 C 36.000 31.946,36.072 31.833,36.159 31.833 C 36.247 31.833,36.367 31.571,36.428 31.250 C 36.488 30.929,36.604 30.667,36.685 30.667 C 36.767 30.667,36.833 30.479,36.833 30.250 C 36.833 30.021,36.903 29.833,36.988 29.833 C 37.073 29.833,37.194 29.421,37.257 28.917 C 37.320 28.412,37.438 28.000,37.519 28.000 C 37.600 28.000,37.667 27.715,37.667 27.367 C 37.667 27.018,37.757 26.643,37.869 26.531 C 38.155 26.245,38.155 19.422,37.869 19.135 C 37.757 19.024,37.667 18.690,37.667 18.393 C 37.667 18.096,37.600 17.812,37.519 17.762 C 37.439 17.712,37.321 17.258,37.257 16.752 C 37.194 16.247,37.073 15.833,36.988 15.833 C 36.903 15.833,36.833 15.646,36.833 15.417 C 36.833 15.188,36.758 15.000,36.667 15.000 C 36.575 15.000,36.500 14.898,36.500 14.773 C 36.500 14.500,35.468 12.440,35.292 12.361 C 35.223 12.331,35.167 12.232,35.167 12.142 C 35.167 11.998,34.563 11.114,34.083 10.556 C 33.992 10.449,33.729 10.114,33.500 9.812 C 33.271 9.509,32.896 9.096,32.667 8.893 C 31.259 7.651,30.856 7.333,30.688 7.333 C 30.585 7.333,30.500 7.260,30.500 7.170 C 30.500 7.080,30.313 6.959,30.083 6.902 C 29.854 6.844,29.667 6.730,29.667 6.649 C 29.667 6.567,29.554 6.500,29.417 6.500 C 29.279 6.500,29.167 6.425,29.167 6.333 C 29.167 6.242,29.092 6.167,29.001 6.167 C 28.735 6.167,27.500 5.599,27.500 5.476 C 27.500 5.415,27.125 5.313,26.667 5.250 C 26.208 5.187,25.833 5.067,25.833 4.984 C 25.833 4.901,25.661 4.833,25.450 4.833 C 25.239 4.833,24.973 4.740,24.858 4.625 C 24.697 4.463,21.909 4.406,12.325 4.367 L -0.000 4.317 -0.000 31.909 M82.667 31.917 L 82.667 59.500 86.750 59.500 L 90.833 59.500 90.833 31.917 L 90.833 4.333 86.750 4.333 L 82.667 4.333 82.667 31.917 M110.625 4.839 C 110.373 5.114,110.167 5.413,110.167 5.504 C 110.167 5.595,109.979 5.832,109.750 6.031 C 109.521 6.230,109.333 6.482,109.333 6.590 C 109.333 6.698,109.146 6.927,108.917 7.100 C 108.688 7.272,108.500 7.504,108.500 7.615 C 108.500 7.727,108.313 8.006,108.083 8.235 C 107.854 8.464,107.667 8.726,107.667 8.817 C 107.667 8.909,107.566 9.043,107.443 9.117 C 107.320 9.190,107.077 9.475,106.903 9.750 C 106.728 10.025,106.454 10.395,106.293 10.573 C 106.132 10.751,106.000 10.946,106.000 11.007 C 106.000 11.106,105.829 11.324,104.944 12.352 C 104.817 12.500,104.574 12.856,104.404 13.144 C 104.234 13.431,104.041 13.667,103.975 13.667 C 103.910 13.667,103.803 13.833,103.739 14.035 C 103.674 14.238,103.444 14.544,103.228 14.714 C 103.011 14.885,102.833 15.097,102.833 15.186 C 102.833 15.276,102.646 15.536,102.417 15.765 C 102.188 15.994,102.000 16.273,102.000 16.385 C 102.000 16.496,101.813 16.728,101.583 16.900 C 101.354 17.073,101.167 17.348,101.167 17.512 C 101.167 17.676,101.021 17.857,100.842 17.914 C 100.663 17.971,100.467 18.176,100.405 18.369 C 100.344 18.563,100.115 18.900,99.897 19.118 C 99.679 19.337,99.500 19.606,99.500 19.718 C 99.500 19.830,99.313 20.062,99.083 20.234 C 98.854 20.406,98.667 20.615,98.667 20.698 C 98.667 20.781,98.479 21.036,98.250 21.265 C 98.021 21.494,97.833 21.757,97.833 21.848 C 97.833 21.940,97.646 22.203,97.417 22.432 C 97.188 22.661,97.000 22.924,97.000 23.016 C 97.000 23.107,96.813 23.356,96.583 23.569 C 96.354 23.781,96.167 24.006,96.167 24.068 C 96.167 24.175,96.003 24.396,95.542 24.911 C 95.427 25.038,95.333 25.196,95.333 25.261 C 95.333 25.325,95.146 25.552,94.917 25.765 C 94.688 25.977,94.500 26.233,94.500 26.333 C 94.500 26.434,94.313 26.690,94.083 26.902 C 93.854 27.114,93.667 27.339,93.667 27.401 C 93.667 27.464,93.479 27.717,93.250 27.964 C 93.021 28.211,92.833 28.474,92.833 28.548 C 92.833 28.622,92.646 28.856,92.417 29.069 C 91.931 29.519,91.759 34.088,92.208 34.589 C 92.669 35.103,92.833 35.325,92.833 35.432 C 92.833 35.493,93.096 35.792,93.417 36.094 C 93.737 36.397,94.000 36.721,94.000 36.816 C 94.000 36.910,94.300 37.284,94.667 37.647 C 95.033 38.010,95.333 38.356,95.333 38.415 C 95.333 38.474,95.595 38.798,95.915 39.136 C 96.235 39.474,96.498 39.806,96.499 39.875 C 96.499 39.944,96.800 40.300,97.167 40.667 C 97.533 41.033,97.833 41.393,97.833 41.466 C 97.833 41.540,98.133 41.912,98.500 42.293 C 98.867 42.675,99.167 43.039,99.167 43.102 C 99.167 43.165,99.429 43.471,99.750 43.783 C 100.071 44.094,100.333 44.418,100.333 44.501 C 100.333 44.585,100.633 44.959,101.000 45.333 C 101.367 45.707,101.667 46.085,101.667 46.173 C 101.667 46.261,101.737 46.333,101.822 46.333 C 101.908 46.333,102.024 46.479,102.081 46.658 C 102.137 46.837,102.330 47.029,102.509 47.086 C 102.687 47.143,102.833 47.294,102.833 47.421 C 102.833 47.549,103.133 47.959,103.500 48.333 C 103.867 48.707,104.167 49.067,104.167 49.133 C 104.167 49.199,104.336 49.440,104.543 49.668 C 104.751 49.897,105.180 50.421,105.497 50.833 C 105.814 51.246,106.207 51.705,106.370 51.853 C 106.533 52.001,106.667 52.186,106.667 52.264 C 106.667 52.342,106.838 52.558,107.046 52.745 C 107.255 52.931,107.684 53.421,108.000 53.833 C 108.316 54.246,108.707 54.705,108.870 54.853 C 109.033 55.001,109.167 55.195,109.167 55.284 C 109.167 55.372,109.373 55.640,109.625 55.879 C 110.195 56.418,110.500 56.785,110.500 56.932 C 110.500 56.993,110.763 57.292,111.083 57.594 C 111.404 57.897,111.667 58.221,111.667 58.314 C 111.667 58.407,111.910 58.712,112.208 58.991 L 112.750 59.498 135.042 59.499 L 157.333 59.500 157.333 55.417 L 157.333 51.333 144.667 51.333 L 132.000 51.333 132.000 43.750 L 132.000 36.167 144.417 36.167 L 156.833 36.167 156.833 31.917 L 156.833 27.667 144.417 27.667 L 132.000 27.667 132.000 20.250 L 132.000 12.833 144.667 12.833 L 157.333 12.833 157.333 8.583 L 157.333 4.333 140.417 4.333 L 123.500 4.333 123.500 31.583 C 123.500 46.571,123.457 58.833,123.405 58.833 C 123.253 58.833,122.833 58.372,122.833 58.206 C 122.833 58.123,122.627 57.865,122.375 57.634 C 122.123 57.402,121.767 56.998,121.583 56.736 C 121.400 56.473,121.063 56.069,120.833 55.838 C 120.604 55.606,120.154 55.079,119.833 54.667 C 119.261 53.932,119.031 53.651,118.343 52.849 C 118.155 52.629,118.000 52.391,118.000 52.319 C 118.000 52.248,117.850 52.142,117.667 52.083 C 117.483 52.025,117.333 51.886,117.333 51.773 C 117.333 51.661,117.025 51.238,116.649 50.834 C 116.272 50.431,115.841 49.911,115.690 49.680 C 115.411 49.251,115.092 48.880,113.756 47.429 C 113.340 46.977,113.000 46.548,113.000 46.477 C 113.000 46.405,112.662 45.999,112.250 45.574 C 111.837 45.150,111.500 44.741,111.500 44.665 C 111.500 44.589,111.200 44.223,110.833 43.853 C 110.467 43.483,110.167 43.114,110.167 43.034 C 110.167 42.954,109.960 42.693,109.708 42.455 C 109.177 41.951,108.833 41.550,108.833 41.430 C 108.833 41.384,108.552 41.043,108.208 40.672 C 107.865 40.301,107.396 39.765,107.167 39.482 C 106.938 39.199,106.581 38.811,106.375 38.620 C 106.169 38.429,106.000 38.195,106.000 38.100 C 106.000 38.005,105.829 37.775,105.620 37.589 C 105.412 37.402,104.983 36.912,104.668 36.500 C 104.353 36.087,103.924 35.585,103.714 35.383 C 103.505 35.181,103.333 34.972,103.333 34.917 C 103.333 34.863,103.060 34.524,102.727 34.163 C 102.393 33.802,102.004 33.337,101.862 33.129 C 101.720 32.920,101.431 32.585,101.219 32.383 C 100.832 32.015,100.698 31.500,100.989 31.500 C 101.074 31.500,101.191 31.351,101.249 31.169 C 101.307 30.987,101.556 30.629,101.802 30.373 C 102.340 29.814,103.224 28.689,103.316 28.447 C 103.352 28.351,103.558 28.109,103.774 27.909 C 103.990 27.709,104.167 27.463,104.167 27.363 C 104.167 27.264,104.354 26.994,104.583 26.765 C 104.813 26.536,105.000 26.297,105.000 26.234 C 105.000 26.171,105.225 25.904,105.500 25.642 C 105.775 25.379,106.000 25.086,106.000 24.991 C 106.000 24.896,106.188 24.631,106.417 24.402 C 106.646 24.172,106.833 23.905,106.833 23.808 C 106.833 23.711,107.021 23.484,107.250 23.304 C 107.479 23.123,107.667 22.903,107.667 22.814 C 107.667 22.724,107.854 22.464,108.083 22.235 C 108.313 22.006,108.500 21.763,108.500 21.696 C 108.500 21.629,108.706 21.346,108.958 21.068 C 109.210 20.789,109.567 20.351,109.750 20.095 C 109.933 19.839,110.177 19.531,110.292 19.410 C 110.406 19.289,110.500 19.144,110.500 19.087 C 110.500 19.031,110.688 18.810,110.917 18.598 C 111.146 18.386,111.335 18.145,111.336 18.064 C 111.337 17.983,111.562 17.663,111.836 17.352 C 112.110 17.042,112.333 16.691,112.333 16.572 C 112.333 16.453,112.479 16.309,112.658 16.253 C 112.837 16.196,113.033 15.991,113.095 15.797 C 113.156 15.603,113.385 15.266,113.603 15.048 C 113.821 14.830,114.000 14.560,114.000 14.449 C 114.000 14.337,114.188 14.105,114.417 13.933 C 114.646 13.761,114.833 13.552,114.833 13.469 C 114.833 13.386,115.021 13.131,115.250 12.902 C 115.479 12.672,115.667 12.430,115.667 12.363 C 115.667 12.296,115.873 12.013,116.125 11.734 C 116.377 11.456,116.733 11.018,116.917 10.762 C 117.100 10.506,117.344 10.198,117.458 10.077 C 117.573 9.956,117.667 9.783,117.667 9.692 C 117.667 9.602,117.723 9.503,117.793 9.472 C 117.862 9.442,118.180 9.079,118.500 8.667 C 118.819 8.254,119.211 7.772,119.372 7.596 C 119.532 7.419,119.706 7.138,119.759 6.971 C 119.812 6.803,119.928 6.667,120.016 6.667 C 120.105 6.667,120.227 6.536,120.289 6.375 C 120.350 6.215,120.573 5.912,120.784 5.701 C 120.994 5.491,121.167 5.209,121.167 5.076 C 121.167 4.942,121.242 4.833,121.333 4.833 C 121.425 4.833,121.500 4.721,121.500 4.583 C 121.500 4.366,120.812 4.334,116.292 4.336 L 111.083 4.340 110.625 4.839 M160.167 8.583 L 160.167 12.833 168.417 12.833 L 176.667 12.833 176.667 36.167 L 176.667 59.500 180.917 59.500 L 185.167 59.500 185.167 36.167 L 185.167 12.833 193.500 12.833 L 201.833 12.833 201.833 8.583 L 201.833 4.333 181.000 4.333 L 160.167 4.333 160.167 8.583 M346.106 12.582 C 348.731 13.129,350.751 14.903,351.742 17.529 C 352.135 18.572,352.073 18.672,350.824 19.022 C 349.467 19.402,349.477 19.406,348.990 18.156 C 347.378 14.013,341.538 13.870,339.275 17.918 C 338.133 19.961,337.811 25.254,338.694 27.466 C 339.891 30.465,341.476 31.667,344.234 31.667 C 346.967 31.667,348.645 30.237,349.612 27.083 C 349.829 26.379,352.153 26.656,352.305 27.405 C 352.380 27.776,351.592 29.789,351.018 30.695 C 347.183 36.742,337.766 34.944,336.000 27.829 C 333.651 18.363,338.531 11.001,346.106 12.582 M365.688 12.607 C 371.121 13.816,374.262 20.074,372.746 26.667 C 370.651 35.774,359.488 37.139,355.669 28.756 C 354.286 25.720,354.334 20.711,355.774 17.676 C 357.673 13.674,361.558 11.688,365.688 12.607 M22.958 13.158 C 23.440 13.279,23.833 13.434,23.833 13.504 C 23.833 13.573,24.096 13.679,24.417 13.739 C 24.738 13.799,25.000 13.920,25.000 14.008 C 25.000 14.095,25.078 14.167,25.174 14.167 C 25.563 14.167,28.000 16.608,28.000 16.999 C 28.000 17.091,28.075 17.167,28.167 17.167 C 28.258 17.167,28.333 17.241,28.333 17.332 C 28.333 17.603,28.902 18.833,29.027 18.833 C 29.091 18.833,29.194 19.247,29.257 19.752 C 29.321 20.258,29.439 20.712,29.519 20.762 C 29.712 20.881,29.712 25.000,29.519 25.000 C 29.438 25.000,29.320 25.412,29.257 25.917 C 29.194 26.421,29.073 26.833,28.988 26.833 C 28.903 26.833,28.833 27.021,28.833 27.250 C 28.833 27.479,28.766 27.667,28.685 27.667 C 28.603 27.667,28.489 27.854,28.432 28.083 C 28.374 28.313,28.253 28.500,28.163 28.500 C 28.074 28.500,28.000 28.580,28.000 28.678 C 28.000 29.059,26.350 31.000,26.027 31.000 C 25.936 31.000,25.836 31.056,25.806 31.125 C 25.695 31.375,24.313 32.179,23.829 32.276 C 23.557 32.330,23.333 32.441,23.333 32.521 C 23.333 32.601,23.113 32.667,22.843 32.667 C 22.574 32.667,22.307 32.742,22.250 32.833 C 22.184 32.940,19.637 33.000,15.157 33.000 L 8.167 33.000 8.167 22.913 L 8.167 12.826 15.125 12.882 C 20.168 12.923,22.324 12.998,22.958 13.158 M380.327 13.625 C 380.455 14.060,380.846 15.317,381.195 16.417 C 381.545 17.517,381.832 18.543,381.832 18.698 C 381.833 18.854,381.908 19.027,382.000 19.083 C 382.092 19.140,382.167 19.306,382.167 19.453 C 382.167 19.701,382.800 21.861,383.500 24.000 C 383.665 24.504,383.928 25.367,384.084 25.917 C 384.240 26.467,384.429 27.104,384.504 27.333 C 384.579 27.563,384.766 28.200,384.921 28.750 C 385.075 29.300,385.229 29.844,385.262 29.958 C 385.347 30.250,385.667 30.219,385.667 29.920 C 385.667 29.785,385.845 29.128,386.063 28.462 C 386.425 27.354,386.786 26.201,387.955 22.417 C 388.181 21.683,388.423 20.933,388.493 20.750 C 388.563 20.567,388.754 19.967,388.918 19.417 C 389.082 18.867,389.459 17.667,389.754 16.750 C 390.049 15.833,390.444 14.596,390.630 14.000 L 390.969 12.917 392.736 12.869 L 394.502 12.822 394.460 23.369 L 394.417 33.917 393.250 33.917 L 392.083 33.917 392.000 25.500 C 391.934 18.884,391.875 17.190,391.724 17.583 C 391.618 17.858,391.219 19.096,390.837 20.333 C 390.454 21.571,390.078 22.771,389.999 23.000 C 389.921 23.229,389.469 24.654,388.997 26.167 C 388.524 27.679,387.965 29.442,387.754 30.083 C 387.543 30.725,387.246 31.662,387.095 32.167 C 386.515 34.092,386.605 34.000,385.309 34.000 C 384.050 34.000,384.040 33.992,383.659 32.583 C 383.450 31.812,383.072 30.551,382.598 29.042 C 382.361 28.285,381.979 27.067,381.750 26.333 C 381.521 25.600,381.139 24.381,380.902 23.625 C 380.664 22.869,380.371 21.912,380.250 21.500 C 380.129 21.087,379.828 20.112,379.581 19.333 C 379.335 18.554,379.073 17.692,379.000 17.417 C 378.927 17.142,378.860 20.721,378.850 25.372 L 378.833 33.827 378.449 33.923 C 378.238 33.976,377.657 33.997,377.158 33.968 L 376.250 33.917 376.207 23.375 L 376.164 12.833 378.129 12.833 L 380.094 12.833 380.327 13.625 M362.407 15.146 C 358.612 16.133,356.607 20.804,357.675 26.167 C 358.714 31.379,364.308 33.525,367.953 30.110 C 371.041 27.217,371.088 19.879,368.039 16.760 C 366.694 15.384,364.218 14.674,362.407 15.146 M57.167 18.167 C 57.167 18.339,57.242 18.527,57.333 18.583 C 57.425 18.640,57.500 18.832,57.500 19.010 C 57.500 19.188,57.566 19.333,57.648 19.333 C 57.729 19.333,57.846 19.669,57.907 20.079 C 57.969 20.490,58.090 20.869,58.176 20.923 C 58.263 20.976,58.333 21.203,58.333 21.427 C 58.333 21.650,58.402 21.833,58.485 21.833 C 58.569 21.833,58.688 22.133,58.750 22.499 C 58.812 22.865,58.931 23.207,59.015 23.259 C 59.098 23.311,59.167 23.536,59.167 23.760 C 59.167 23.984,59.233 24.167,59.314 24.167 C 59.396 24.167,59.513 24.502,59.574 24.913 C 59.636 25.323,59.757 25.703,59.843 25.756 C 59.929 25.809,60.000 25.999,60.000 26.177 C 60.000 26.354,60.066 26.500,60.148 26.500 C 60.229 26.500,60.346 26.836,60.407 27.246 C 60.469 27.656,60.590 28.036,60.676 28.089 C 60.763 28.143,60.833 28.369,60.833 28.593 C 60.833 28.817,60.904 29.000,60.990 29.000 C 61.076 29.000,61.197 29.337,61.259 29.750 C 61.321 30.162,61.438 30.500,61.519 30.500 C 61.600 30.500,61.667 30.688,61.667 30.917 C 61.667 31.146,61.737 31.333,61.823 31.333 C 61.909 31.333,62.030 31.672,62.092 32.085 C 62.154 32.499,62.271 32.878,62.353 32.929 C 62.434 32.979,62.500 33.165,62.500 33.343 C 62.500 33.521,62.568 33.667,62.651 33.667 C 62.734 33.667,62.854 34.042,62.917 34.500 C 62.980 34.958,63.099 35.333,63.182 35.333 C 63.265 35.333,63.333 35.408,63.333 35.500 C 63.333 35.608,61.105 35.667,56.981 35.667 L 50.629 35.667 50.746 34.875 C 50.810 34.440,50.931 34.058,51.015 34.028 C 51.098 33.997,51.167 33.875,51.167 33.755 C 51.167 33.636,51.279 33.323,51.416 33.061 C 51.553 32.798,51.665 32.415,51.666 32.208 C 51.666 32.002,51.742 31.833,51.833 31.833 C 51.925 31.833,52.000 31.646,52.000 31.417 C 52.000 31.188,52.068 31.000,52.151 31.000 C 52.234 31.000,52.354 30.625,52.417 30.167 C 52.480 29.708,52.599 29.333,52.682 29.333 C 52.765 29.333,52.833 29.229,52.833 29.102 C 52.833 28.975,52.945 28.657,53.082 28.394 C 53.219 28.131,53.332 27.748,53.332 27.542 C 53.333 27.335,53.408 27.167,53.500 27.167 C 53.592 27.167,53.667 26.984,53.667 26.760 C 53.667 26.536,53.733 26.312,53.814 26.262 C 53.896 26.211,54.013 25.898,54.076 25.565 C 54.138 25.232,54.271 24.799,54.371 24.604 C 54.751 23.861,54.814 23.691,54.924 23.104 C 54.986 22.772,55.104 22.500,55.185 22.500 C 55.267 22.500,55.333 22.317,55.333 22.093 C 55.333 21.869,55.402 21.644,55.485 21.592 C 55.569 21.541,55.688 21.199,55.750 20.833 C 55.812 20.468,55.922 20.131,55.996 20.086 C 56.069 20.041,56.180 19.731,56.243 19.398 C 56.305 19.065,56.421 18.670,56.499 18.521 C 56.578 18.372,56.685 18.114,56.737 17.948 C 56.853 17.576,57.167 17.736,57.167 18.167 M331.798 32.375 L 331.750 33.917 330.417 33.917 L 329.083 33.917 329.034 32.598 C 328.966 30.782,328.924 30.833,330.501 30.833 L 331.846 30.833 331.798 32.375 " stroke="none" fill="#342c2c" fill-rule="evenodd"></path><path id="path3" d="M344.208 12.615 C 344.369 12.657,344.631 12.657,344.792 12.615 C 344.952 12.573,344.821 12.539,344.500 12.539 C 344.179 12.539,344.048 12.573,344.208 12.615 M363.542 12.615 C 363.702 12.657,363.965 12.657,364.125 12.615 C 364.285 12.573,364.154 12.539,363.833 12.539 C 363.512 12.539,363.381 12.573,363.542 12.615 M342.792 12.784 C 342.998 12.824,343.335 12.824,343.542 12.784 C 343.748 12.745,343.579 12.712,343.167 12.712 C 342.754 12.712,342.585 12.745,342.792 12.784 M345.460 12.785 C 345.668 12.824,345.968 12.823,346.127 12.781 C 346.286 12.739,346.117 12.707,345.750 12.709 C 345.383 12.711,345.253 12.745,345.460 12.785 M362.125 12.784 C 362.331 12.824,362.669 12.824,362.875 12.784 C 363.081 12.745,362.912 12.712,362.500 12.712 C 362.087 12.712,361.919 12.745,362.125 12.784 M364.960 12.785 C 365.168 12.824,365.468 12.823,365.627 12.781 C 365.786 12.739,365.617 12.707,365.250 12.709 C 364.883 12.711,364.753 12.745,364.960 12.785 M347.220 13.109 C 347.375 13.264,348.667 13.832,348.667 13.745 C 348.667 13.659,347.396 13.000,347.229 13.000 C 347.164 13.000,347.160 13.049,347.220 13.109 M379.998 13.492 C 380.085 13.796,380.202 14.091,380.258 14.147 C 380.415 14.304,380.143 13.272,379.981 13.095 C 379.903 13.009,379.911 13.188,379.998 13.492 M394.412 23.417 C 394.412 29.192,394.433 31.530,394.458 28.613 C 394.484 25.696,394.484 20.971,394.458 18.113 C 394.433 15.255,394.412 17.642,394.412 23.417 M349.493 14.542 C 349.902 14.977,350.258 15.333,350.285 15.333 C 350.410 15.333,350.278 15.184,349.542 14.493 L 348.750 13.750 349.493 14.542 M357.957 14.862 C 357.368 15.442,356.794 16.104,356.683 16.333 C 356.518 16.675,356.549 16.660,356.858 16.250 C 357.385 15.549,358.520 14.422,358.915 14.206 C 359.098 14.106,359.198 13.976,359.138 13.916 C 359.078 13.856,358.547 14.282,357.957 14.862 M368.500 13.950 C 368.500 14.030,368.717 14.223,368.981 14.379 C 369.246 14.535,369.694 14.927,369.976 15.248 C 370.259 15.570,370.544 15.833,370.609 15.833 C 370.778 15.833,369.871 14.899,369.125 14.304 C 368.781 14.030,368.500 13.870,368.500 13.950 M338.851 14.510 C 338.632 14.692,338.488 14.877,338.531 14.920 C 338.574 14.963,338.786 14.811,339.001 14.583 C 339.468 14.085,339.401 14.052,338.851 14.510 M390.350 15.267 C 390.254 15.614,390.206 15.928,390.242 15.965 C 390.279 16.001,390.387 15.747,390.483 15.400 C 390.579 15.053,390.628 14.739,390.591 14.702 C 390.554 14.665,390.446 14.919,390.350 15.267 M342.083 15.077 C 341.440 15.372,341.739 15.376,342.500 15.083 C 342.821 14.960,342.971 14.856,342.833 14.854 C 342.696 14.851,342.358 14.951,342.083 15.077 M361.750 15.077 C 361.106 15.372,361.406 15.376,362.167 15.083 C 362.488 14.960,362.637 14.856,362.500 14.854 C 362.363 14.851,362.025 14.951,361.750 15.077 M365.000 14.880 C 365.046 14.927,365.377 15.045,365.736 15.143 C 366.095 15.241,366.320 15.257,366.236 15.178 C 366.075 15.027,364.857 14.733,365.000 14.880 M337.763 15.630 L 337.443 16.083 337.888 15.679 C 338.356 15.255,338.414 15.163,338.208 15.172 C 338.140 15.175,337.939 15.381,337.763 15.630 M380.769 16.000 C 380.824 16.321,380.936 16.655,381.018 16.742 C 381.228 16.965,381.187 16.697,380.905 16.000 L 380.670 15.417 380.769 16.000 M347.924 16.171 C 348.195 16.494,348.551 16.944,348.716 17.171 C 349.003 17.568,349.004 17.563,348.717 17.034 C 348.553 16.732,348.197 16.282,347.925 16.034 L 347.432 15.583 347.924 16.171 M367.727 16.183 C 367.997 16.421,368.438 16.871,368.708 17.183 C 369.145 17.689,369.162 17.696,368.865 17.250 C 368.533 16.751,367.979 16.209,367.493 15.909 C 367.352 15.821,367.458 15.945,367.727 16.183 M339.969 16.458 C 339.568 16.890,338.751 18.108,339.103 17.750 C 339.405 17.443,340.523 16.000,340.459 16.000 C 340.424 16.000,340.204 16.206,339.969 16.458 M378.504 16.208 C 378.502 16.369,378.577 16.500,378.672 16.500 C 378.767 16.500,378.912 16.669,378.995 16.875 C 379.078 17.082,379.149 17.138,379.152 17.000 C 379.156 16.862,379.013 16.563,378.833 16.333 C 378.569 15.996,378.507 15.972,378.504 16.208 M391.667 16.677 C 391.667 16.774,391.741 16.807,391.832 16.751 C 391.940 16.684,392.012 19.633,392.042 25.283 L 392.086 33.917 392.127 25.208 C 392.162 17.561,392.136 16.500,391.917 16.500 C 391.779 16.500,391.667 16.579,391.667 16.677 M378.411 25.250 C 378.411 30.017,378.432 31.943,378.458 29.530 C 378.484 27.117,378.484 23.217,378.458 20.863 C 378.432 18.509,378.411 20.483,378.411 25.250 M355.860 17.757 C 355.581 18.370,355.634 18.501,355.936 17.944 C 356.077 17.683,356.162 17.439,356.123 17.401 C 356.085 17.363,355.967 17.523,355.860 17.757 M371.929 18.333 C 371.990 18.563,372.110 18.862,372.195 19.000 C 372.302 19.174,372.315 19.123,372.238 18.833 C 372.176 18.604,372.057 18.304,371.972 18.167 C 371.865 17.993,371.851 18.044,371.929 18.333 M381.604 18.750 C 381.663 19.025,381.778 19.362,381.858 19.500 C 381.952 19.660,381.966 19.570,381.896 19.250 C 381.837 18.975,381.722 18.637,381.642 18.500 C 381.548 18.340,381.534 18.430,381.604 18.750 M336.000 19.167 C 335.896 19.552,335.844 19.900,335.884 19.939 C 335.924 19.979,336.037 19.693,336.136 19.303 C 336.235 18.913,336.288 18.565,336.252 18.530 C 336.217 18.495,336.104 18.781,336.000 19.167 M350.417 18.833 C 350.207 18.924,350.176 18.977,350.333 18.977 C 350.471 18.977,350.733 18.912,350.917 18.833 C 351.127 18.743,351.158 18.690,351.000 18.690 C 350.863 18.690,350.600 18.755,350.417 18.833 M338.333 19.500 C 338.230 19.885,338.177 20.233,338.217 20.273 C 338.257 20.313,338.371 20.026,338.470 19.636 C 338.569 19.246,338.621 18.899,338.586 18.864 C 338.551 18.828,338.437 19.115,338.333 19.500 M379.831 19.659 C 379.918 19.963,380.036 20.258,380.092 20.314 C 380.248 20.471,379.977 19.438,379.815 19.261 C 379.736 19.176,379.744 19.355,379.831 19.659 M370.100 20.444 C 370.254 21.083,370.333 21.143,370.333 20.621 C 370.333 20.382,370.255 20.138,370.160 20.079 C 370.046 20.009,370.026 20.135,370.100 20.444 M388.833 20.043 C 388.833 20.066,388.760 20.342,388.670 20.657 C 388.580 20.971,388.570 21.158,388.648 21.072 C 388.818 20.886,389.043 20.000,388.920 20.000 C 388.872 20.000,388.833 20.019,388.833 20.043 M355.024 20.667 C 355.008 20.896,354.954 21.271,354.903 21.500 C 354.823 21.859,354.836 21.876,354.999 21.621 C 355.102 21.459,355.157 21.084,355.120 20.788 C 355.068 20.369,355.047 20.343,355.024 20.667 M335.591 21.258 C 335.527 21.683,335.512 22.068,335.558 22.114 C 335.604 22.160,335.694 21.849,335.758 21.424 C 335.821 20.999,335.836 20.614,335.790 20.568 C 335.744 20.522,335.655 20.832,335.591 21.258 M357.272 21.182 C 357.214 21.471,357.177 22.093,357.189 22.563 C 357.208 23.298,357.230 23.232,357.351 22.092 C 357.495 20.720,357.456 20.264,357.272 21.182 M337.934 21.430 C 337.791 21.804,337.813 25.044,337.961 25.276 C 338.028 25.382,338.083 24.501,338.083 23.318 C 338.083 22.135,338.073 21.167,338.059 21.167 C 338.046 21.167,337.990 21.285,337.934 21.430 M372.888 23.417 C 372.889 24.058,372.919 24.300,372.955 23.955 C 372.991 23.609,372.990 23.084,372.954 22.788 C 372.917 22.492,372.887 22.775,372.888 23.417 M389.778 22.611 C 389.717 22.672,389.671 22.878,389.677 23.069 C 389.687 23.389,389.701 23.385,389.847 23.017 C 390.011 22.609,389.977 22.412,389.778 22.611 M370.545 23.333 C 370.545 23.746,370.578 23.915,370.618 23.708 C 370.657 23.502,370.657 23.165,370.618 22.958 C 370.578 22.752,370.545 22.921,370.545 23.333 M382.838 22.833 C 382.838 22.971,382.911 23.196,383.000 23.333 C 383.144 23.556,383.162 23.556,383.162 23.333 C 383.162 23.196,383.089 22.971,383.000 22.833 C 382.856 22.611,382.838 22.611,382.838 22.833 M388.000 22.709 C 388.000 22.733,387.926 23.009,387.836 23.323 C 387.746 23.637,387.736 23.824,387.815 23.739 C 387.985 23.553,388.210 22.667,388.087 22.667 C 388.039 22.667,388.000 22.686,388.000 22.709 M357.178 24.764 C 357.185 25.215,357.255 25.733,357.334 25.917 C 357.423 26.123,357.442 25.837,357.383 25.167 C 357.266 23.851,357.162 23.646,357.178 24.764 M335.526 24.417 C 335.522 24.600,335.581 25.050,335.657 25.417 L 335.795 26.083 335.798 25.500 C 335.799 25.179,335.740 24.729,335.667 24.500 C 335.559 24.163,335.532 24.147,335.526 24.417 M381.345 24.615 C 381.383 25.048,381.643 25.415,381.655 25.052 C 381.661 24.851,381.592 24.640,381.500 24.583 C 381.408 24.527,381.339 24.541,381.345 24.615 M354.865 25.250 C 354.869 25.433,354.930 25.808,355.000 26.083 L 355.127 26.583 355.135 26.083 C 355.140 25.808,355.079 25.433,355.000 25.250 L 354.857 24.917 354.865 25.250 M388.950 25.292 C 388.820 25.522,388.638 26.417,388.742 26.314 C 388.865 26.190,389.169 25.167,389.082 25.167 C 389.048 25.167,388.988 25.223,388.950 25.292 M387.019 25.778 C 387.009 25.885,386.951 26.110,386.892 26.278 C 386.808 26.515,386.831 26.541,386.991 26.393 C 387.105 26.288,387.162 26.063,387.118 25.893 C 387.075 25.723,387.030 25.671,387.019 25.778 M370.189 26.028 C 370.177 26.181,370.118 26.443,370.059 26.611 C 369.976 26.847,369.998 26.874,370.156 26.728 C 370.269 26.624,370.328 26.361,370.287 26.144 C 370.246 25.927,370.202 25.875,370.189 26.028 M338.268 26.833 C 338.325 27.154,338.439 27.529,338.521 27.667 C 338.699 27.963,338.528 27.099,338.308 26.583 C 338.211 26.358,338.199 26.440,338.268 26.833 M335.942 27.000 C 335.999 27.321,336.109 27.696,336.187 27.833 C 336.272 27.984,336.286 27.851,336.224 27.500 C 336.167 27.179,336.057 26.804,335.980 26.667 C 335.895 26.516,335.880 26.649,335.942 27.000 M357.591 27.084 C 357.656 27.358,357.774 27.653,357.852 27.739 C 357.930 27.824,357.923 27.645,357.836 27.341 C 357.632 26.632,357.435 26.425,357.591 27.084 M386.533 27.450 C 386.287 28.254,386.406 28.373,386.667 27.583 C 386.777 27.250,386.834 26.945,386.795 26.906 C 386.755 26.866,386.637 27.111,386.533 27.450 M351.181 27.060 C 351.219 27.093,351.475 27.170,351.750 27.232 C 352.115 27.313,352.183 27.298,352.000 27.174 C 351.775 27.022,351.013 26.916,351.181 27.060 M382.270 27.583 C 382.330 27.858,382.444 28.196,382.525 28.333 C 382.619 28.493,382.632 28.403,382.563 28.083 C 382.504 27.808,382.389 27.471,382.309 27.333 C 382.215 27.173,382.201 27.263,382.270 27.583 M388.116 27.958 C 387.987 28.189,387.805 29.084,387.908 28.981 C 388.032 28.857,388.335 27.833,388.248 27.833 C 388.214 27.833,388.155 27.890,388.116 27.958 M384.602 28.583 C 384.739 29.196,384.834 29.329,384.831 28.903 C 384.829 28.727,384.752 28.471,384.659 28.333 C 384.536 28.151,384.520 28.218,384.602 28.583 M355.667 28.396 C 355.667 28.563,356.325 29.833,356.412 29.833 C 356.451 29.833,356.349 29.532,356.184 29.165 C 355.886 28.498,355.667 28.172,355.667 28.396 M386.186 28.445 C 386.175 28.552,386.118 28.777,386.059 28.945 C 385.975 29.182,385.997 29.207,386.158 29.059 C 386.272 28.955,386.329 28.730,386.285 28.559 C 386.241 28.389,386.197 28.338,386.186 28.445 M368.060 30.099 C 367.497 30.682,367.160 31.093,367.310 31.012 C 367.666 30.822,369.167 29.300,369.167 29.130 C 369.167 28.949,369.196 28.923,368.060 30.099 M359.333 30.083 C 359.644 30.404,359.936 30.667,359.982 30.667 C 360.028 30.667,359.811 30.404,359.500 30.083 C 359.189 29.762,358.897 29.500,358.851 29.500 C 358.805 29.500,359.022 29.762,359.333 30.083 M385.762 29.929 C 385.701 30.173,385.683 30.405,385.722 30.444 C 385.761 30.483,385.843 30.316,385.905 30.071 C 385.966 29.827,385.984 29.595,385.945 29.556 C 385.906 29.517,385.823 29.684,385.762 29.929 M339.500 29.719 C 339.500 29.748,339.744 29.991,340.042 30.260 L 340.583 30.750 340.094 30.208 C 339.638 29.703,339.500 29.590,339.500 29.719 M383.104 30.250 C 383.163 30.525,383.278 30.863,383.358 31.000 C 383.452 31.160,383.466 31.070,383.396 30.750 C 383.337 30.475,383.222 30.137,383.142 30.000 C 383.048 29.840,383.034 29.930,383.104 30.250 M385.018 30.000 C 385.010 30.283,385.385 30.833,385.586 30.833 C 385.659 30.833,385.604 30.702,385.464 30.542 C 385.325 30.381,385.169 30.137,385.118 30.000 C 385.037 29.778,385.025 29.778,385.018 30.000 M356.648 30.263 C 356.855 30.693,358.317 32.333,358.494 32.333 C 358.565 32.333,358.310 32.015,357.928 31.625 C 357.546 31.235,357.065 30.692,356.858 30.417 C 356.651 30.142,356.557 30.073,356.648 30.263 M387.183 30.933 C 387.087 31.281,387.039 31.595,387.076 31.631 C 387.112 31.668,387.221 31.414,387.317 31.067 C 387.413 30.719,387.461 30.405,387.424 30.369 C 387.388 30.332,387.279 30.586,387.183 30.933 M350.360 31.167 C 350.156 31.442,350.051 31.667,350.126 31.667 C 350.200 31.667,350.394 31.442,350.557 31.167 C 350.719 30.892,350.825 30.667,350.791 30.667 C 350.757 30.667,350.563 30.892,350.360 31.167 M330.285 31.124 L 331.487 31.181 331.543 32.549 L 331.599 33.917 331.633 32.458 L 331.667 31.000 330.375 31.033 L 329.083 31.066 330.285 31.124 M342.167 31.649 C 342.304 31.734,342.717 31.847,343.083 31.900 C 343.555 31.969,343.628 31.957,343.333 31.859 C 342.568 31.605,341.899 31.484,342.167 31.649 M345.500 31.763 L 344.750 31.993 345.417 31.900 C 345.783 31.849,346.155 31.738,346.242 31.654 C 346.427 31.473,346.458 31.469,345.500 31.763 M361.667 31.649 C 361.804 31.734,362.217 31.847,362.583 31.900 C 363.055 31.969,363.128 31.957,362.833 31.859 C 362.068 31.605,361.399 31.484,361.667 31.649 M365.167 31.763 L 364.417 31.993 365.083 31.898 C 365.450 31.846,365.863 31.737,366.000 31.657 C 366.347 31.454,366.052 31.491,365.167 31.763 M369.234 32.192 L 368.917 32.552 369.375 32.257 C 369.848 31.952,369.937 31.833,369.692 31.833 C 369.615 31.833,369.409 31.995,369.234 32.192 M338.833 32.285 C 338.833 32.431,339.500 32.891,339.583 32.803 C 339.611 32.774,339.454 32.615,339.234 32.451 C 339.013 32.286,338.833 32.212,338.833 32.285 M349.018 32.519 C 348.799 32.696,348.649 32.871,348.685 32.906 C 348.721 32.942,348.929 32.826,349.149 32.648 C 349.368 32.470,349.518 32.296,349.482 32.260 C 349.446 32.225,349.237 32.341,349.018 32.519 M383.937 32.917 C 383.996 33.192,384.111 33.529,384.191 33.667 C 384.285 33.827,384.299 33.737,384.230 33.417 C 384.170 33.142,384.056 32.804,383.975 32.667 C 383.881 32.507,383.868 32.597,383.937 32.917 M340.043 33.181 C 340.507 33.451,341.500 33.846,341.500 33.760 C 341.500 33.675,340.022 32.997,339.854 33.005 C 339.797 33.008,339.882 33.087,340.043 33.181 M367.500 33.250 C 367.271 33.381,367.158 33.488,367.250 33.488 C 367.342 33.488,367.604 33.381,367.833 33.250 C 368.063 33.119,368.175 33.012,368.083 33.012 C 367.992 33.012,367.729 33.119,367.500 33.250 M342.464 34.030 C 342.621 34.092,343.425 34.143,344.250 34.143 C 345.075 34.143,345.878 34.092,346.034 34.030 C 346.191 33.968,345.387 33.917,344.249 33.917 C 343.110 33.917,342.307 33.968,342.464 34.030 M362.131 34.030 C 362.288 34.092,363.054 34.143,363.833 34.143 C 364.613 34.143,365.378 34.092,365.535 34.030 C 365.692 33.968,364.926 33.917,363.833 33.917 C 362.740 33.917,361.974 33.968,362.131 34.030 " stroke="none" fill="#bc822c" fill-rule="evenodd"></path><path id="path4" d="M343.167 12.488 C 342.926 12.559,343.452 12.609,344.417 12.606 C 345.356 12.604,345.902 12.551,345.667 12.484 C 345.124 12.331,343.697 12.333,343.167 12.488 M362.500 12.487 C 362.264 12.555,362.841 12.607,363.833 12.607 C 364.825 12.607,365.403 12.555,365.167 12.487 C 364.938 12.421,364.337 12.367,363.833 12.367 C 363.329 12.367,362.729 12.421,362.500 12.487 M341.222 12.968 C 340.840 13.123,340.465 13.318,340.389 13.402 C 340.306 13.492,340.385 13.499,340.583 13.419 C 340.767 13.345,341.292 13.151,341.750 12.988 C 342.208 12.824,342.433 12.689,342.250 12.688 C 342.067 12.686,341.604 12.812,341.222 12.968 M346.333 12.709 C 346.379 12.758,346.710 12.879,347.069 12.977 C 347.440 13.078,347.653 13.087,347.564 12.997 C 347.401 12.834,346.185 12.549,346.333 12.709 M360.583 12.969 C 359.064 13.617,357.284 14.992,356.804 15.887 C 356.713 16.059,357.113 15.715,357.694 15.123 C 358.729 14.068,359.906 13.335,361.244 12.912 C 361.614 12.795,361.767 12.696,361.583 12.692 C 361.400 12.689,360.950 12.813,360.583 12.969 M366.426 12.902 C 367.279 13.186,368.495 13.794,368.875 14.129 C 369.035 14.270,369.167 14.308,369.167 14.213 C 369.167 13.971,367.036 12.889,366.333 12.774 C 365.772 12.681,365.776 12.686,366.426 12.902 M376.207 23.375 L 376.250 33.917 377.333 33.960 C 377.929 33.983,378.508 33.943,378.621 33.869 C 378.892 33.692,378.946 16.621,378.676 16.531 C 378.554 16.490,378.500 19.148,378.500 25.153 L 378.500 33.833 377.417 33.833 L 376.333 33.833 376.333 23.407 L 376.333 12.980 378.250 13.032 C 379.305 13.060,380.167 13.027,380.167 12.958 C 380.167 12.890,379.266 12.833,378.165 12.833 L 376.164 12.833 376.207 23.375 M390.891 13.091 C 390.837 13.232,390.839 13.394,390.896 13.452 C 390.953 13.509,391.000 13.433,391.000 13.283 C 391.000 13.052,391.267 13.003,392.792 12.958 L 394.583 12.904 392.786 12.869 C 391.298 12.839,390.973 12.878,390.891 13.091 M348.509 13.639 C 348.917 13.898,349.537 14.430,349.888 14.820 C 350.239 15.210,350.551 15.504,350.583 15.473 C 350.772 15.284,348.359 13.167,347.955 13.167 C 347.852 13.167,348.102 13.379,348.509 13.639 M339.287 14.025 C 338.849 14.311,338.525 14.581,338.568 14.623 C 338.632 14.688,339.514 14.110,340.075 13.634 C 340.416 13.345,340.045 13.529,339.287 14.025 M380.270 13.917 C 380.330 14.192,380.444 14.529,380.525 14.667 C 380.619 14.827,380.632 14.737,380.563 14.417 C 380.504 14.142,380.389 13.804,380.309 13.667 C 380.215 13.507,380.201 13.597,380.270 13.917 M390.417 14.500 C 390.354 14.697,390.340 14.896,390.386 14.942 C 390.432 14.988,390.521 14.864,390.583 14.667 C 390.646 14.470,390.660 14.271,390.614 14.225 C 390.568 14.179,390.479 14.303,390.417 14.500 M370.017 15.086 C 370.433 15.545,370.981 16.277,371.236 16.711 C 371.713 17.524,371.901 17.719,371.718 17.208 C 371.546 16.727,370.569 15.456,369.893 14.833 C 369.349 14.332,369.367 14.368,370.017 15.086 M342.750 14.993 C 342.560 15.071,342.999 15.092,343.770 15.042 C 345.672 14.920,346.763 15.280,347.893 16.405 C 348.494 17.003,348.631 17.092,348.360 16.708 C 347.289 15.193,344.412 14.313,342.750 14.993 M362.465 14.970 C 362.308 15.032,362.924 15.083,363.833 15.083 C 364.743 15.083,365.359 15.032,365.202 14.970 C 365.045 14.908,364.429 14.857,363.833 14.857 C 363.238 14.857,362.622 14.908,362.465 14.970 M380.690 15.167 C 380.690 15.304,380.755 15.567,380.833 15.750 C 380.924 15.960,380.977 15.991,380.977 15.833 C 380.977 15.696,380.912 15.433,380.833 15.250 C 380.743 15.040,380.690 15.009,380.690 15.167 M337.653 15.558 C 337.254 16.100,336.749 16.940,336.937 16.750 C 337.259 16.424,338.033 15.311,337.975 15.255 C 337.943 15.225,337.798 15.361,337.653 15.558 M341.833 15.288 C 340.872 15.653,339.290 17.254,338.948 18.208 C 338.764 18.724,338.983 18.520,339.316 17.866 C 339.750 17.016,340.845 15.945,341.710 15.526 C 342.355 15.213,342.435 15.060,341.833 15.288 M361.003 15.564 C 360.089 16.052,359.067 16.896,358.812 17.373 C 358.707 17.569,359.001 17.356,359.466 16.898 C 359.931 16.441,360.710 15.867,361.197 15.623 C 361.685 15.379,362.007 15.176,361.914 15.173 C 361.821 15.169,361.411 15.345,361.003 15.564 M366.417 15.567 C 367.165 15.910,368.227 16.841,368.907 17.750 C 369.044 17.933,369.158 17.993,369.161 17.882 C 369.177 17.302,366.496 15.145,365.798 15.176 C 365.680 15.182,365.958 15.358,366.417 15.567 M390.017 15.933 C 389.921 16.281,389.872 16.595,389.909 16.631 C 389.946 16.668,390.054 16.414,390.150 16.067 C 390.246 15.719,390.294 15.405,390.258 15.369 C 390.221 15.332,390.113 15.586,390.017 15.933 M381.063 16.458 C 381.109 16.619,381.271 17.187,381.423 17.721 C 381.574 18.255,381.733 18.656,381.776 18.613 C 381.866 18.523,381.173 16.167,381.056 16.167 C 381.013 16.167,381.016 16.298,381.063 16.458 M356.161 16.925 C 355.960 17.251,355.824 17.546,355.859 17.581 C 355.894 17.616,356.092 17.349,356.299 16.989 C 356.770 16.172,356.658 16.121,356.161 16.925 M351.167 16.582 C 351.167 16.638,351.270 16.886,351.397 17.133 C 351.946 18.210,351.905 18.587,351.215 18.792 L 350.583 18.979 351.167 18.889 C 352.044 18.753,352.107 18.611,351.754 17.574 C 351.486 16.784,351.167 16.245,351.167 16.582 M391.804 16.758 C 391.754 16.845,391.665 17.142,391.606 17.417 L 391.499 17.917 391.760 17.448 C 391.904 17.191,391.993 16.894,391.958 16.790 C 391.921 16.680,391.856 16.667,391.804 16.758 M389.416 17.782 C 389.257 18.315,389.013 19.070,388.873 19.462 C 388.733 19.854,388.658 20.214,388.707 20.262 C 388.755 20.311,389.035 19.590,389.327 18.660 C 389.620 17.731,389.824 16.935,389.781 16.893 C 389.739 16.850,389.574 17.250,389.416 17.782 M336.446 17.538 C 336.009 18.584,335.987 18.933,336.416 18.016 C 336.648 17.520,336.803 17.081,336.762 17.040 C 336.720 16.998,336.578 17.222,336.446 17.538 M379.014 17.417 C 379.009 17.600,379.078 17.862,379.167 18.000 C 379.381 18.331,379.381 17.915,379.167 17.417 L 379.023 17.083 379.014 17.417 M348.667 17.363 C 348.667 17.415,348.853 17.880,349.081 18.396 C 349.500 19.343,349.646 19.438,350.250 19.153 C 350.536 19.018,350.518 19.004,350.126 19.058 C 349.615 19.127,349.487 19.008,349.168 18.167 C 348.960 17.620,348.667 17.149,348.667 17.363 M355.491 18.273 C 355.399 18.515,355.362 18.751,355.408 18.797 C 355.483 18.872,355.565 18.697,355.761 18.042 C 355.879 17.645,355.658 17.835,355.491 18.273 M358.143 18.597 C 357.958 19.017,357.835 19.391,357.871 19.427 C 357.907 19.463,358.095 19.119,358.287 18.663 C 358.480 18.207,358.603 17.833,358.560 17.833 C 358.517 17.833,358.329 18.177,358.143 18.597 M391.262 18.429 C 391.201 18.673,391.188 18.910,391.234 18.956 C 391.280 19.002,391.367 18.839,391.429 18.595 C 391.490 18.351,391.503 18.114,391.457 18.068 C 391.411 18.022,391.323 18.184,391.262 18.429 M369.278 18.461 C 369.331 18.669,369.440 18.879,369.520 18.929 C 369.748 19.070,369.693 18.765,369.425 18.407 C 369.192 18.095,369.187 18.097,369.278 18.461 M379.351 18.500 C 379.355 18.637,379.465 19.012,379.595 19.333 L 379.830 19.917 379.729 19.333 C 379.615 18.672,379.338 18.062,379.351 18.500 M372.272 18.917 C 372.448 19.710,372.686 20.186,372.565 19.500 C 372.508 19.179,372.394 18.804,372.312 18.667 C 372.214 18.503,372.200 18.590,372.272 18.917 M338.595 19.095 C 338.534 19.339,338.516 19.571,338.555 19.611 C 338.594 19.650,338.677 19.482,338.738 19.238 C 338.799 18.994,338.817 18.762,338.778 18.723 C 338.739 18.683,338.657 18.851,338.595 19.095 M335.833 19.041 C 335.833 19.094,335.721 19.725,335.583 20.444 C 335.330 21.770,335.277 24.506,335.489 25.417 C 335.553 25.692,335.573 25.017,335.535 23.917 C 335.485 22.506,335.544 21.504,335.734 20.515 C 335.882 19.745,335.965 19.076,335.918 19.029 C 335.872 18.983,335.833 18.988,335.833 19.041 M381.927 19.417 C 382.107 20.181,382.345 20.513,382.225 19.833 C 382.169 19.512,382.052 19.175,381.966 19.083 C 381.868 18.979,381.854 19.103,381.927 19.417 M355.104 19.423 C 355.047 19.572,355.007 19.857,355.015 20.055 C 355.026 20.311,355.077 20.253,355.191 19.857 C 355.357 19.280,355.289 18.941,355.104 19.423 M369.762 19.667 C 369.822 19.987,369.937 20.362,370.016 20.500 C 370.106 20.656,370.122 20.530,370.058 20.167 C 370.001 19.846,369.886 19.471,369.803 19.333 C 369.705 19.172,369.691 19.289,369.762 19.667 M390.850 19.767 C 390.754 20.114,390.706 20.428,390.742 20.465 C 390.779 20.501,390.887 20.247,390.983 19.900 C 391.079 19.553,391.128 19.239,391.091 19.202 C 391.054 19.165,390.946 19.419,390.850 19.767 M357.615 20.004 C 357.554 20.231,357.511 20.604,357.519 20.833 C 357.529 21.133,357.577 21.065,357.687 20.595 C 357.856 19.873,357.791 19.344,357.615 20.004 M338.281 20.171 C 338.221 20.398,338.178 20.808,338.187 21.083 C 338.200 21.482,338.233 21.432,338.351 20.833 C 338.512 20.014,338.459 19.507,338.281 20.171 M379.838 20.167 C 379.838 20.304,379.911 20.529,380.000 20.667 C 380.144 20.889,380.162 20.889,380.162 20.667 C 380.162 20.529,380.089 20.304,380.000 20.167 C 379.856 19.944,379.838 19.944,379.838 20.167 M372.699 20.500 C 372.695 20.729,372.751 21.254,372.825 21.667 L 372.958 22.417 372.959 21.750 C 372.960 21.383,372.903 20.858,372.833 20.583 C 372.718 20.130,372.705 20.122,372.699 20.500 M354.771 21.021 C 354.637 21.689,354.666 25.463,354.808 25.967 C 354.868 26.178,354.917 25.034,354.917 23.425 C 354.917 21.816,354.907 20.500,354.896 20.500 C 354.884 20.500,354.828 20.734,354.771 21.021 M382.357 20.667 C 382.357 20.804,382.421 21.067,382.500 21.250 C 382.590 21.460,382.643 21.491,382.643 21.333 C 382.643 21.196,382.579 20.933,382.500 20.750 C 382.410 20.540,382.357 20.509,382.357 20.667 M388.453 20.781 C 388.409 20.855,388.326 21.179,388.270 21.500 L 388.168 22.083 388.418 21.431 C 388.641 20.851,388.664 20.424,388.453 20.781 M390.429 21.095 C 390.367 21.339,390.349 21.571,390.389 21.611 C 390.428 21.650,390.510 21.482,390.571 21.238 C 390.633 20.994,390.651 20.762,390.611 20.723 C 390.572 20.683,390.490 20.851,390.429 21.095 M370.238 23.417 C 370.235 25.769,370.244 25.840,370.389 24.611 C 370.482 23.823,370.483 22.831,370.392 22.111 C 370.255 21.027,370.241 21.148,370.238 23.417 M380.271 21.500 C 380.385 22.161,380.662 22.772,380.649 22.333 C 380.645 22.196,380.535 21.821,380.405 21.500 L 380.170 20.917 380.271 21.500 M357.302 22.625 C 357.259 23.244,357.272 24.162,357.329 24.667 C 357.406 25.341,357.439 25.044,357.455 23.542 C 357.479 21.275,357.418 20.913,357.302 22.625 M338.061 23.250 C 338.061 24.167,338.089 24.520,338.123 24.036 C 338.157 23.552,338.156 22.802,338.122 22.369 C 338.088 21.937,338.060 22.333,338.061 23.250 M382.770 22.083 C 382.830 22.358,382.944 22.696,383.025 22.833 C 383.119 22.993,383.132 22.903,383.063 22.583 C 383.004 22.308,382.889 21.971,382.809 21.833 C 382.715 21.673,382.701 21.763,382.770 22.083 M390.017 22.433 C 389.921 22.781,389.872 23.095,389.909 23.131 C 389.946 23.168,390.054 22.914,390.150 22.567 C 390.246 22.219,390.294 21.905,390.258 21.869 C 390.221 21.832,390.113 22.086,390.017 22.433 M387.917 22.500 C 387.854 22.697,387.840 22.896,387.886 22.942 C 387.932 22.988,388.021 22.864,388.083 22.667 C 388.146 22.470,388.160 22.271,388.114 22.225 C 388.068 22.179,387.979 22.303,387.917 22.500 M380.683 22.724 C 380.657 22.951,381.365 25.191,381.439 25.116 C 381.477 25.079,381.326 24.493,381.104 23.816 C 380.881 23.138,380.692 22.647,380.683 22.724 M387.608 23.458 C 387.563 23.619,387.475 23.938,387.411 24.167 C 387.334 24.446,387.351 24.528,387.464 24.417 C 387.647 24.235,387.913 23.167,387.774 23.167 C 387.728 23.167,387.653 23.298,387.608 23.458 M383.167 23.432 C 383.167 23.710,383.883 25.839,383.953 25.769 C 384.041 25.681,383.351 23.333,383.236 23.333 C 383.198 23.333,383.167 23.378,383.167 23.432 M389.351 24.518 C 389.142 25.165,389.007 25.729,389.050 25.773 C 389.094 25.816,389.292 25.314,389.491 24.658 C 389.691 24.002,389.826 23.437,389.792 23.403 C 389.758 23.369,389.559 23.870,389.351 24.518 M372.767 25.476 C 372.700 26.058,372.682 26.571,372.726 26.615 C 372.837 26.725,373.053 24.908,372.961 24.637 C 372.921 24.516,372.833 24.893,372.767 25.476 M387.083 25.167 C 387.021 25.364,387.007 25.563,387.053 25.608 C 387.099 25.654,387.187 25.530,387.250 25.333 C 387.313 25.136,387.326 24.937,387.280 24.892 C 387.235 24.846,387.146 24.970,387.083 25.167 M338.178 25.597 C 338.185 25.956,338.254 26.400,338.332 26.583 C 338.420 26.791,338.438 26.570,338.380 26.000 C 338.268 24.902,338.162 24.690,338.178 25.597 M381.523 25.500 C 381.523 25.637,381.588 25.900,381.667 26.083 C 381.757 26.293,381.810 26.324,381.810 26.167 C 381.810 26.029,381.745 25.767,381.667 25.583 C 381.576 25.373,381.523 25.342,381.523 25.500 M357.503 26.097 C 357.504 26.365,357.582 26.696,357.675 26.833 C 357.797 27.012,357.814 26.894,357.734 26.417 C 357.596 25.590,357.499 25.457,357.503 26.097 M386.667 26.500 C 386.563 26.885,386.511 27.233,386.551 27.273 C 386.590 27.313,386.704 27.026,386.803 26.636 C 386.902 26.246,386.954 25.899,386.919 25.864 C 386.884 25.828,386.770 26.115,386.667 26.500 M335.669 26.431 C 335.671 26.698,335.748 27.029,335.842 27.167 C 335.964 27.346,335.981 27.228,335.901 26.750 C 335.762 25.923,335.666 25.790,335.669 26.431 M384.014 26.167 C 384.019 26.304,384.088 26.567,384.167 26.750 L 384.310 27.083 384.319 26.750 C 384.324 26.567,384.256 26.304,384.167 26.167 C 384.023 25.944,384.006 25.944,384.014 26.167 M388.500 27.167 C 388.298 27.820,388.163 28.386,388.201 28.423 C 388.239 28.461,388.441 27.963,388.649 27.316 C 388.858 26.669,388.992 26.103,388.948 26.059 C 388.904 26.015,388.702 26.513,388.500 27.167 M369.829 26.850 C 369.728 27.226,369.684 27.572,369.731 27.620 C 369.778 27.667,369.865 27.491,369.924 27.228 C 369.983 26.965,370.067 26.619,370.110 26.458 C 370.154 26.298,370.149 26.167,370.101 26.167 C 370.053 26.167,369.930 26.474,369.829 26.850 M349.676 26.817 C 349.579 26.997,349.508 27.281,349.517 27.447 C 349.526 27.614,349.614 27.501,349.711 27.197 C 349.860 26.731,349.949 26.659,350.277 26.739 C 351.288 26.984,351.580 27.019,351.333 26.865 C 350.746 26.499,349.859 26.473,349.676 26.817 M355.023 26.750 C 355.023 26.933,355.088 27.233,355.167 27.417 L 355.310 27.750 355.310 27.417 C 355.310 27.233,355.245 26.933,355.167 26.750 L 355.023 26.417 355.023 26.750 M381.937 26.917 C 381.996 27.192,382.111 27.529,382.191 27.667 C 382.285 27.827,382.299 27.737,382.230 27.417 C 382.170 27.142,382.056 26.804,381.975 26.667 C 381.881 26.507,381.868 26.597,381.937 26.917 M372.441 27.125 C 372.396 27.285,372.308 27.604,372.244 27.833 C 372.167 28.113,372.185 28.195,372.297 28.083 C 372.480 27.901,372.746 26.833,372.608 26.833 C 372.561 26.833,372.486 26.965,372.441 27.125 M351.976 27.133 C 352.132 27.242,352.168 27.467,352.094 27.854 C 352.007 28.306,352.022 28.358,352.170 28.120 C 352.412 27.732,352.317 27.127,352.000 27.042 C 351.798 26.987,351.793 27.005,351.976 27.133 M384.437 27.583 C 384.496 27.858,384.611 28.196,384.691 28.333 C 384.785 28.493,384.799 28.403,384.730 28.083 C 384.670 27.808,384.556 27.471,384.475 27.333 C 384.381 27.173,384.368 27.263,384.437 27.583 M357.833 27.435 C 357.833 28.178,360.319 31.187,360.908 31.158 C 361.005 31.153,360.897 31.022,360.668 30.866 C 359.676 30.190,358.968 29.392,358.479 28.399 C 357.994 27.414,357.833 27.174,357.833 27.435 M336.075 28.010 C 336.189 28.601,336.669 29.720,336.767 29.622 C 336.841 29.548,336.698 29.153,336.180 28.000 L 335.993 27.583 336.075 28.010 M348.852 28.904 C 348.310 30.006,347.579 30.728,346.373 31.355 C 345.988 31.555,345.909 31.636,346.167 31.566 C 346.782 31.401,347.933 30.567,348.393 29.954 C 348.874 29.312,349.552 27.996,349.453 27.897 C 349.414 27.858,349.144 28.312,348.852 28.904 M355.418 28.187 C 355.591 28.759,355.807 28.936,355.709 28.427 C 355.664 28.189,355.553 27.949,355.462 27.893 C 355.360 27.830,355.343 27.941,355.418 28.187 M369.190 28.493 C 368.997 28.863,368.869 29.167,368.906 29.167 C 369.033 29.167,369.704 27.982,369.623 27.901 C 369.578 27.856,369.383 28.122,369.190 28.493 M371.719 29.155 C 371.523 29.620,371.392 30.000,371.428 30.000 C 371.557 30.000,372.185 28.638,372.131 28.476 C 372.101 28.385,371.915 28.691,371.719 29.155 M351.683 29.030 C 351.582 29.335,351.236 30.033,350.912 30.583 C 350.580 31.149,350.482 31.402,350.687 31.167 C 351.111 30.678,352.078 28.690,351.953 28.564 C 351.905 28.516,351.784 28.726,351.683 29.030 M385.833 29.167 C 385.730 29.552,385.677 29.900,385.717 29.939 C 385.757 29.979,385.871 29.693,385.970 29.303 C 386.069 28.913,386.121 28.565,386.086 28.530 C 386.051 28.495,385.937 28.781,385.833 29.167 M387.917 29.000 C 387.854 29.197,387.840 29.396,387.886 29.442 C 387.932 29.488,388.021 29.364,388.083 29.167 C 388.146 28.970,388.160 28.771,388.114 28.725 C 388.068 28.679,387.979 28.803,387.917 29.000 M384.848 29.000 C 384.853 29.137,384.921 29.400,385.000 29.583 L 385.143 29.917 385.152 29.583 C 385.157 29.400,385.089 29.137,385.000 29.000 C 384.856 28.778,384.839 28.778,384.848 29.000 M355.833 29.078 C 355.833 29.252,356.503 30.333,356.611 30.333 C 356.656 30.333,356.525 30.052,356.318 29.708 C 355.857 28.943,355.833 28.911,355.833 29.078 M339.495 29.491 C 339.901 30.249,342.316 31.906,342.601 31.621 C 342.641 31.581,342.330 31.417,341.909 31.256 C 341.478 31.091,340.751 30.580,340.243 30.084 C 339.747 29.599,339.410 29.333,339.495 29.491 M368.075 30.010 C 367.713 30.382,366.967 30.910,366.417 31.185 C 365.867 31.459,365.604 31.634,365.833 31.574 C 366.673 31.355,369.365 29.333,368.818 29.333 C 368.772 29.333,368.438 29.638,368.075 30.010 M336.833 29.927 C 336.833 30.077,337.897 31.658,337.958 31.598 C 338.017 31.538,336.988 29.833,336.892 29.833 C 336.860 29.833,336.833 29.875,336.833 29.927 M385.167 30.151 C 385.167 30.229,385.279 30.386,385.417 30.500 C 385.620 30.669,385.667 30.661,385.667 30.455 C 385.667 30.316,385.554 30.159,385.417 30.106 C 385.279 30.054,385.167 30.074,385.167 30.151 M371.050 30.402 C 370.977 30.531,370.666 30.912,370.360 31.248 C 370.053 31.583,369.836 31.892,369.878 31.933 C 369.919 31.975,370.213 31.688,370.530 31.296 C 371.178 30.495,371.393 30.167,371.268 30.167 C 371.221 30.167,371.123 30.273,371.050 30.402 M356.669 30.545 C 356.665 30.751,358.013 32.156,358.573 32.530 C 358.949 32.781,358.912 32.720,358.430 32.297 C 358.071 31.981,357.528 31.429,357.224 31.070 C 356.920 30.711,356.671 30.475,356.669 30.545 M329.071 31.056 C 329.024 31.179,329.007 31.873,329.034 32.598 L 329.083 33.917 330.417 33.917 L 331.750 33.917 331.798 32.375 L 331.846 30.833 330.501 30.833 C 329.532 30.833,329.132 30.896,329.071 31.056 M383.270 31.250 C 383.330 31.525,383.444 31.863,383.525 32.000 C 383.619 32.160,383.632 32.070,383.563 31.750 C 383.504 31.475,383.389 31.137,383.309 31.000 C 383.215 30.840,383.201 30.930,383.270 31.250 M331.667 32.417 L 331.667 33.833 330.417 33.833 L 329.167 33.833 329.167 32.417 L 329.167 31.000 330.417 31.000 L 331.667 31.000 331.667 32.417 M361.167 31.263 C 361.167 31.375,362.032 31.690,362.115 31.607 C 362.153 31.569,361.955 31.459,361.675 31.361 C 361.395 31.264,361.167 31.219,361.167 31.263 M386.852 32.435 C 386.658 33.051,386.529 33.585,386.565 33.621 C 386.601 33.656,386.788 33.181,386.981 32.565 C 387.175 31.949,387.304 31.415,387.268 31.379 C 387.233 31.344,387.045 31.819,386.852 32.435 M338.167 31.808 C 338.167 31.885,338.317 32.084,338.500 32.250 C 338.683 32.416,338.833 32.503,338.833 32.442 C 338.833 32.382,338.683 32.183,338.500 32.000 C 338.317 31.817,338.167 31.730,338.167 31.808 M343.558 31.871 C 343.988 31.985,344.425 31.986,344.891 31.874 C 345.536 31.718,345.493 31.707,344.250 31.704 C 343.039 31.701,342.976 31.717,343.558 31.871 M363.125 31.877 C 363.607 31.993,364.059 31.993,364.542 31.877 C 365.200 31.719,365.149 31.707,363.833 31.707 C 362.518 31.707,362.467 31.719,363.125 31.877 M369.000 32.516 C 368.771 32.704,368.133 33.080,367.583 33.350 C 367.033 33.621,366.771 33.794,367.000 33.733 C 367.793 33.525,370.042 32.159,369.574 32.170 C 369.487 32.172,369.229 32.328,369.000 32.516 M383.681 32.583 C 383.676 32.767,383.744 33.029,383.833 33.167 C 384.047 33.498,384.047 33.082,383.833 32.583 L 383.690 32.250 383.681 32.583 M339.180 32.766 C 339.400 33.031,340.661 33.732,340.747 33.637 C 340.773 33.607,340.383 33.341,339.880 33.046 C 339.377 32.750,339.062 32.624,339.180 32.766 M349.082 32.669 C 349.024 32.762,348.626 33.021,348.197 33.245 C 347.768 33.468,347.512 33.655,347.628 33.659 C 347.874 33.668,349.088 32.928,349.246 32.673 C 349.305 32.578,349.316 32.500,349.270 32.500 C 349.224 32.500,349.139 32.576,349.082 32.669 M384.042 33.667 C 384.094 33.859,384.396 33.920,385.347 33.930 L 386.583 33.943 385.421 33.880 C 384.778 33.845,384.196 33.727,384.117 33.617 C 384.017 33.476,383.995 33.491,384.042 33.667 M341.167 33.821 C 341.304 33.903,341.717 34.015,342.083 34.071 C 342.526 34.139,342.638 34.124,342.417 34.028 C 341.927 33.816,340.861 33.639,341.167 33.821 M346.083 34.000 L 345.750 34.143 346.083 34.143 C 346.267 34.143,346.567 34.079,346.750 34.000 L 347.083 33.857 346.750 33.857 C 346.567 33.857,346.267 33.921,346.083 34.000 M361.417 34.000 C 361.600 34.079,361.900 34.143,362.083 34.143 L 362.417 34.143 362.083 34.000 C 361.900 33.921,361.600 33.857,361.417 33.857 L 361.083 33.857 361.417 34.000 M365.583 34.000 L 365.250 34.143 365.583 34.143 C 365.767 34.143,366.067 34.079,366.250 34.000 L 366.583 33.857 366.250 33.857 C 366.067 33.857,365.767 33.921,365.583 34.000 M392.621 33.954 C 392.917 33.990,393.442 33.991,393.788 33.955 C 394.134 33.919,393.892 33.889,393.250 33.888 C 392.608 33.887,392.325 33.917,392.621 33.954 M343.961 34.287 C 344.261 34.325,344.711 34.324,344.961 34.286 C 345.212 34.248,344.967 34.217,344.417 34.218 C 343.867 34.219,343.662 34.250,343.961 34.287 M363.375 34.286 C 363.627 34.324,364.040 34.324,364.292 34.286 C 364.544 34.248,364.337 34.217,363.833 34.217 C 363.329 34.217,363.123 34.248,363.375 34.286 " stroke="none" fill="#8e672c" fill-rule="evenodd"></path></g></svg>